{
.appVersion = "3516";
.formatVersion = 3;
DisplayStrings = (
"ƉÐĦŁØŦ
łđħłø"
);
axes = (
{
name = Weight;
tag = wght;
}
);
classes = (
{
code = "zero-ar
one-ar
two-ar
three-ar
four-ar
five-ar
six-ar
seven-ar
eight-ar
nine-ar
zeroFarsi-ar
oneFarsi-ar
twoFarsi-ar
threeFarsi-ar
fourFarsi-ar
fiveFarsi-ar
sixFarsi-ar
sevenFarsi-ar
eightFarsi-ar
nineFarsi-ar
fourFarsi-ar.urdu
sevenFarsi-ar.urdu";
name = ArabicDigits;
},
{
code = "zero-ar.EoA
one-ar.EoA
two-ar.EoA
three-ar.EoA
four-ar.EoA
five-ar.EoA
six-ar.EoA
seven-ar.EoA
eight-ar.EoA
nine-ar.EoA
zeroFarsi-ar.EoA
one-ar.EoA
two-ar.EoA
three-ar.EoA
fourFarsi-ar.EoA
fiveFarsi-ar.EoA
sixFarsi-ar.EoA
seven-ar.EoA
eight-ar.EoA
nine-ar.EoA
four-ar.EoA
seven-ar.EoA";
name = ArabicDigits.EoA;
},
{
code = "zero-ar.s
one-ar.s
two-ar.s
three-ar.s
four-ar.s
five-ar.s
six-ar.s
seven-ar.s
eight-ar.s
nine-ar.s
zeroFarsi-ar.s
one-ar.s
two-ar.s
three-ar.s
fourFarsi-ar.s
fiveFarsi-ar.s
sixFarsi-ar.s
seven-ar.s
eight-ar.s
nine-ar.s
fourFarsi-ar.urdu.s
sevenFarsi-ar.urdu.s";
name = ArabicDigits.s;
},
{
code = "behDotless-ar.init behDotless-ar.init.Extended_1 behDotless-ar.init.Extended_2 behDotless-ar.init.Extended_3";
name = BEH.init;
},
{
code = "wavyhamzabelow-ar alefbelow-ar hamzabelow-ar hamzabelowKasra-ar hamzabelowKasratan-ar vbelow-ar vinvertedbelow-ar kasratan-ar kasra-ar";
name = "belowMarks-ar";
},
{
code = "hamzabelow-ar wavyhamzabelow-ar";
name = hamzabelow;
},
{
code = "dotbelow-ar twodotshorizontalbelow-ar threedotsdownbelow-ar";
name = BelowDots;
},
{
code = "twodotshorizontalbelow-ar threedotsdownbelow-ar";
name = BelowDots.wide;
},
{
code = "dotbelow-ar";
name = BelowDots.narrow;
},
{
code = "twodotshorizontalbelow-ar.ss01 threedotsdownbelow-ar.ss01";
name = BelowDots.wide.ss01;
},
{
code = "twodotshorizontalbelow-ar.ss02 threedotsdownbelow-ar.ss02";
name = BelowDots.wide.ss02;
},
{
code = "twodotshorizontalbelow-ar.ss03 threedotsdownbelow-ar.ss03";
name = BelowDots.wide.ss03;
},
{
code = "lam-ar.medi
meem-ar.medi

glyphs = (
{
color = 3;
glyphname = A;
kernLeft = A;
kernRight = A;
lastChange = "2026-03-20 02:37:33 +0000";
layers = (
{
anchors = (
{
name = bottom;
pos = (277,0);
},
{
name = bottom.alt;
pos = (529,0);
},
{
name = top;
pos = (277,650);
}
);
layerId = "AE3FEF6D-3AA7-4252-B349-D2606A6A3B4C";
shapes = (
{
closed = 1;
nodes = (
(40,0,l),
(116,201,l),
(439,201,l),
(515,0,l),
(545,0,l),
(299,650,l),
(256,650,l),
(9,0,l)
);
},
{
closed = 1;
nodes = (
(275,631,l),
(280,631,l),
(429,228,l),
(124,228,l)
);
}
);
vertWidth = 0;
width = 554;
},
{
anchors = (
{
name = bottom;
pos = (330,0);
},
{
name = bottom.alt;
pos = (592,23);
},
{
name = top;
pos = (330,662);
}
);
layerId = "3FD7D777-D61F-402B-A269-3A472D550581";
shapes = (
{
closed = 1;
nodes = (
(173,0,l),
(220,140,l),
(442,140,l),
(487,0,l),
(688,0,l),
(432,662,l),
(230,662,l),
(-28,0,l)
);
},
{
closed = 1;
nodes = (
(329,462,l),
(334,462,l),
(396,269,l),
(266,269,l)
);
}
);
vertWidth = 0;
width = 660;
},
{
anchors = (
{
name = bottom;
pos = (298,0);
},
{
name = bottom.alt;
pos = (554,9);
},
{
name = top;
pos = (298,655);
}
);
layerId = m004;
shapes = (
{
closed = 1;
nodes = (
(91,0,l),
(156,179,l),
(441,179,l),
(505,0,l),
(600,0,l),
(350,655,l),
(247,655,l),
(-4,0,l)
);
},
{
closed = 1;
nodes = (
(296,568,l),
(301,568,l),
(418,244,l),
(178,244,l)
);
}
);
vertWidth = 0;
width = 596;
}
);
unicode = 65;
},
{
glyphname = AA;
kernLeft = A;
kernRight = Agrave;
lastChange = "2026-03-13 19:33:36 +0000";
layers = (
{
background = {
shapes = (
{
alignment = -1;
attr = {
identifier = 0E114AF1;
};
pos = (506,0);
ref = A;
userData = {
UFO.identifier = 02864D95;
UFO.lib = {
};
};
},
{
alignment = -1;
attr = {
identifier = 52A81CB2;
};
ref = A;
userData = {
UFO.identifier = E8936CC3;
UFO.lib = {
};
};
}
);
};
layerId = "AE3FEF6D-3AA7-4252-B349-D2606A6A3B4C";
shapes = (
{
closed = 1;
nodes = (
(546,0,l),
(622,201,l),
(945,201,l),
(1021,0,l),
(1051,0,l),
(805,650,l),
(762,650,l),
(530,40,l),
(299,650,l),
(256,650,l),
(9,0,l),
(40,0,l),
(116,201,l),
(439,201,l),
(515,0,l)
);
},
{
closed = 1;
nodes = (
(781,631,l),
(786,631,l),
(935,228,l),
(630,228,l)
);
},
{
closed = 1;
nodes = (
(275,631,l),
(280,631,l),
(429,228,l),
(124,228,l)
);
}
);
width = 1060;
},
{
background = {
shapes = (
{
alignment = -1;
pos = (530,0);
ref = A;
userData = {
UFO.identifier = 850782C4;
UFO.lib = {
};
};
},
{
alignment = -1;
ref = A;
userData = {
UFO.identifier = 1B0B2F2B;
UFO.lib = {
};
};
}
);
};
layerId = "3FD7D777-D61F-402B-A269-3A472D550581";
shapes = (
{
closed = 1;
nodes = (
(703,0,l),
(751,140,l),
(972,140,l),
(1017,0,l),
(1218,0,l),
(962,662,l),
(760,662,l),
(595,239,l),
(432,662,l),
(230,662,l),
(-28,0,l),
(173,0,l),
(220,140,l),
(442,140,l),
(487,0,l)
);
},
{
closed = 1;
nodes = (
(859,462,l),
(864,462,l),
(926,269,l),
(796,269,l)
);
},
{
closed = 1;
nodes = (
(329,462,l),
(334,462,l),
(396,269,l),
(266,269,l)
);
}
);
width = 1190;
},
{
background = {
shapes = (
{
alignment = -1;
attr = {
identifier = 0E114AF1;
};
pos = (515,0);
ref = A;
userData = {
UFO.identifier = 02864D95;
UFO.lib = {
};
};
},
{
alignment = -1;
attr = {
identifier = 52A81CB2;
};
ref = A;
userData = {
UFO.identifier = E8936CC3;
UFO.lib = {
};
};
}
);
};
layerId = m004;
shapes = (
{
closed = 1;
nodes = (
(606,0,l),
(672,179,l),
(956,179,l),
(1020,0,l),
(1115,0,l),
(865,655,l),
(762,655,l),
(556,115,l),
(350,655,l),
(247,655,l),
(-4,0,l),
(91,0,l),
(156,179,l),
(441,179,l),
(505,0,l)
);
},
{
closed = 1;
nodes = (
(811,568,l),
(816,568,l),
(933,244,l),
(693,244,l)
);
},
{
closed = 1;
nodes = (
(296,568,l),
(301,568,l),
(418,244,l),
(178,244,l)
);
}
);
width = 1111;
}
);
metricLeft = A;
metricRight = A;
unicode = 42802;
},
{
glyphname = AVhorizontalbar;
kernLeft = A;
kernRight = Wcircumflex;
lastChange = "2026-03-13 19:46:22 +0000";
layers = (
{
background = {
shapes = (
{
ref = A;
}
);
};
layerId = "AE3FEF6D-3AA7-4252-B349-D2606A6A3B4C";
shapes = (
{
closed = 1;
nodes = (
(40,0,l),
(116,201,l),
(439,201,l),
(515,0,l),
(560,0,l),
(807,650,l),
(776,650,l),
(701,449,l),
(375,449,l),
(299,650,l),
(256,650,l),
(9,0,l)
);
},
{
closed = 1;
nodes = (
(275,631,l),
(280,631,l),
(429,228,l),
(124,228,l)
);
},
{
closed = 1;
nodes = (
(691,422,l),
(540,20,l),
(537,20,l),
(385,422,l)
);
}
);
vertWidth = 0;
width = 816;
},
{
background = {
shapes = (
{
ref = A;
},
{
pos = (302,0);
ref = V;
}
);
};
layerId = "3FD7D777-D61F-402B-A269-3A472D550581";
shapes = (
{
closed = 1;
nodes = (
(173,0,l),
(220,140,l),
(442,140,l),
(487,0,l),
(702,0,l),
(962,662,l),
(760,662,l),
(713,523,l),
(483,523,l),
(432,662,l),
(230,662,l),
(-28,0,l)
);
},
{
closed = 1;
nodes = (
(329,462,l),
(334,462,l),
(396,269,l),
(267,269,l)
);
},
{
closed = 1;
nodes = (
(670,394,l),
(605,199,l),
(600,199,l),
(529,394,l)
);
}
);
vertWidth = 0;
width = 934;
},
{
background = {
shapes = (
{
pos = (1,0);
ref = A;
}
);
};
layerId = m004;
shapes = (
{
closed = 1;
nodes = (
(91,0,l),
(156,179,l),
(441,179,l),
(505,0,l),
(614,0,l),
(866,655,l),
(771,655,l),
(706,477,l),
(416,477,l),
(350,655,l),
(247,655,l),
(-4,0,l)
);
},
{
closed = 1;
nodes = (
(296,568,l),
(301,568,l),
(418,244,l),
(179,244,l)
);
},
{
closed = 1;
nodes = (
(684,412,l),
(566,88,l),
(562,88,l),
(440,412,l)
);
}
);
vertWidth = 0;
width = 862;
}
);
metricLeft = A;
metricRight = V;
unicode = 42810;
},
{
glyphname = AY;
kernLeft = A;
kernRight = Yacute;
lastChange = "2026-03-13 19:46:22 +0000";
layers = (
{
background = {
shapes = (
{
ref = A;
}
);
};
layerId = "AE3FEF6D-3AA7-4252-B349-D2606A6A3B4C";
shapes = (
{
closed = 1;
nodes = (
(471,-234,l),
(807,650,l),
(776,650,l),
(540,20,l),
(538,20,l),
(299,650,l),
(256,650,l),
(9,0,l),
(41,0,l),
(116,201,l),
(440,201,l),
(523,-23,l),
(434,-234,l)
);
},
{
closed = 1;
nodes = (
(275,631,l),
(280,631,l),
(429,228,l),
(124,228,l)
);
}
);
vertWidth = 0;
width = 816;
},
{
background = {
shapes = (
{
ref = A;
}
);
};
layerId = "3FD7D777-D61F-402B-A269-3A472D550581";
shapes = (
{
closed = 1;
nodes = (
(618,-216,l),
(962,662,l),
(759,662,l),
(605,199,l),
(600,199,l),
(432,662,l),
(230,662,l),
(-28,0,l),
(173,0,l),
(220,140,l),
(442,140,l),
(487,0,l),
(397,-216,l)
);
},
{
closed = 1;
nodes = (
(329,462,l),
(334,462,l),
(396,269,l),
(266,269,l)
);
}
);
vertWidth = 0;
width = 934;
},
{
background = {
shapes = (
{
ref = A;
}
);
};
layerId = m004;
shapes = (
{
closed = 1;
nodes = (
(527,-227,l),
(866,655,l),
(771,655,l),
(566,88,l),
(562,88,l),
(350,655,l),
(247,655,l),
(-4,0,l),
(91,0,l),
(156,179,l),
(442,179,l),
(510,-14,l),
(421,-227,l)
);
},
{
closed = 1;
nodes = (
(296,568,l),
(301,568,l),
(418,244,l),
(179,244,l)
);
}
);
vertWidth = 0;
width = 862;
}
);
metricLeft = A;
metricRight = V;
unicode = 42812;
},
{
glyphname = Ao;
kernLeft = A;
kernRight = O;
lastChange = "2026-03-15 16:02:44 +0000";
layers = (
{
background = {
shapes = (
{
ref = A;
},
{
pos = (347,0);
ref = O;
}
);
};
layerId = "AE3FEF6D-3AA7-4252-B349-D2606A6A3B4C";
shapes = (
{
closed = 1;
nodes = (
(40,0,l),
(116,201,l),
(439,201,l),
(473,75,o),
(562,-5,o),
(706,-5,cs),
(891,-5,o),
(986,131,o),
(986,325,cs),
(986,518,o),
(891,655,o),
(706,655,cs),
(505,655,o),
(423,502,o),
(424,320,c),
(299,650,l),
(256,650,l),
(9,0,l)
);
},
{
closed = 1;
nodes = (
(275,631,l),
(280,631,l),
(429,228,l),
(124,228,l)
);
},
{
closed = 1;
nodes = (
(528,21,o),
(453,157,o),
(453,325,cs),
(453,492,o),
(528,629,o),
(706,629,cs),
(882,629,o),
(957,493,o),
(957,325,cs),
(957,157,o),
(882,21,o),
(706,21,cs)
);
}
);
vertWidth = 0;
width = 1063;
},
{
background = {
shapes = (
{
ref = A;
},
{
pos = (383,0);
ref = O;
}
);
};
layerId = "3FD7D777-D61F-402B-A269-3A472D550581";
shapes = (
{
closed = 1;
nodes = (
(173,0,l),
(220,140,l),
(442,140,l),
(491,55,o),
(582,-5,o),
(725,-5,cs),
(960,-5,o),
(1056,155,o),
(1056,331,cs),
(1056,507,o),
(960,667,o),
(725,667,cs),
(606,667,o),
(523,626,o),
(470,563,c),
(432,662,l),
(230,662,l),
(-28,0,l)
);
},
{
closed = 1;
nodes = (
(329,462,l),
(334,462,l),
(396,269,l),
(266,269,l)
);
},
{
closed = 1;
nodes = (
(648,139,o),
(585,194,o),
(585,331,cs),
(585,468,o),
(649,523,o),
(725,523,cs),
(801,523,o),
(866,468,o),
(866,331,cs),
(866,194,o),
(802,139,o),
(725,139,cs)
);
}
);
vertWidth = 0;
width = 1068;
},
{
background = {
shapes = (
{
ref = A;
},
{
pos = (361,0);
ref = O;
}
);
};
layerId = m004;
shapes = (
{
closed = 1;
nodes = (
(91,0,l),
(156,179,l),
(444,179,l),
(484,68,o),
(574,-5,o),
(720,-5,cs),
(924,-5,o),
(1019,140,o),
(1019,327,cs),
(1019,514,o),
(924,660,o),
(720,660,cs),
(558,660,o),
(465,569,o),
(433,439,c),
(350,655,l),
(247,655,l),
(-4,0,l)
);
},
{
closed = 1;
nodes = (
(296,568,l),
(301,568,l),
(418,244,l),
(178,244,l)
);
},
{
closed = 1;
nodes = (
(580,66,o),
(509,171,o),
(509,327,cs),
(509,483,o),
(580,589,o),
(720,589,cs),
(859,589,o),
(930,484,o),
(930,327,cs),
(930,171,o),
(859,66,o),
(720,66,cs)
);
}
);
vertWidth = 0;
width = 1078;
}
);
metricLeft = A;
metricRight = O;
unicode = 42804;
},
{
glyphname = Au;
kernLeft = A;
lastChange = "2026-03-16 18:00:41 +0000";
layers = (
{
background = {
shapes = (
{
ref = A;
},
{
pos = (208,5);
ref = U;
}
);
};
layerId = "AE3FEF6D-3AA7-4252-B349-D2606A6A3B4C";
shapes = (
{
closed = 1;
nodes = (
(541,0,ls),
(685,0,o),
(773,85,o),
(773,229,cs),
(773,650,l),
(746,650,l),
(746,229,ls),
(746,98,o),
(663,24,o),
(541,24,cs),
(536,24,l),
(299,650,l),
(256,650,l),
(9,0,l),
(40,0,l),
(116,201,l),
(439,201,l),
(515,0,l)
);
},
{
closed = 1;
nodes = (
(275,631,l),
(280,631,l),
(429,228,l),
(124,228,l)
);
}
);
vertWidth = 0;
width = 876;
},
{
background = {
shapes = (
{
ref = A;
},
{
pos = (288,5);
ref = U;
}
);
};
layerId = "3FD7D777-D61F-402B-A269-3A472D550581";
shapes = (
{
closed = 1;
nodes = (
(638,0,ls),
(837,0,o),
(941,89,o),
(941,249,cs),
(941,662,l),
(757,662,l),
(757,254,ls),
(757,191,o),
(720,153,o),
(638,153,cs),
(629,153,l),
(432,662,l),
(230,662,l),
(-28,0,l),
(173,0,l),
(220,140,l),
(442,140,l),
(487,0,l)
);
},
{
closed = 1;
nodes = (
(329,462,l),
(334,462,l),
(396,269,l),
(266,269,l)
);
}
);
vertWidth = 0;
width = 987;
},
{
background = {
shapes = (
{
ref = A;
},
{
pos = (228,5);
ref = U;
}
);
};
layerId = m004;
shapes = (
{
closed = 1;
nodes = (
(578,0,ls),
(743,0,o),
(834,91,o),
(834,237,cs),
(834,655,l),
(750,655,l),
(750,239,ls),
(750,136,o),
(687,73,o),
(578,73,cs),
(572,73,l),
(350,655,l),
(247,655,l),
(-4,0,l),
(91,0,l),
(156,179,l),
(441,179,l),
(505,0,l)
);
},
{
closed = 1;
nodes = (
(296,568,l),
(301,568,l),
(418,244,l),
(178,244,l)
);
}
);
vertWidth = 0;
width = 923;
}
);
metricLeft = A;
metricRight = J;
unicode = 42806;
},
{
glyphname = Av;
kernLeft = A;
kernRight = Wcircumflex;
lastChange = "2026-03-13 19:46:22 +0000";
layers = (
{
background = {
shapes = (
{
pos = (-2,0);
ref = A;
}
);
};
layerId = "AE3FEF6D-3AA7-4252-B349-D2606A6A3B4C";
shapes = (
{
closed = 1;
nodes = (
(40,0,l),
(116,201,l),
(439,201,l),
(515,0,l),
(560,0,l),
(807,650,l),
(776,650,l),
(540,20,l),
(538,20,l),
(299,650,l),
(256,650,l),
(9,0,l)
);
},
{
closed = 1;
nodes = (
(275,631,l),
(280,631,l),
(429,228,l),
(124,228,l)
);
}
);
vertWidth = 0;
width = 816;
},
{
background = {
shapes = (
{
pos = (1,0);
ref = A;
},
{
pos = (272,0);
ref = V;
}
);
};
layerId = "3FD7D777-D61F-402B-A269-3A472D550581";
shapes = (
{
closed = 1;
nodes = (
(173,0,l),
(220,140,l),
(442,140,l),
(487,0,l),
(702,0,l),
(962,662,l),
(760,662,l),
(605,199,l),
(600,199,l),
(432,662,l),
(230,662,l),
(-28,0,l)
);
},
{
closed = 1;
nodes = (
(329,462,l),
(334,462,l),
(396,269,l),
(267,269,l)
);
}
);
vertWidth = 0;
width = 934;
},
{
background = {
shapes = (
{
pos = (-1,0);
ref = A;
}
);
};
layerId = m004;
shapes = (
{
closed = 1;
nodes = (
(91,0,l),
(156,179,l),
(441,179,l),
(505,0,l),
(614,0,l),
(866,655,l),
(771,655,l),
(566,88,l),
(562,88,l),
(350,655,l),
(247,655,l),
(-4,0,l)
);
},
{
closed = 1;
nodes = (
(296,568,l),
(301,568,l),
(418,244,l),
(179,244,l)
);
}
);
vertWidth = 0;
width = 862;
}
);
metricLeft = A;
metricRight = V;
unicode = 42808;
},
{
glyphname = AE;
kernLeft = A;
lastChange = "2026-03-16 19:16:11 +0000";
layers = (
{
anchors = (
{
name = bottom;
pos = (382,0);
},
{
name = top;
pos = (483,650);
}
);
layerId = "AE3FEF6D-3AA7-4252-B349-D2606A6A3B4C";
shapes = (
{
closed = 1;
nodes = (
(41,0,l),
(135,201,l),
(368,201,l),
(368,0,l),
(678,0,l),
(678,25,l),
(395,25,l),
(395,311,l),
(649,311,l),
(649,338,l),
(395,338,l),
(395,624,l),
(678,624,l),
(678,650,l),
(314,650,l),
(9,0,l)
);
},
{
closed = 1;
nodes = (
(333,624,l),
(368,624,l),
(368,228,l),
(148,228,l)
);
}
);
vertWidth = 0;
width = 717;
},
{
anchors = (
{
name = bottom;
pos = (510,0);
},
{
name = top;
pos = (573,662);
}
);
layerId = "3FD7D777-D61F-402B-A269-3A472D550581";
shapes = (
{
closed = 1;
nodes = (
(172,0,l),
(251,177,l),
(419,177,l),
(419,0,l),
(855,0,l),
(855,145,l),
(603,145,l),
(603,266,l),
(829,266,l),
(829,397,l),
(603,397,l),
(603,518,l),
(855,518,l),
(855,662,l),
(295,662,l),
(-28,0,l)
);
},
{
closed = 1;
nodes = (
(404,518,l),
(419,518,l),
(419,308,l),
(310,308,l)
);
}
);
vertWidth = 0;
width = 873;
},
{
anchors = (
{
name = bottom;
pos = (431,0);
},
{
name = top;
pos = (518,655);
}
);
layerId = m004;
shapes = (
{
closed = 1;
nodes = (
(91,0,l),
(180,192,l),
(388,192,l),
(388,0,l),
(744,0,l),
(744,70,l),
(472,70,l),
(472,294,l),
(716,294,l),
(716,360,l),
(472,360,l),
(472,584,l),
(744,584,l),
(744,655,l),
(308,655,l),
(-4,0,l)
);
},
{
closed = 1;
nodes = (
(361,584,l),
(388,584,l),
(388,258,l),
(210,258,l)
);
}
);
vertWidth = 0;
width = 779;
}
);
metricLeft = A;
metricRight = E;
unicode = 198;
},
{
color = 3;
glyphname = B;
lastChange = "2026-03-16 19:16:11 +0000";
layers = (
{
anchors = (
{
name = bottom;
pos = (293,0);
},
{
name = top;
pos = (293,650);
}
);
layerId = "AE3FEF6D-3AA7-4252-B349-D2606A6A3B4C";
shapes = (
{
closed = 1;
nodes = (
(360,0,ls),
(467,0,o),
(543,64,o),
(543,169,cs),
(543,252,o),
(493,310,o),
(420,330,c),
(420,335,l),
(476,360,o),
(513,412,o),
(513,483,cs),
(513,588,o),
(436,650,o),
(329,650,cs),
(118,650,l),
(118,0,l)
);
},
{
closed = 1;
nodes = (
(145,314,l),
(360,314,ls),
(455,314,o),
(513,256,o),
(513,169,cs),
(513,82,o),
(455,25,o),
(360,25,cs),
(145,25,l)
);
},
{
closed = 1;
nodes = (
(145,624,l),
(329,624,ls),
(426,624,o),
(483,570,o),
(483,483,cs),
(483,396,o),
(426,340,o),
(329,340,cs),
(145,340,l)
);
}
);
vertWidth = 0;
width = 589;
},
{
anchors = (
{
name = bottom;
pos = (319,0);
},
{
name = top;
pos = (319,662);
}
);
layerId = "3FD7D777-D61F-402B-A269-3A472D550581";
shapes = (
{
closed = 1;
nodes = (
(397,0,ls),
(538,0,o),
(608,52,o),
(608,165,cs),
(608,248,o),
(568,307,o),
(483,329,c),
(483,334,l),
(563,359,o),
(588,408,o),
(588,473,cs),
(588,596,o),
(499,662,o),
(356,662,cs),
(58,662,l),
(58,0,l)
);
},
{
closed = 1;
nodes = (
(242,270,l),
(354,270,ls),
(396,270,o),
(420,247,o),
(420,206,cs),
(420,165,o),
(396,143,o),
(354,143,cs),
(242,143,l)
);
},
{
closed = 1;
nodes = (
(242,519,l),
(338,519,ls),
(379,519,o),
(404,498,o),
(404,456,cs),
(404,414,o),
(379,393,o),
(338,393,cs),
(242,393,l)
);
}
);
vertWidth = 0;
width = 643;
},
{
anchors = (
{
name = bottom;
pos = (313,0);
},
{
name = top;
pos = (313,655);
}
);
layerId = m004;
shapes = (
{
closed = 1;
nodes = (
(384,0,ls),
(504,0,o),
(577,60,o),
(577,168,cs),
(577,251,o),
(532,309,o),
(454,330,c),
(454,335,l),
(519,360,o),
(551,411,o),
(551,479,cs),
(551,591,o),
(470,655,o),
(349,655,cs),
(107,655,l),
(107,0,l)
);
},
{
closed = 1;
nodes = (
(191,298,l),
(368,298,ls),
(443,298,o),
(487,253,o),
(487,183,cs),
(487,114,o),
(443,69,o),
(368,69,cs),
(191,69,l)
);
},
{
closed = 1;
nodes = (
(191,585,l),
(340,585,ls),
(416,585,o),
(461,543,o),
(461,473,cs),
(461,403,o),
(416,360,o),
(340,360,cs),
(191,360,l)
);
}
);
vertWidth = 0;
width = 624;
}
);
metricLeft = I;
unicode = 66;
},
{
color = 8;
glyphname = Bhook;
lastChange = "2026-03-16 19:16:11 +0000";
layers = (
{
layerId = "AE3FEF6D-3AA7-4252-B349-D2606A6A3B4C";
shapes = (
{
closed = 1;
nodes = (
(458,0,ls),
(565,0,o),
(641,64,o),
(641,169,cs),
(641,252,o),
(591,310,o),
(518,330,c),
(518,335,l),
(574,360,o),
(611,412,o),
(611,483,cs),
(611,588,o),
(534,650,o),
(427,650,cs),
(216,650,ls),
(111,650,o),
(47,599,o),
(47,516,cs),
(47,485,l),
(74,485,l),
(74,516,ls),
(74,584,o),
(128,624,o),
(216,624,c),
(216,0,l)
);
},
{
closed = 1;
nodes = (
(243,314,l),
(458,314,ls),
(553,314,o),
(611,256,o),
(611,169,cs),
(611,82,o),
(553,25,o),
(458,25,cs),
(243,25,l)
);
},
{
closed = 1;
nodes = (
(243,624,l),
(427,624,ls),
(524,624,o),
(581,570,o),
(581,483,cs),
(581,396,o),
(524,340,o),
(427,340,cs),
(243,340,l)
);
}
);
width = 687;
},
{
layerId = "3FD7D777-D61F-402B-A269-3A472D550581";
shapes = (
{
closed = 1;
nodes = (
(609,0,ls),
(749,0,o),
(819,52,o),
(819,165,cs),
(819,248,o),
(780,307,o),
(694,329,c),
(694,334,l),
(774,359,o),
(799,408,o),
(799,473,cs),
(799,596,o),
(711,662,o),
(568,662,cs),
(269,662,ls),
(117,662,o),
(16,594,o),
(16,486,cs),
(16,424,l),
(200,424,l),
(200,486,ls),
(200,515,o),
(234,531,o),
(269,531,c),
(269,0,l)
);
},
{
closed = 1;
nodes = (
(453,270,l),
(565,270,ls),
(606,270,o),
(631,247,o),
(631,206,cs),
(631,165,o),
(606,143,o),
(565,143,cs),
(453,143,l)
);
},
{
closed = 1;
nodes = (
(453,519,l),
(545,519,ls),
(586,519,o),
(611,498,o),
(611,456,cs),
(611,414,o),
(586,393,o),
(545,393,cs),
(453,393,l)
);
}
);
width = 854;
},
{
layerId = m004;
shapes = (
{
closed = 1;
nodes = (
(519,0,ls),
(638,0,o),
(712,60,o),
(712,168,cs),
(712,251,o),
(667,309,o),
(588,330,c),
(588,335,l),
(653,360,o),
(685,411,o),
(685,479,cs),
(685,591,o),
(605,655,o),
(484,655,cs),
(242,655,ls),
(120,655,o),
(32,597,o),
(38,505,cs),
(41,463,l),
(131,463,l),
(128,505,ls),
(126,558,o),
(175,590,o),
(242,590,c),
(242,0,l)
);
},
{
closed = 1;
nodes = (
(326,298,l),
(502,298,ls),
(577,298,o),
(622,253,o),
(622,183,cs),
(622,114,o),
(577,69,o),
(502,69,cs),
(326,69,l)
);
},
{
closed = 1;
nodes = (
(326,585,l),
(474,585,ls),
(550,585,o),
(595,543,o),
(595,473,cs),
(595,403,o),
(550,360,o),
(474,360,cs),
(326,360,l)
);
}
);
width = 759;
}
);
metricLeft = J;
metricRight = B;
unicode = 385;
},
{
color = 3;
glyphname = C;
kernLeft = O;
lastChange = "2026-03-16 02:18:29 +0000";
layers = (
{
anchors = (
{
name = bottom;
pos = (352,-5);
},
{
name = top;
pos = (352,655);
}
);
layerId = "AE3FEF6D-3AA7-4252-B349-D2606A6A3B4C";
shapes = (
{
closed = 1;
nodes = (
(486,-5,o),
(558,85,o),
(586,160,c),
(559,169,l),
(534,99,o),
(470,21,o),
(351,21,cs),
(187,21,o),
(107,146,o),
(107,325,cs),
(107,503,o),
(187,629,o),
(351,629,cs),
(470,629,o),
(534,551,o),
(559,481,c),
(586,490,l),
(558,565,o),
(486,655,o),
(352,655,cs),
(176,655,o),
(77,529,o),
(77,325,cs),
(77,121,o),
(176,-5,o),
(352,-5,cs)
);
}
);
vertWidth = 0;
width = 641;
},
{
anchors = (
{
name = bottom;
pos = (332,-5);
},
{
name = top;
pos = (333,666);
}
);
layerId = "3FD7D777-D61F-402B-A269-3A472D550581";
shapes = (
{
closed = 1;
nodes = (
(518,-5,o),
(651,108,o),
(651,248,c),
(452,250,l),
(445,185,o),
(401,138,o),
(332,138,cs),
(246,138,o),
(200,208,o),
(200,331,cs),
(200,453,o),
(246,523,o),
(332,523,cs),
(401,523,o),
(445,476,o),
(452,411,c),
(651,414,l),
(651,553,o),
(518,666,o),
(333,666,cs),
(133,666,o),
(12,530,o),
(12,331,cs),
(12,132,o),
(133,-5,o),
(333,-5,cs)
);
}
);
vertWidth = 0;
width = 681;
},
{
anchors = (
{
name = bottom;
pos = (351,-5);
},
{
name = top;
pos = (351,660);
}
);
layerId = m004;
shapes = (
{
closed = 1;
nodes = (
(504,-5,o),
(599,93,o),
(617,193,c),
(525,200,l),
(507,132,o),
(451,65,o),
(350,65,cs),
(216,65,o),
(149,169,o),
(149,327,cs),
(149,484,o),
(216,589,o),
(350,589,cs),
(451,589,o),
(507,523,o),
(525,455,c),
(617,462,l),
(599,561,o),
(504,660,o),
(351,660,cs),
(166,660,o),
(59,530,o),
(59,327,cs),
(59,126,o),
(166,-5,o),
(351,-5,cs)
);
}
);
vertWidth = 0;
width = 667;
}
);
metricLeft = O;
unicode = 67;
},
{
color = 3;
glyphname = D;
kernRight = O;
lastChange = "2026-03-16 18:02:35 +0000";
layers = (
{
anchors = (
{
name = "D-bar";
pos = (130,325);
},
{
name = bottom;
pos = (293,0);
},
{
name = top;
pos = (293,650);
}
);
layerId = "AE3FEF6D-3AA7-4252-B349-D2606A6A3B4C";
shapes = (
{
closed = 1;
nodes = (
(293,0,ls),
(477,0,o),
(576,133,o),
(576,325,cs),
(576,517,o),
(477,650,o),
(293,650,cs),
(118,650,l),
(118,0,l)
);
},
{
closed = 1;
nodes = (
(145,624,l),
(293,624,ls),
(466,624,o),
(546,491,o),
(546,325,cs),
(546,159,o),
(466,25,o),
(293,25,cs),
(145,25,l)
);
}
);
vertWidth = 0;
width = 645;
},
{
anchors = (
{
name = "D-bar";
pos = (153,331);
},
{
name = bottom;
pos = (310,0);
},
{
name = top;
pos = (310,662);
}
);
layerId = "3FD7D777-D61F-402B-A269-3A472D550581";
shapes = (
{
closed = 1;
nodes = (
(310,0,ls),
(558,0,o),
(647,164,o),
(647,331,cs),
(647,500,o),
(558,662,o),
(310,662,cs),
(58,662,l),
(58,0,l)
);
},
{
closed = 1;
nodes = (
(242,518,l),
(310,518,ls),
(415,518,o),
(459,463,o),
(459,331,cs),
(459,199,o),
(415,143,o),
(310,143,cs),
(242,143,l)
);
}
);
vertWidth = 0;
width = 666;
},
{
anchors = (
{
name = "D-bar";
pos = (151,327);
},
{
name = bottom;
pos = (309,0);
},
{
name = top;
pos = (309,655);
}
);
layerId = m004;
shapes = (
{
closed = 1;
nodes = (
(309,0,ls),
(517,0,o),
(612,145,o),
(612,327,cs),
(612,511,o),
(517,655,o),
(309,655,cs),
(107,655,l),
(107,0,l)
);
},
{
closed = 1;
nodes = (
(191,584,l),
(309,584,ls),
(456,584,o),
(522,481,o),
(522,327,cs),
(522,174,o),
(456,69,o),
(309,69,cs),
(191,69,l)
);
}
);
vertWidth = 0;
width = 667;
}
);
metricLeft = I;
unicode = 68;
},
{
color = 8;
glyphname = Dhook;
kernRight = O;
lastChange = "2026-03-16 19:16:11 +0000";
layers = (
{
layerId = "AE3FEF6D-3AA7-4252-B349-D2606A6A3B4C";
shapes = (
{
closed = 1;
nodes = (
(391,0,ls),
(575,0,o),
(675,133,o),
(675,325,cs),
(675,517,o),
(575,650,o),
(391,650,cs),
(216,650,ls),
(111,650,o),
(47,599,o),
(47,516,cs),
(47,485,l),
(74,485,l),
(74,516,ls),
(74,584,o),
(128,624,o),
(216,624,c),
(216,0,l)
);
},
{
closed = 1;
nodes = (
(243,624,l),
(391,624,ls),
(564,624,o),
(645,491,o),
(645,325,cs),
(645,159,o),
(564,25,o),
(391,25,cs),
(243,25,l)
);
}
);
vertWidth = 0;
width = 744;
},
{
layerId = "3FD7D777-D61F-402B-A269-3A472D550581";
shapes = (
{
closed = 1;
nodes = (
(511,0,ls),
(760,0,o),
(849,164,o),
(849,331,cs),
(849,500,o),
(760,662,o),
(511,662,cs),
(259,662,ls),
(108,662,o),
(16,594,o),
(16,486,cs),
(16,424,l),
(200,424,l),
(200,486,ls),
(200,515,o),
(225,531,o),
(259,531,c),
(259,0,l)
);
},
{
closed = 1;
nodes = (
(443,518,l),
(511,518,ls),
(616,518,o),
(661,463,o),
(661,331,cs),
(661,199,o),
(616,143,o),
(511,143,cs),
(443,143,l)
);
}
);
vertWidth = 0;
width = 868;
},
{
layerId = m004;
shapes = (
{
closed = 1;
nodes = (
(441,0,ls),
(649,0,o),
(745,145,o),
(745,327,cs),
(745,511,o),
(649,655,o),
(441,655,cs),
(239,655,ls),
(117,655,o),
(38,598,o),
(38,505,cs),
(38,463,l),
(128,463,l),
(128,505,ls),
(128,559,o),
(172,590,o),
(239,590,c),
(239,0,l)
);
},
{
closed = 1;
nodes = (
(323,584,l),
(441,584,ls),
(588,584,o),
(655,481,o),
(655,327,cs),
(655,174,o),
(588,69,o),
(441,69,cs),
(323,69,l)
);
}
);
vertWidth = 0;
width = 800;
}
);
metricLeft = J;
metricRight = D;
unicode = 394;
},
{
color = 3;
glyphname = E;
lastChange = "2026-03-16 18:03:02 +0000";
layers = (
{
anchors = (
{
name = bottom;
pos = (307,0);
},
{
name = bottom.alt;
pos = (387,0);
},
{
name = top;
pos = (307,650);
}
);
layerId = "AE3FEF6D-3AA7-4252-B349-D2606A6A3B4C";
shapes = (
{
closed = 1;
nodes = (
(477,0,l),
(477,25,l),
(145,25,l),
(145,311,l),
(451,311,l),
(451,338,l),
(145,338,l),
(145,624,l),
(477,624,l),
(477,650,l),
(118,650,l),
(118,0,l)
);
}
);
vertWidth = 0;
width = 516;
},
{
anchors = (
{
name = bottom;
pos = (309,0);
},
{
name = bottom.alt;
pos = (387,0);
},
{
name = top;
pos = (309,662);
}
);
layerId = "3FD7D777-D61F-402B-A269-3A472D550581";
shapes = (
{
closed = 1;
nodes = (
(510,0,l),
(510,143,l),
(242,143,l),
(242,266,l),
(484,266,l),
(484,397,l),
(242,397,l),
(242,518,l),
(510,518,l),
(510,662,l),
(58,662,l),
(58,0,l)
);
}
);
vertWidth = 0;
width = 528;
},
{
anchors = (
{
name = bottom;
pos = (317,0);
},
{
name = bottom.alt;
pos = (397,0);
},
{
name = top;
pos = (317,655);
}
);
layerId = m004;
shapes = (
{
closed = 1;
nodes = (
(499,0,l),
(499,69,l),
(191,69,l),
(191,295,l),
(473,295,l),
(473,361,l),
(191,361,l),
(191,584,l),
(499,584,l),
(499,655,l),
(107,655,l),
(107,0,l)
);
}
);
vertWidth = 0;
width = 534;
}
);
metricLeft = I;
unicode = 69;
},
{
glyphname = Esh;
lastChange = "2026-03-16 19:16:11 +0000";
layers = (
{
anchors = (
{
name = bottom;
pos = (310,0);
},
{
name = bottom.alt;
pos = (390,0);
},
{
name = top;
pos = (310,650);
}
);
layerId = "AE3FEF6D-3AA7-4252-B349-D2606A6A3B4C";
shapes = (
{
closed = 1;
nodes = (
(480,0,l),
(480,25,l),
(148,25,l),
(303,321,l),
(303,328,l),
(148,624,l),
(480,624,l),
(480,650,l),
(118,650,l),
(118,624,l),
(275,325,l),
(118,25,l),
(118,0,l)
);
}
);
width = 519;
},
{
anchors = (
{
name = bottom;
pos = (312,0);
},
{
name = bottom.alt;
pos = (390,0);
},
{
name = top;
pos = (312,662);
}
);
layerId = "3FD7D777-D61F-402B-A269-3A472D550581";
shapes = (
{
closed = 1;
nodes = (
(513,0,l),
(513,143,l),
(245,143,l),
(392,327,l),
(392,336,l),
(245,518,l),
(513,518,l),
(513,662,l),
(58,662,l),
(58,518,l),
(209,331,l),
(58,143,l),
(58,0,l)
);
}
);
width = 531;
},
{
anchors = (
{
name = bottom;
pos = (322,0);
},
{
name = bottom.alt;
pos = (402,0);
},
{
name = top;
pos = (322,655);
}
);
layerId = m004;
shapes = (
{
closed = 1;
nodes = (
(504,0,l),
(504,69,l),
(196,69,l),
(348,323,l),
(348,331,l),
(196,584,l),
(504,584,l),
(504,655,l),
(107,655,l),
(107,584,l),
(262,327,l),
(107,69,l),
(107,0,l)
);
}
);
width = 539;
}
);
metricLeft = E;
metricRight = E;
unicode = 425;
},
{
color = 3;
glyphname = Schwa;
kernRight = O;
lastChange = "2026-03-16 02:18:36 +0000";
layers = (
{
layerId = "AE3FEF6D-3AA7-4252-B349-D2606A6A3B4C";
shapes = (
{
closed = 1;
nodes = (
(481,-5,o),
(588,112,o),
(588,324,cs),
(588,534,o),
(481,655,o),
(299,655,cs),
(170,655,o),
(79,594,o),
(38,486,c),
(64,477,l),
(97,564,o),
(182,629,o),
(300,629,cs),
(465,629,o),
(558,513,o),
(558,320,c),
(24,320,l),
(19,144,o),
(109,-5,o),
(306,-5,cs)
);
},
{
closed = 1;
nodes = (
(143,21,o),
(51,145,o),
(52,292,c),
(558,292,l),
(558,137,o),
(461,21,o),
(306,21,cs)
);
}
);
vertWidth = 0;
width = 665;
},
{
layerId = "3FD7D777-D61F-402B-A269-3A472D550581";
shapes = (
{
closed = 1;
nodes = (
(566,-6,o),
(697,127,o),
(697,331,cs),
(697,534,o),
(566,666,o),
(366,666,cs),
(221,666,o),
(107,596,o),
(61,480,c),
(233,424,l),
(254,485,o),
(299,523,o),
(365,523,cs),
(446,523,o),
(495,470,o),
(504,378,c),
(43,378,l),
(7,165,o),
(141,-6,o),
(366,-6,cs)
);
},
{
closed = 1;
nodes = (
(288,138,o),
(242,184,o),
(232,247,c),
(498,247,l),
(485,181,o),
(440,138,o),
(365,138,cs)
);
}
);
vertWidth = 0;
width = 709;
},
{
layerId = m004;
shapes = (
{
closed = 1;
nodes = (
(517,-5,o),
(633,118,o),
(633,327,cs),
(633,534,o),
(517,660,o),
(328,660,cs),
(193,660,o),
(93,594,o),
(51,484,c),
(132,458,l),
(160,534,o),
(230,589,o),
(329,589,cs),
(462,589,o),
(543,498,o),
(547,342,c),
(35,342,l),
(18,152,o),
(125,-5,o),
(332,-5,cs)
);
},
{
closed = 1;
nodes = (
(202,65,o),
(127,158,o),
(123,276,c),
(543,276,l),
(538,154,o),
(457,65,o),
(332,65,cs)
);
}
);
vertWidth = 0;
width = 692;
}
);
metricRight = O;
unicode = 399;
},
{
color = 3;
glyphname = Ezh;
lastChange = "2026-03-11 18:06:56 +0000";
layers = (
{
anchors = (
{
name = bottom;
pos = (284,-5);
},
{
name = top;
pos = (284,650);
}
);
layerId = "AE3FEF6D-3AA7-4252-B349-D2606A6A3B4C";
shapes = (
{
closed = 1;
nodes = (
(445,-5,o),
(528,81,o),
(528,187,cs),
(528,293,o),
(455,380,o),
(289,380,c),
(289,384,l),
(516,609,l),
(516,650,l),
(54,650,l),
(54,624,l),
(493,624,l),
(493,620,l),
(257,384,l),
(257,351,l),
(284,351,ls),
(430,351,o),
(503,278,o),
(503,187,cs),
(503,96,o),
(430,24,o),
(284,24,cs),
(137,24,o),
(66,96,o),
(66,187,c),
(42,187,l),
(42,81,o),
(122,-5,o),
(284,-5,cs)
);
}
);
vertWidth = 0;
width = 589;
},
{
anchors = (
{
name = bottom;
pos = (301,-5);
},
{
name = top;
pos = (301,662);
}
);
layerId = "3FD7D777-D61F-402B-A269-3A472D550581";
shapes = (
{
closed = 1;
nodes = (
(478,-5,o),
(591,79,o),
(591,208,cs),
(591,318,o),
(512,391,o),
(394,410,c),
(394,417,l),
(559,544,l),
(559,662,l),
(36,662,l),
(36,518,l),
(341,518,l),
(341,510,l),
(166,375,l),
(166,303,l),
(280,303,ls),
(364,303,o),
(410,275,o),
(410,221,cs),
(410,167,o),
(364,139,o),
(301,139,cs),
(237,139,o),
(198,167,o),
(197,220,c),
(16,220,l),
(15,84,o),
(124,-5,o),
(301,-5,cs)
);
}
);
vertWidth = 0;
width = 607;
},
{
anchors = (
{
name = bottom;
pos = (290,-5);
},
{
name = top;
pos = (290,655);
}
);
layerId = m004;
shapes = (
{
closed = 1;
nodes = (
(457,-5,o),
(552,80,o),
(552,195,cs),
(552,302,o),
(476,384,o),
(328,391,c),
(328,396,l),
(532,585,l),
(532,655,l),
(47,655,l),
(47,584,l),
(436,584,l),
(436,579,l),
(223,381,l),
(223,333,l),
(283,333,ls),
(405,333,o),
(468,277,o),
(468,200,cs),
(468,123,o),
(405,67,o),
(290,67,cs),
(175,67,o),
(115,123,o),
(115,199,c),
(32,199,l),
(32,83,o),
(123,-5,o),
(290,-5,cs)
);
}
);
vertWidth = 0;
width = 596;
}
);
unicode = 439;
},
{
color = 3;
glyphname = F;
kernRight = F;
lastChange = "2026-03-16 18:03:11 +0000";
layers = (
{
anchors = (
{
name = bottom;
pos = (307,0);
},
{
name = top;
pos = (307,650);
}
);
layerId = "AE3FEF6D-3AA7-4252-B349-D2606A6A3B4C";
shapes = (
{
closed = 1;
nodes = (
(145,0,l),
(145,288,l),
(458,288,l),
(458,314,l),
(145,314,l),
(145,624,l),
(477,624,l),
(477,650,l),
(118,650,l),
(118,0,l)
);
}
);
vertWidth = 0;
width = 511;
},
{
anchors = (
{
name = bottom;
pos = (309,0);
},
{
name = top;
pos = (309,662);
}
);
layerId = "3FD7D777-D61F-402B-A269-3A472D550581";
shapes = (
{
closed = 1;
nodes = (
(242,0,l),
(242,247,l),
(440,247,l),
(440,378,l),
(242,378,l),
(242,518,l),
(510,518,l),
(510,662,l),
(58,662,l),
(58,0,l)
);
}
);
vertWidth = 0;
width = 520;
},
{
anchors = (
{
name = bottom;
pos = (317,0);
},
{
name = top;
pos = (317,655);
}
);
layerId = m004;
shapes = (
{
closed = 1;
nodes = (
(191,0,l),
(191,273,l),
(461,273,l),
(461,338,l),
(191,338,l),
(191,584,l),
(499,584,l),
(499,655,l),
(107,655,l),
(107,0,l)
);
}
);
vertWidth = 0;
width = 526;
}
);
metricLeft = I;
unicode = 70;
},
{
color = 3;
glyphname = G;
kernLeft = O;
lastChange = "2026-03-16 19:16:11 +0000";
layers = (
{
anchors = (
{
name = "T-bar";
pos = (516,173);
},
{
name = bottom;
pos = (365,-5);
},
{
name = top;
pos = (353,655);
}
);
layerId = "AE3FEF6D-3AA7-4252-B349-D2606A6A3B4C";
shapes = (
{
closed = 1;
nodes = (
(586,490,l),
(549,592,o),
(459,655,o),
(353,655,cs),
(181,655,o),
(77,530,o),
(77,322,cs),
(77,110,o),
(179,-5,o),
(365,-5,cs),
(456,-5,o),
(558,28,o),
(601,81,c),
(601,314,l),
(354,314,l),
(354,288,l),
(574,288,l),
(574,88,l),
(536,52,o),
(438,21,o),
(365,21,cs),
(197,21,o),
(107,125,o),
(107,322,cs),
(107,515,o),
(198,629,o),
(352,629,cs),
(447,629,o),
(528,572,o),
(560,481,c)
);
}
);
vertWidth = 0;
width = 650;
},
{
anchors = (
{
name = "T-bar";
pos = (509,193);
},
{
name = bottom;
pos = (340,-5);
},
{
name = top;
pos = (340,667);
}
);
layerId = "3FD7D777-D61F-402B-A269-3A472D550581";
shapes = (
{
closed = 1;
nodes = (
(624,488,l),
(588,593,o),
(498,667,o),
(340,667,cs),
(104,667,o),
(12,507,o),
(12,331,cs),
(12,154,o),
(105,-5,o),
(340,-5,cs),
(483,-5,o),
(566,27,o),
(640,103,c),
(640,377,l),
(317,377,l),
(317,246,l),
(456,246,l),
(456,162,l),
(435,150,o),
(399,140,o),
(369,140,cs),
(263,140,o),
(200,194,o),
(200,331,cs),
(200,468,o),
(264,523,o),
(340,523,cs),
(395,523,o),
(450,494,o),
(478,428,c)
);
}
);
vertWidth = 0;
width = 683;
},
{
anchors = (
{
name = "T-bar";
pos = (521,181);
},
{
name = bottom;
pos = (363,-5);
},
{
name = top;
pos = (355,660);
}
);
layerId = m004;
shapes = (
{
closed = 1;
nodes = (
(608,489,l),
(571,593,o),
(481,660,o),
(355,660,cs),
(159,660,o),
(59,522,o),
(59,326,cs),
(59,127,o),
(159,-5,o),
(363,-5,cs),
(473,-5,o),
(567,28,o),
(621,89,c),
(621,338,l),
(347,338,l),
(347,272,l),
(537,272,l),
(537,116,l),
(505,89,o),
(431,66,o),
(374,66,cs),
(229,66,o),
(149,151,o),
(149,326,cs),
(149,498,o),
(230,589,o),
(355,589,cs),
(435,589,o),
(507,542,o),
(537,462,c)
);
}
);
vertWidth = 0;
width = 670;
}
);
metricLeft = O;
unicode = 71;
},
{
glyphname = H;
lastChange = "2026-03-16 19:16:11 +0000";
layers = (
{
anchors = (
{
name = "H-bar";
pos = (340,470);
},
{
name = bottom;
pos = (340,0);
},
{
name = top;
pos = (340,650);
}
);
layerId = "AE3FEF6D-3AA7-4252-B349-D2606A6A3B4C";
shapes = (
{
closed = 1;
nodes = (
(145,0,l),
(145,311,l),
(537,311,l),
(537,0,l),
(564,0,l),
(564,650,l),
(537,650,l),
(537,338,l),
(145,338,l),
(145,650,l),
(118,650,l),
(118,0,l)
);
}
);
vertWidth = 0;
width = 682;
},
{
anchors = (
{
name = "H-bar";
pos = (354,486);
},
{
name = bottom;
pos = (354,0);
},
{
name = top;
pos = (354,662);
}
);
layerId = "3FD7D777-D61F-402B-A269-3A472D550581";
shapes = (
{
closed = 1;
nodes = (
(242,0,l),
(242,266,l),
(467,266,l),
(467,0,l),
(651,0,l),
(651,662,l),
(467,662,l),
(467,397,l),
(242,397,l),
(242,662,l),
(58,662,l),
(58,0,l)
);
}
);
vertWidth = 0;
width = 708;
},
{
anchors = (
{
name = "H-bar";
pos = (355,476);
},
{
name = bottom;
pos = (355,0);
},
{
name = top;
pos = (355,655);
}
);
layerId = m004;
shapes = (
{
closed = 1;
nodes = (
(191,0,l),
(191,292,l),
(520,292,l),
(520,0,l),
(604,0,l),
(604,655,l),
(520,655,l),
(520,363,l),
(191,363,l),
(191,655,l),
(107,655,l),
(107,0,l)
);
}
);
vertWidth = 0;
width = 711;
}
);
metricLeft = I;
metricRight = I;
unicode = 72;
},
{
color = 3;
glyphname = I;
lastChange = "2026-03-16 18:03:56 +0000";
layers = (
{
anchors = (
{
name = bottom;
pos = (131,0);
},
{
name = bottom.alt;
pos = (131,0);
},
{
name = top;
pos = (131,650);
}
);
layerId = "AE3FEF6D-3AA7-4252-B349-D2606A6A3B4C";
shapes = (
{
closed = 1;
nodes = (
(145,0,l),
(145,650,l),
(118,650,l),
(118,0,l)
);
}
);
vertWidth = 0;
width = 263;
},
{
anchors = (
{
name = bottom;
pos = (150,0);
},
{
name = bottom.alt;
pos = (150,0);
},
{
name = top;
pos = (150,662);
}
);
layerId = "3FD7D777-D61F-402B-A269-3A472D550581";
shapes = (
{
closed = 1;
nodes = (
(242,0,l),
(242,662,l),
(58,662,l),
(58,0,l)
);
}
);
vertWidth = 0;
width = 299;
},
{
anchors = (
{
name = bottom;
pos = (149,0);
},
{
name = bottom.alt;
pos = (149,0);
},
{
name = top;
pos = (149,655);
}
);
layerId = m004;
shapes = (
{
closed = 1;
nodes = (
(191,0,l),
(191,655,l),
(107,655,l),
(107,0,l)
);
}
);
vertWidth = 0;
width = 298;
}
);
unicode = 73;
},
{
color = 3;
glyphname = Icapitalsmall;
lastChange = "2026-03-16 18:04:07 +0000";
layers = (
{
layerId = "AE3FEF6D-3AA7-4252-B349-D2606A6A3B4C";
shapes = (
{
closed = 1;
nodes = (
(189,624,l),
(287,624,l),
(287,650,l),
(64,650,l),
(64,624,l),
(162,624,l),
(162,26,l),
(64,26,l),
(64,0,l),
(287,0,l),
(287,26,l),
(189,26,l)
);
}
);
width = 351;
},
{
layerId = "3FD7D777-D61F-402B-A269-3A472D550581";
shapes = (
{
closed = 1;
nodes = (
(293,518,l),
(382,518,l),
(382,662,l),
(20,662,l),
(20,518,l),
(109,518,l),
(109,144,l),
(20,144,l),
(20,0,l),
(382,0,l),
(382,144,l),
(293,144,l)
);
}
);
width = 402;
},
{
layerId = m004;
shapes = (
{
closed = 1;
nodes = (
(232,584,l),
(328,584,l),
(328,655,l),
(52,655,l),
(52,584,l),
(148,584,l),
(148,70,l),
(52,70,l),
(52,0,l),
(328,0,l),
(328,70,l),
(232,70,l)
);
}
);
width = 380;
}
);
unicode = 42926;
},
{
color = 3;
glyphname = J;
kernLeft = J;
lastChange = "2026-03-16 18:04:25 +0000";
layers = (
{
anchors = (
{
name = bottom;
pos = (217,-5);
},
{
name = top;
pos = (374,650);
}
);
layerId = "AE3FEF6D-3AA7-4252-B349-D2606A6A3B4C";
shapes = (
{
closed = 1;
nodes = (
(324,-5,o),
(387,46,o),
(387,129,cs),
(387,650,l),
(360,650,l),
(360,129,ls),
(360,61,o),
(306,20,o),
(217,20,cs),
(129,20,o),
(74,61,o),
(74,129,cs),
(74,160,l),
(47,160,l),
(47,129,ls),
(47,46,o),
(112,-5,o),
(217,-5,cs)
);
}
);
vertWidth = 0;
width = 490;
},
{
anchors = (
{
name = bottom;
pos = (260,-5);
},
{
name = top;
pos = (413,662);
}
);
layerId = "3FD7D777-D61F-402B-A269-3A472D550581";
shapes = (
{
closed = 1;
nodes = (
(413,-5,o),
(502,62,o),
(502,171,cs),
(502,662,l),
(318,662,l),
(318,171,ls),
(318,151,o),
(296,140,o),
(259,140,cs),
(222,140,o),
(200,152,o),
(200,171,cs),
(200,207,l),
(16,207,l),
(16,171,ls),
(16,63,o),
(108,-5,o),
(260,-5,cs)
);
}
);
vertWidth = 0;
width = 548;
},
{
anchors = (
{
name = bottom;
pos = (237,-5);
},
{
name = top;
pos = (393,655);
}
);
layerId = m004;
shapes = (
{
closed = 1;
nodes = (
(361,-5,o),
(435,52,o),
(435,145,cs),
(435,655,l),
(351,655,l),
(351,145,ls),
(351,95,o),
(306,65,o),
(236,65,cs),
(167,65,o),
(122,95,o),
(122,145,cs),
(122,178,l),
(38,178,l),
(38,145,ls),
(38,52,o),
(114,-5,o),
(237,-5,cs)
);
}
);
vertWidth = 0;
width = 524;
}
);
unicode = 74;
},
{
glyphname = K;
kernRight = K;
lastChange = "2026-03-16 18:04:34 +0000";
layers = (
{
anchors = (
{
name = bottom;
pos = (311,0);
},
{
name = top;
pos = (311,650);
}
);
layerId = "AE3FEF6D-3AA7-4252-B349-D2606A6A3B4C";
shapes = (
{
closed = 1;
nodes = (
(145,0,l),
(145,309,l),
(232,309,l),
(503,0,l),
(542,0,l),
(257,325,l),
(522,650,l),
(483,650,l),
(230,336,l),
(145,336,l),
(145,650,l),
(118,650,l),
(118,0,l)
);
}
);
vertWidth = 0;
width = 558;
},
{
anchors = (
{
name = bottom;
pos = (352,0);
},
{
name = top;
pos = (352,662);
}
);
layerId = "3FD7D777-D61F-402B-A269-3A472D550581";
shapes = (
{
closed = 1;
nodes = (
(242,0,l),
(242,281,l),
(255,281,l),
(456,0,l),
(658,0,l),
(400,344,l),
(640,662,l),
(443,662,l),
(255,399,l),
(242,399,l),
(242,662,l),
(58,662,l),
(58,0,l)
);
}
);
vertWidth = 0;
width = 668;
},
{
anchors = (
{
name = bottom;
pos = (336,0);
},
{
name = top;
pos = (336,655);
}
);
layerId = m004;
shapes = (
{
closed = 1;
nodes = (
(191,0,l),
(191,293,l),
(253,293,l),
(495,0,l),
(595,0,l),
(320,332,l),
(576,655,l),
(477,655,l),
(252,364,l),
(191,364,l),
(191,655,l),
(107,655,l),
(107,0,l)
);
}
);
vertWidth = 0;
width = 603;
}
);
metricLeft = I;
metricRight = X;
unicode = 75;
},
{
color = 8;
glyphname = Khook;
kernRight = K;
lastChange = "2026-03-16 18:04:40 +0000";
layers = (
{
layerId = "AE3FEF6D-3AA7-4252-B349-D2606A6A3B4C";
shapes = (
{
closed = 1;
nodes = (
(409,619,o),
(451,634,o),
(488,634,cs),
(516,634,o),
(543,625,o),
(554,615,c),
(569,635,l),
(553,649,o),
(524,660,o),
(489,660,cs),
(448,660,o),
(392,643,o),
(354,571,cs),
(230,336,l),
(145,336,l),
(145,650,l),
(118,650,l),
(118,0,l),
(145,0,l),
(145,309,l),
(232,309,l),
(503,0,l),
(542,0,l),
(257,325,l),
(375,553,ls)
);
}
);
vertWidth = 0;
width = 585;
},
{
layerId = "3FD7D777-D61F-402B-A269-3A472D550581";
shapes = (
{
closed = 1;
nodes = (
(531,533,o),
(553,546,o),
(588,546,cs),
(609,546,o),
(638,541,o),
(657,536,c),
(683,647,l),
(641,662,o),
(592,671,o),
(543,671,cs),
(459,671,o),
(415,645,o),
(372,578,cs),
(256,399,l),
(242,399,l),
(242,662,l),
(58,662,l),
(58,0,l),
(242,0,l),
(242,281,l),
(256,281,l),
(456,0,l),
(658,0,l),
(400,344,l),
(503,493,ls)
);
}
);
vertWidth = 0;
width = 693;
},
{
layerId = m004;
shapes = (
{
closed = 1;
nodes = (
(463,588,o),
(498,601,o),
(534,601,cs),
(560,601,o),
(588,594,o),
(602,586,c),
(621,640,l),
(595,654,o),
(558,665,o),
(519,665,cs),
(461,665,o),
(404,644,o),
(366,574,cs),
(251,364,l),
(191,364,l),
(191,655,l),
(107,655,l),
(107,0,l),
(191,0,l),
(191,293,l),
(253,293,l),
(495,0,l),
(595,0,l),
(321,327,l),
(432,531,ls)
);
}
);
vertWidth = 0;
width = 629;
}
);
metricLeft = I;
metricRight = X;
unicode = 408;
},
{
color = 3;
glyphname = L;
kernRight = L;
lastChange = "2026-03-16 18:04:48 +0000";
layers = (
{
anchors = (
{
name = "L-slash";
pos = (131,340);
},
{
name = bottom;
pos = (322,0);
},
{
name = bottom.alt;
pos = (449,0);
},
{
name = middle_dot_I;
pos = (322,363);
},
{
name = top;
pos = (322,650);
},
{
name = top.alt;
pos = (282,650);
}
);
layerId = "AE3FEF6D-3AA7-4252-B349-D2606A6A3B4C";
shapes = (
{
closed = 1;
nodes = (
(467,0,l),
(467,25,l),
(145,25,l),
(145,650,l),
(118,650,l),
(118,0,l)
);
}
);
vertWidth = 0;
width = 497;
},
{
anchors = (
{
name = "L-slash";
pos = (150,419);
},
{
name = bottom;
pos = (294,0);
},
{
name = bottom.alt;
pos = (489,0);
},
{
name = middle_dot_I;
pos = (393,394);
},
{
name = top;
pos = (356,662);
},
{
name = top.alt;
pos = (272,662);
}
);
layerId = "3FD7D777-D61F-402B-A269-3A472D550581";
shapes = (
{
closed = 1;
nodes = (
(535,0,l),
(535,143,l),
(242,143,l),
(242,662,l),
(58,662,l),
(58,0,l)
);
}
);
vertWidth = 0;
width = 538;
},
{
anchors = (
{
name = "L-slash";
pos = (146,370);
},
{
name = bottom;
pos = (319,0);
},
{
name = bottom.alt;
pos = (472,0);
},
{
name = middle_dot_I;
pos = (357,375);
},
{
name = top;
pos = (342,655);
},
{
name = top.alt;
pos = (286,655);
}
);
layerId = m004;
shapes = (
{
closed = 1;
nodes = (
(500,0,l),
(500,69,l),
(191,69,l),
(191,655,l),
(107,655,l),
(107,0,l)
);
}
);
vertWidth = 0;
width = 523;
}
);
metricLeft = I;
unicode = 76;
},
{
glyphname = M;
lastChange = "2026-03-16 19:16:11 +0000";
layers = (
{
anchors = (
{
name = bottom;
pos = (431,0);
},
{
name = top;
pos = (431,650);
}
);
layerId = "AE3FEF6D-3AA7-4252-B349-D2606A6A3B4C";
shapes = (
{
closed = 1;
nodes = (
(145,0,l),
(145,632,l),
(149,632,l),
(403,0,l),
(457,0,l),
(745,636,l),
(750,636,l),
(750,0,l),
(777,0,l),
(777,650,l),
(719,650,l),
(432,19,l),
(429,19,l),
(174,650,l),
(118,650,l),
(118,0,l)
);
}
);
vertWidth = 0;
width = 895;
},
{
anchors = (
{
name = bottom;
pos = (466,0);
},
{
name = top;
pos = (466,662);
}
);
layerId = "3FD7D777-D61F-402B-A269-3A472D550581";
shapes = (
{
closed = 1;
nodes = (
(242,0,l),
(242,383,l),
(246,383,l),
(381,0,l),
(553,0,l),
(680,383,l),
(684,383,l),
(684,0,l),
(868,0,l),
(868,662,l),
(640,662,l),
(471,171,l),
(463,171,l),
(286,662,l),
(58,662,l),
(58,0,l)
);
}
);
vertWidth = 0;
width = 925;
},
{
anchors = (
{
name = bottom;
pos = (453,0);
},
{
name = top;
pos = (453,655);
}
);
layerId = m004;
shapes = (
{
closed = 1;
nodes = (
(191,0,l),
(191,539,l),
(195,539,l),
(404,0,l),
(503,0,l),
(730,542,l),
(735,542,l),
(735,0,l),
(819,0,l),
(819,655,l),
(699,655,l),
(456,76,l),
(451,76,l),
(226,655,l),
(107,655,l),
(107,0,l)
);
}
);
vertWidth = 0;
width = 926;
}
);
metricLeft = I;
metricRight = I;
unicode = 77;
},
{
glyphname = N;
lastChange = "2026-03-16 19:16:11 +0000";
layers = (
{
anchors = (
{
name = bottom;
pos = (331,0);
},
{
name = top;
pos = (365,650);
}
);
layerId = "AE3FEF6D-3AA7-4252-B349-D2606A6A3B4C";
shapes = (
{
closed = 1;
nodes = (
(145,0,l),
(145,626,l),
(150,626,l),
(524,0,l),
(573,0,l),
(573,650,l),
(546,650,l),
(546,24,l),
(541,24,l),
(168,650,l),
(118,650,l),
(118,0,l)
);
}
);
vertWidth = 0;
width = 691;
},
{
anchors = (
{
name = bottom;
pos = (351,0);
},
{
name = top;
pos = (368,662);
}
);
layerId = "3FD7D777-D61F-402B-A269-3A472D550581";
shapes = (
{
closed = 1;
nodes = (
(242,0,l),
(242,365,l),
(246,365,l),
(487,0,l),
(656,0,l),
(656,662,l),
(472,662,l),
(472,296,l),
(468,296,l),
(227,662,l),
(58,662,l),
(58,0,l)
);
}
);
vertWidth = 0;
width = 713;
},
{
anchors = (
{
name = bottom;
pos = (349,0);
},
{
name = top;
pos = (376,655);
}
);
layerId = m004;
shapes = (
{
closed = 1;
nodes = (
(191,0,l),
(191,529,l),
(196,529,l),
(520,0,l),
(613,0,l),
(613,655,l),
(529,655,l),
(529,126,l),
(524,126,l),
(200,655,l),
(107,655,l),
(107,0,l)
);
}
);
vertWidth = 0;
width = 720;
}
);
metricLeft = I;
metricRight = I;
unicode = 78;
},
{
color = 8;
glyphname = Nhookleft;
lastChange = "2026-03-16 19:16:11 +0000";
layers = (
{
layerId = "AE3FEF6D-3AA7-4252-B349-D2606A6A3B4C";
shapes = (
{
closed = 1;
nodes = (
(110,626,l),
(115,626,l),
(489,0,l),
(538,0,l),
(538,650,l),
(511,650,l),
(511,24,l),
(506,24,l),
(133,650,l),
(83,650,l),
(83,-122,ls),
(83,-184,o),
(46,-211,o),
(-14,-211,cs),
(-44,-211,o),
(-68,-203,o),
(-79,-192,c),
(-94,-213,l),
(-78,-227,o),
(-49,-238,o),
(-14,-238,cs),
(58,-238,o),
(110,-203,o),
(110,-123,cs)
);
}
);
vertWidth = 0;
width = 656;
},
{
layerId = "3FD7D777-D61F-402B-A269-3A472D550581";
shapes = (
{
closed = 1;
nodes = (
(252,365,l),
(257,365,l),
(497,0,l),
(667,0,l),
(667,662,l),
(483,662,l),
(483,296,l),
(478,296,l),
(237,662,l),
(68,662,l),
(68,-46,ls),
(68,-70,o),
(49,-82,o),
(18,-82,cs),
(2,-82,o),
(-17,-79,o),
(-36,-73,c),
(-62,-183,l),
(-20,-199,o),
(28,-207,o),
(69,-207,cs),
(169,-207,o),
(252,-168,o),
(252,-62,cs)
);
}
);
vertWidth = 0;
width = 724;
},
{
layerId = m004;
shapes = (
{
closed = 1;
nodes = (
(170,529,l),
(175,529,l),
(498,0,l),
(591,0,l),
(591,655,l),
(507,655,l),
(507,126,l),
(502,126,l),
(178,655,l),
(86,655,l),
(86,-93,ls),
(86,-141,o),
(55,-162,o),
(7,-162,cs),
(-18,-162,o),
(-40,-157,o),
(-55,-147,c),
(-73,-202,l),
(-47,-217,o),
(-12,-226,o),
(25,-226,cs),
(108,-226,o),
(170,-189,o),
(170,-100,cs)
);
}
);
vertWidth = 0;
width = 698;
}
);
metricLeft = esh;
metricRight = N;
unicode = 413;
},
{
color = 3;
glyphname = Eng;
lastChange = "2026-03-16 19:16:11 +0000";
layers = (
{
layerId = "AE3FEF6D-3AA7-4252-B349-D2606A6A3B4C";
shapes = (
{
closed = 1;
nodes = (
(145,0,l),
(145,626,l),
(150,626,l),
(546,0,l),
(546,-122,ls),
(546,-184,o),
(510,-211,o),
(450,-211,cs),
(429,-211,o),
(408,-208,o),
(396,-206,c),
(390,-230,l),
(409,-235,o),
(429,-238,o),
(450,-238,cs),
(521,-238,o),
(573,-204,o),
(573,-124,cs),
(573,650,l),
(546,650,l),
(546,60,l),
(540,60,l),
(168,650,l),
(118,650,l),
(118,0,l)
);
}
);
width = 691;
},
{
layerId = "3FD7D777-D61F-402B-A269-3A472D550581";
shapes = (
{
closed = 1;
nodes = (
(242,0,l),
(242,365,l),
(246,365,l),
(472,22,l),
(472,-30,ls),
(472,-56,o),
(453,-68,o),
(424,-68,cs),
(408,-68,o),
(386,-65,o),
(369,-61,c),
(345,-169,l),
(386,-182,o),
(434,-192,o),
(482,-192,cs),
(578,-192,o),
(656,-153,o),
(656,-51,cs),
(656,662,l),
(472,662,l),
(472,296,l),
(468,296,l),
(227,662,l),
(58,662,l),
(58,0,l)
);
}
);
vertWidth = 0;
width = 713;
},
{
layerId = m004;
shapes = (
{
closed = 1;
nodes = (
(191,0,l),
(191,529,l),
(196,529,l),
(529,8,l),
(529,-87,ls),
(529,-136,o),
(499,-157,o),
(451,-157,cs),
(431,-157,o),
(410,-154,o),
(396,-151,c),
(383,-207,l),
(410,-215,o),
(441,-221,o),
(472,-221,cs),
(552,-221,o),
(613,-184,o),
(613,-96,cs),
(613,655,l),
(529,655,l),
(529,149,l),
(523,149,l),
(200,655,l),
(107,655,l),
(107,0,l)
);
}
);
width = 720;
}
);
metricLeft = I;
metricRight = N;
unicode = 330;
},
{
color = 3;
glyphname = O;
kernLeft = O;
kernRight = O;
lastChange = "2026-03-16 19:13:51 +0000";
layers = (
{
anchors = (
{
name = "O-slash";
pos = (359,314);
},
{
name = bottom;
pos = (359,-5);
},
{
name = bottom.alt;
pos = (359,-5);
},
{
name = top;
pos = (359,655);
},
{
name = top.alt;
pos = (470,607);
}
);
layerId = "AE3FEF6D-3AA7-4252-B349-D2606A6A3B4C";
shapes = (
{
closed = 1;
nodes = (
(544,-5,o),
(639,131,o),
(639,325,cs),
(639,518,o),
(544,655,o),
(359,655,cs),
(172,655,o),
(77,518,o),
(77,325,cs),
(77,131,o),
(172,-5,o),
(359,-5,cs)
);
},
{
closed = 1;
nodes = (
(181,21,o),
(107,157,o),
(107,325,cs),
(107,492,o),
(181,629,o),
(359,629,cs),
(535,629,o),
(609,493,o),
(609,325,cs),
(609,157,o),
(535,21,o),
(359,21,cs)
);
}
);
vertWidth = 0;
width = 716;
},
{
anchors = (
{
name = "O-slash";
pos = (342,325);
},
{
name = bottom;
pos = (342,-5);
},
{
name = bottom.alt;
pos = (343,-5);
},
{
name = top;
pos = (342,667);
},
{
name = top.alt;
pos = (459,565);
}
);
layerId = "3FD7D777-D61F-402B-A269-3A472D550581";
shapes = (
{
closed = 1;
nodes = (
(577,-5,o),
(673,155,o),
(673,331,cs),
(673,507,o),
(577,667,o),
(342,667,cs),
(107,667,o),
(12,507,o),
(12,331,cs),
(12,155,o),
(107,-5,o),
(342,-5,cs)
);
},
{
closed = 1;
nodes = (
(265,139,o),
(200,194,o),
(200,331,cs),
(200,468,o),
(266,523,o),
(342,523,cs),
(418,523,o),
(485,468,o),
(485,331,cs),
(485,194,o),
(419,139,o),
(342,139,cs)
);
}
);
vertWidth = 0;
width = 685;
},
{
anchors = (
{
name = "O-slash";
pos = (359,319);
},
{
name = bottom;
pos = (359,-5);
},
{
name = bottom.alt;
pos = (359,-5);
},
{
name = top;
pos = (359,660);
},
{
name = top.alt;
pos = (472,591);
}
);
layerId = m004;
shapes = (
{
closed = 1;
nodes = (
(563,-5,o),
(658,140,o),
(658,327,cs),
(658,514,o),
(563,660,o),
(359,660,cs),
(154,660,o),
(59,514,o),
(59,327,cs),
(59,140,o),
(154,-5,o),
(359,-5,cs)
);
},
{
closed = 1;
nodes = (
(219,66,o),
(149,171,o),
(149,327,cs),
(149,483,o),
(219,589,o),
(359,589,cs),
(498,589,o),
(568,484,o),
(568,327,cs),
(568,171,o),
(498,66,o),
(359,66,cs)
);
}
);
vertWidth = 0;
width = 717;
}
);
unicode = 79;
},
{
glyphname = OO;
kernLeft = O;
kernRight = O;
lastChange = "2026-03-15 16:02:57 +0000";
layers = (
{
background = {
shapes = (
{
attr = {
identifier = 943CC979;
};
ref = uniE0B1;
userData = {
UFO.identifier = FDC22C74;
UFO.lib = {
};
};
},
{
angle = 180;
attr = {
identifier = 35FCEC4B;
};
pos = (1249,650);
ref = uniE0B1;
userData = {
UFO.identifier = C1BA8948;
UFO.lib = {
};
};
}
);
};
layerId = "AE3FEF6D-3AA7-4252-B349-D2606A6A3B4C";
shapes = (
{
closed = 1;
nodes = (
(502,-5,o),
(592,77,o),
(625,203,c),
(658,77,o),
(747,-5,o),
(890,-5,cs),
(1077,-5,o),
(1172,132,o),
(1172,325,cs),
(1172,519,o),
(1077,655,o),
(890,655,cs),
(747,655,o),
(657,573,o),
(624,447,c),
(591,573,o),
(502,655,o),
(359,655,cs),
(172,655,o),
(77,518,o),
(77,325,cs),
(77,131,o),
(172,-5,o),
(359,-5,cs)
);
},
{
closed = 1;
nodes = (
(181,20,o),
(106,157,o),
(106,325,cs),
(106,492,o),
(181,630,o),
(359,630,cs),
(535,630,o),
(610,493,o),
(610,325,cs),
(610,157,o),
(535,20,o),
(359,20,cs)
);
},
{
closed = 1;
nodes = (
(1068,630,o),
(1143,493,o),
(1143,325,cs),
(1143,158,o),
(1068,20,o),
(890,20,cs),
(714,20,o),
(639,157,o),
(639,325,cs),
(639,493,o),
(714,630,o),
(890,630,cs)
);
}
);
width = 1249;
},
{
background = {
shapes = (
{
attr = {
identifier = 943CC979;
};
ref = uniE0B1;
userData = {
UFO.identifier = FDC22C74;
UFO.lib = {
};
};
},
{
angle = 180;
attr = {
identifier = 35FCEC4B;
};
pos = (1097,662);
ref = uniE0B1;
userData = {
UFO.identifier = C1BA8948;
UFO.lib = {
};
};
}
);
};
layerId = "3FD7D777-D61F-402B-A269-3A472D550581";
shapes = (
{
closed = 1;
nodes = (
(422,-5,o),
(500,40,o),
(549,108,c),
(597,41,o),
(675,-5,o),
(784,-5,cs),
(990,-5,o),
(1085,155,o),
(1085,331,cs),
(1085,508,o),
(989,667,o),
(784,667,cs),
(675,667,o),
(597,622,o),
(548,554,c),
(500,621,o),
(422,667,o),
(313,667,cs),
(107,667,o),
(12,507,o),
(12,331,cs),
(12,154,o),
(108,-5,o),
(313,-5,cs)
);
},
{
closed = 1;
nodes = (
(266,140,o),
(203,194,o),
(203,331,cs),
(203,468,o),
(267,522,o),
(343,522,cs),
(419,522,o),
(484,468,o),
(484,331,cs),
(484,194,o),
(420,140,o),
(343,140,cs)
);
},
{
closed = 1;
nodes = (
(831,522,o),
(894,468,o),
(894,331,cs),
(894,194,o),
(830,140,o),
(754,140,cs),
(678,140,o),
(613,194,o),
(613,331,cs),
(613,468,o),
(677,522,o),
(754,522,cs)
);
}
);
width = 1097;
},
{
background = {
shapes = (
{
attr = {
identifier = 943CC979;
};
ref = uniE0B1;
userData = {
UFO.identifier = FDC22C74;
UFO.lib = {
};
};
},
{
angle = 180;
attr = {
identifier = 35FCEC4B;
};
pos = (1204,654);
ref = uniE0B1;
userData = {
UFO.identifier = C1BA8948;
UFO.lib = {
};
};
}
);
};
layerId = m004;
shapes = (
{
closed = 1;
nodes = (
(475,-5,o),
(559,58,o),
(602,155,c),
(645,58,o),
(729,-5,o),
(856,-5,cs),
(1050,-5,o),
(1145,140,o),
(1145,327,cs),
(1145,514,o),
(1050,659,o),
(856,659,cs),
(729,659,o),
(645,596,o),
(602,499,c),
(559,596,o),
(475,659,o),
(348,659,cs),
(154,659,o),
(59,514,o),
(59,327,cs),
(59,140,o),
(154,-5,o),
(348,-5,cs)
);
},
{
closed = 1;
nodes = (
(219,65,o),
(149,171,o),
(149,327,cs),
(149,483,o),
(219,589,o),
(359,589,cs),
(498,589,o),
(569,484,o),
(569,327,cs),
(569,171,o),
(498,65,o),
(359,65,cs)
);
},
{
closed = 1;
nodes = (
(985,589,o),
(1055,483,o),
(1055,327,cs),
(1055,171,o),
(985,65,o),
(845,65,cs),
(706,65,o),
(635,170,o),
(635,327,cs),
(635,483,o),
(706,589,o),
(845,589,cs)
);
}
);
width = 1204;
}
);
metricLeft = O;
metricRight = O;
unicode = 42830;
},
{
color = 8;
glyphname = Obarred;
lastChange = "2026-03-16 19:13:59 +0000";
layers = (
{
anchors = (
{
name = "O-slash";
pos = (359,314);
},
{
name = bottom;
pos = (359,-5);
},
{
name = bottom.alt;
pos = (359,-5);
},
{
name = top;
pos = (359,655);
},
{
name = top.alt;
pos = (470,607);
}
);
background = {
shapes = (
{
ref = O;
},
{
closed = 1;
nodes = (
(95,311,l),
(626,311,l),
(626,336,l),
(95,336,l)
);
}
);
};
layerId = "AE3FEF6D-3AA7-4252-B349-D2606A6A3B4C";
shapes = (
{
closed = 1;
nodes = (
(544,-5,o),
(639,131,o),
(639,325,cs),
(639,518,o),
(544,655,o),
(359,655,cs),
(172,655,o),
(77,518,o),
(77,325,cs),
(77,131,o),
(172,-5,o),
(359,-5,cs)
);
},
{
closed = 1;
nodes = (
(186,21,o),
(111,150,o),
(107,311,c),
(609,311,l),
(605,150,o),
(530,21,o),
(359,21,cs)
);
},
{
closed = 1;
nodes = (
(110,497,o),
(185,629,o),
(359,629,cs),
(531,629,o),
(606,498,o),
(609,336,c),
(107,336,l)
);
}
);
width = 716;
},
{
anchors = (
{
name = "O-slash";
pos = (342,325);
},
{
name = bottom;
pos = (342,-5);
},
{
name = bottom.alt;
pos = (343,-5);
},
{
name = top;
pos = (342,667);
},
{
name = top.alt;
pos = (459,565);
}
);
background = {
shapes = (
{
ref = O;
},
{
closed = 1;
nodes = (
(116,275,l),
(566,275,l),
(566,392,l),
(116,392,l)
);
}
);
};
layerId = "3FD7D777-D61F-402B-A269-3A472D550581";
shapes = (
{
closed = 1;
nodes = (
(577,-5,o),
(673,155,o),
(673,331,cs),
(673,507,o),
(577,667,o),
(342,667,cs),
(107,667,o),
(12,507,o),
(12,331,cs),
(12,155,o),
(107,-5,o),
(342,-5,cs)
);
},
{
closed = 1;
nodes = (
(277,139,o),
(219,179,o),
(204,275,c),
(481,275,l),
(466,180,o),
(407,139,o),
(342,139,cs)
);
},
{
closed = 1;
nodes = (
(221,484,o),
(278,523,o),
(342,523,cs),
(406,523,o),
(463,485,o),
(480,392,c),
(205,392,l)
);
}
);
width = 685;
},
{
anchors = (
{
name = "O-slash";
pos = (359,319);
},
{
name = bottom;
pos = (359,-5);
},
{
name = bottom.alt;
pos = (359,-5);
},
{
name = top;
pos = (359,660);
},
{
name = top.alt;
pos = (472,591);
}
);
background = {
shapes = (
{
ref = O;
},
{
closed = 1;
nodes = (
(110,298,l),
(610,298,l),
(610,357,l),
(110,357,l)
);
}
);
};
layerId = m004;
shapes = (
{
closed = 1;
nodes = (
(563,-5,o),
(658,140,o),
(658,327,cs),
(658,514,o),
(563,660,o),
(359,660,cs),
(154,660,o),
(59,514,o),
(59,327,cs),
(59,140,o),
(154,-5,o),
(359,-5,cs)
);
},
{
closed = 1;
nodes = (
(228,66,o),
(158,159,o),
(150,298,c),
(567,298,l),
(559,159,o),
(489,66,o),
(359,66,cs)
);
},
{
closed = 1;
nodes = (
(159,497,o),
(228,589,o),
(359,589,cs),
(489,589,o),
(558,498,o),
(567,357,c),
(150,357,l)
);
}
);
width = 717;
}
);
metricLeft = O;
metricRight = O;
unicode = 415;
},
{
glyphname = OE;
lastChange = "2026-03-16 19:16:11 +0000";
layers = (
{
layerId = "AE3FEF6D-3AA7-4252-B349-D2606A6A3B4C";
shapes = (
{
closed = 1;
nodes = (
(723,0,l),
(723,25,l),
(441,25,l),
(441,311,l),
(696,311,l),
(696,338,l),
(441,338,l),
(441,624,l),
(723,624,l),
(723,650,l),
(350,650,ls),
(173,650,o),
(77,518,o),
(77,325,cs),
(77,131,o),
(173,0,o),
(350,0,cs)
);
},
{
closed = 1;
nodes = (
(183,25,o),
(107,157,o),
(107,325,cs),
(107,492,o),
(183,624,o),
(350,624,cs),
(414,624,l),
(414,25,l),
(350,25,ls)
);
}
);
vertWidth = 0;
width = 762;
},
{
layerId = "3FD7D777-D61F-402B-A269-3A472D550581";
shapes = (
{
closed = 1;
nodes = (
(854,0,l),
(854,143,l),
(602,143,l),
(602,266,l),
(828,266,l),
(828,397,l),
(602,397,l),
(602,518,l),
(854,518,l),
(854,662,l),
(363,662,ls),
(131,662,o),
(12,509,o),
(12,331,cs),
(12,154,o),
(131,0,o),
(363,0,cs)
);
},
{
closed = 1;
nodes = (
(270,143,o),
(200,197,o),
(200,331,cs),
(200,466,o),
(270,518,o),
(363,518,cs),
(418,518,l),
(418,143,l),
(363,143,ls)
);
}
);
vertWidth = 0;
width = 872;
},
{
layerId = m004;
shapes = (
{
closed = 1;
nodes = (
(777,0,l),
(777,69,l),
(506,69,l),
(506,295,l),
(750,295,l),
(750,361,l),
(506,361,l),
(506,584,l),
(777,584,l),
(777,655,l),
(361,655,ls),
(164,655,o),
(59,515,o),
(59,327,cs),
(59,140,o),
(164,0,o),
(361,0,cs)
);
},
{
closed = 1;
nodes = (
(222,69,o),
(149,172,o),
(149,327,cs),
(149,482,o),
(222,584,o),
(361,584,cs),
(422,584,l),
(422,69,l),
(361,69,ls)
);
}
);
vertWidth = 0;
width = 812;
}
);
metricLeft = O;
metricRight = E;
unicode = 338;
},
{
color = 3;
glyphname = P;
kernRight = P;
lastChange = "2026-03-16 20:23:45 +0000";
layers = (
{
anchors = (
{
name = bottom;
pos = (306,0);
},
{
name = top;
pos = (306,650);
}
);
layerId = "AE3FEF6D-3AA7-4252-B349-D2606A6A3B4C";
shapes = (
{
closed = 1;
nodes = (
(145,0,l),
(145,275,l),
(338,275,ls),
(447,275,o),
(511,358,o),
(511,463,cs),
(511,568,o),
(447,650,o),
(338,650,cs),
(118,650,l),
(118,0,l)
);
},
{
closed = 1;
nodes = (
(145,624,l),
(338,624,ls),
(434,624,o),
(481,551,o),
(481,463,cs),
(481,376,o),
(434,300,o),
(338,300,cs),
(145,300,l)
);
}
);
vertWidth = 0;
width = 546;
},
{
anchors = (
{
name = bottom;
pos = (334,0);
},
{
name = top;
pos = (334,662);
}
);
layerId = "3FD7D777-D61F-402B-A269-3A472D550581";
shapes = (
{
closed = 1;
nodes = (
(242,0,l),
(242,228,l),
(363,228,ls),
(538,228,o),
(628,301,o),
(628,445,cs),
(628,588,o),
(538,662,o),
(363,662,cs),
(58,662,l),
(58,0,l)
);
},
{
closed = 1;
nodes = (
(242,518,l),
(359,518,ls),
(414,518,o),
(440,491,o),
(440,446,cs),
(440,398,o),
(413,372,o),
(359,372,cs),
(242,372,l)
);
}
);
vertWidth = 0;
width = 652;
},
{
anchors = (
{
name = bottom;
pos = (325,0);
},
{
name = top;
pos = (325,655);
}
);
layerId = m004;
shapes = (
{
closed = 1;
nodes = (
(191,0,l),
(191,258,l),
(357,258,ls),
(491,258,o),
(565,337,o),
(565,456,cs),
(565,576,o),
(491,655,o),
(357,655,cs),
(107,655,l),
(107,0,l)
);
},
{
closed = 1;
nodes = (
(191,584,l),
(356,584,ls),
(437,584,o),
(475,529,o),
(475,457,cs),
(475,384,o),
(436,327,o),
(356,327,cs),
(191,327,l)
);
}
);
vertWidth = 0;
width = 600;
}
);
metricLeft = I;
unicode = 80;
},
{
color = 3;
glyphname = Thorn;
lastChange = "2026-03-16 19:16:11 +0000";
layers = (
{
anchors = (
{
name = bottom;
pos = (303,0);
},
{
name = top;
pos = (303,650);
}
);
layerId = "AE3FEF6D-3AA7-4252-B349-D2606A6A3B4C";
shapes = (
{
closed = 1;
nodes = (
(146,0,l),
(146,147,l),
(339,147,ls),
(448,147,o),
(513,220,o),
(513,325,cs),
(513,431,o),
(448,502,o),
(339,502,cs),
(146,502,l),
(146,650,l),
(118,650,l),
(118,0,l)
);
},
{
closed = 1;
nodes = (
(146,477,l),
(339,477,ls),
(435,477,o),
(483,413,o),
(483,325,cs),
(483,238,o),
(435,173,o),
(339,173,cs),
(146,173,l)
);
}
);
vertWidth = 0;
width = 562;
},
{
anchors = (
{
name = bottom;
pos = (343,0);
},
{
name = top;
pos = (343,662);
}
);
layerId = "3FD7D777-D61F-402B-A269-3A472D550581";
shapes = (
{
closed = 1;
nodes = (
(242,0,l),
(242,113,l),
(362,113,ls),
(536,113,o),
(629,187,o),
(629,331,cs),
(629,474,o),
(536,549,o),
(362,549,cs),
(242,549,l),
(242,662,l),
(58,662,l),
(58,0,l)
);
},
{
closed = 1;
nodes = (
(242,404,l),
(362,404,ls),
(417,404,o),
(441,377,o),
(441,331,cs),
(441,283,o),
(417,258,o),
(362,258,cs),
(242,258,l)
);
}
);
vertWidth = 0;
width = 653;
},
{
anchors = (
{
name = bottom;
pos = (327,0);
},
{
name = top;
pos = (327,655);
}
);
layerId = m004;
shapes = (
{
closed = 1;
nodes = (
(191,0,l),
(191,134,l),
(357,134,ls),
(490,134,o),
(566,208,o),
(566,327,cs),
(566,448,o),
(490,520,o),
(357,520,cs),
(191,520,l),
(191,655,l),
(107,655,l),
(107,0,l)
);
},
{
closed = 1;
nodes = (
(191,450,l),
(357,450,ls),
(438,450,o),
(476,400,o),
(476,327,cs),
(476,255,o),
(438,205,o),
(357,205,cs),
(191,205,l)
);
}
);
vertWidth = 0;
width = 610;
}
);
metricLeft = I;
unicode = 222;
},
{
glyphname = Q;
kernRight = O;
lastChange = "2026-03-16 19:14:06 +0000";
layers = (
{
anchors = (
{
name = "O-slash";
pos = (359,314);
},
{
name = bottom;
pos = (359,-105);
},
{
name = bottom.alt;
pos = (359,-5);
},
{
name = top;
pos = (359,655);
},
{
name = top.alt;
pos = (470,607);
}
);
background = {
shapes = (
{
ref = O;
},
{
pos = (60,0);
ref = uniE005;
}
);
};
layerId = "AE3FEF6D-3AA7-4252-B349-D2606A6A3B4C";
shapes = (
{
closed = 1;
nodes = (
(408,-5,o),
(450,4,o),
(487,22,c),
(558,-105,l),
(577,-95,l),
(507,33,l),
(594,86,o),
(639,192,o),
(639,325,cs),
(639,518,o),
(544,655,o),
(359,655,cs),
(172,655,o),
(77,518,o),
(77,325,cs),
(77,131,o),
(172,-5,o),
(359,-5,cs)
);
},
{
closed = 1;
nodes = (
(181,21,o),
(107,157,o),
(107,325,cs),
(107,492,o),
(181,629,o),
(359,629,cs),
(535,629,o),
(609,493,o),
(609,325,cs),
(609,209,o),
(574,108,o),
(494,57,c),
(419,193,l),
(399,182,l),
(474,46,l),
(442,30,o),
(404,21,o),
(359,21,cs)
);
}
);
width = 716;
},
{
anchors = (
{
name = "O-slash";
pos = (342,325);
},
{
name = bottom;
pos = (343,-105);
},
{
name = bottom.alt;
pos = (343,-5);
},
{
name = top;
pos = (342,667);
},
{
name = top.alt;
pos = (459,565);
}
);
background = {
shapes = (
{
ref = O;
},
{
pos = (10,0);
ref = uniE005;
}
);
};
layerId = "3FD7D777-D61F-402B-A269-3A472D550581";
shapes = (
{
closed = 1;
nodes = (
(375,-5,o),
(404,-2,o),
(432,4,c),
(478,-79,l),
(566,-28,l),
(528,40,l),
(629,100,o),
(673,212,o),
(673,331,cs),
(673,507,o),
(577,667,o),
(342,667,cs),
(107,667,o),
(12,507,o),
(12,331,cs),
(12,155,o),
(107,-5,o),
(342,-5,cs)
);
},
{
closed = 1;
nodes = (
(265,139,o),
(200,194,o),
(200,331,cs),
(200,468,o),
(266,523,o),
(342,523,cs),
(418,523,o),
(485,468,o),
(485,331,cs),
(485,266,o),
(469,220,o),
(446,189,c),
(405,262,l),
(317,211,l),
(357,140,l),
(351,139,o),
(347,139,o),
(342,139,cs)
);
}
);
width = 685;
},
{
anchors = (
{
name = "O-slash";
pos = (342,325);
},
{
name = bottom;
pos = (343,-105);
},
{
name = bottom.alt;
pos = (343,-5);
},
{
name = top;
pos = (342,667);
},
{
name = top.alt;
pos = (459,565);
}
);
associatedMasterId = "3FD7D777-D61F-402B-A269-3A472D550581";
attr = {
axisRules = (
{
max = 900;
min = 600;
}
);
};
background = {
shapes = (
{
ref = O;
},
{
ref = uniE010;
}
);
};
layerId = "98BF5961-BCEE-49D6-B927-97705158450D";
name = "Apr 8, 25 at 23:48";
shapes = (
{
closed = 1;
nodes = (
(370,-5,o),
(396,-3,o),
(421,2,c),
(487,-125,l),
(614,-49,l),
(549,54,l),
(635,116,o),
(673,221,o),
(673,331,cs),
(673,507,o),
(577,667,o),
(342,667,cs),
(107,667,o),
(12,507,o),
(12,331,cs),
(12,155,o),
(107,-5,o),
(342,-5,cs)
);
},
{
closed = 1;
nodes = (
(265,139,o),
(202,194,o),
(202,331,cs),
(202,468,o),
(266,523,o),
(342,523,cs),
(418,523,o),
(483,468,o),
(483,331,cs),
(483,194,o),
(419,139,o),
(342,139,cs)
);
}
);
width = 685;
},
{
anchors = (
{
name = "O-slash";
pos = (359,314);
},
{
name = bottom;
pos = (359,-105);
},
{
name = bottom.alt;
pos = (359,-5);
},
{
name = top;
pos = (359,655);
},
{
name = top.alt;
pos = (470,607);
}
);
associatedMasterId = "AE3FEF6D-3AA7-4252-B349-D2606A6A3B4C";
attr = {
axisRules = (
{
max = 900;
min = 600;
}
);
};
background = {
shapes = (
{
ref = O;
},
{
pos = (40,0);
ref = uniE010;
}
);
};
layerId = "E8E18039-7BC6-49A5-A791-859C221C2E80";
name = "Apr 9, 25 at 00:07";
shapes = (
{
closed = 1;
nodes = (
(400,-5,o),
(437,2,o),
(468,14,c),
(536,-119,l),
(562,-105,l),
(488,23,l),
(587,72,o),
(639,183,o),
(639,325,cs),
(639,518,o),
(544,655,o),
(359,655,cs),
(172,655,o),
(77,518,o),
(77,325,cs),
(77,131,o),
(172,-5,o),
(359,-5,cs)
);
},
{
closed = 1;
nodes = (
(181,21,o),
(106,157,o),
(106,325,cs),
(106,492,o),
(181,629,o),
(359,629,cs),
(535,629,o),
(610,493,o),
(610,325,cs),
(610,157,o),
(535,21,o),
(359,21,cs)
);
}
);
width = 716;
},
{
anchors = (
{
name = "O-slash";
pos = (359,319);
},
{
name = bottom;
pos = (359,-105);
},
{
name = bottom.alt;
pos = (359,-5);
},
{
name = top;
pos = (359,660);
},
{
name = top.alt;
pos = (472,591);
}
);
background = {
shapes = (
{
ref = O;
},
{
pos = (41,0);
ref = uniE005;
}
);
};
layerId = m004;
shapes = (
{
closed = 1;
nodes = (
(393,-5,o),
(424,-1,o),
(453,7,c),
(513,-102,l),
(579,-63,l),
(522,36,l),
(615,92,o),
(658,200,o),
(658,327,cs),
(658,514,o),
(563,660,o),
(359,660,cs),
(154,660,o),
(59,514,o),
(59,327,cs),
(59,140,o),
(154,-5,o),
(359,-5,cs)
);
},
{
closed = 1;
nodes = (
(219,66,o),
(149,171,o),
(149,327,cs),
(149,483,o),
(219,589,o),
(359,589,cs),
(498,589,o),
(568,484,o),
(568,327,cs),
(568,227,o),
(540,148,o),
(482,104,c),
(412,225,l),
(352,188,l),
(416,73,l),
(398,68,o),
(379,66,o),
(359,66,cs)
);
}
);
width = 717;
},
{
anchors = (
{
name = "O-slash";
pos = (359,319);
},
{
name = bottom;
pos = (359,-105);
},
{
name = bottom.alt;
pos = (359,-5);
},
{
name = top;
pos = (359,660);
},
{
name = top.alt;
pos = (472,591);
}
);
associatedMasterId = m004;
attr = {
axisRules = (
{
max = 900;
min = 600;
}
);
};
background = {
shapes = (
{
ref = O;
},
{
pos = (40,0);
ref = uniE010;
}
);
};
layerId = "F6B8A440-4FF0-49A3-A8E9-E66E3976FE5A";
name = "Apr 9, 25 at 00:07";
shapes = (
{
closed = 1;
nodes = (
(399,-5,o),
(435,1,o),
(466,11,c),
(533,-121,l),
(597,-84,l),
(524,38,l),
(615,94,o),
(658,201,o),
(658,327,cs),
(658,514,o),
(563,660,o),
(359,660,cs),
(154,660,o),
(59,514,o),
(59,327,cs),
(59,140,o),
(154,-5,o),
(359,-5,cs)
);
},
{
closed = 1;
nodes = (
(219,66,o),
(148,171,o),
(148,327,cs),
(148,483,o),
(219,589,o),
(359,589,cs),
(498,589,o),
(569,484,o),
(569,327,cs),
(569,171,o),
(498,66,o),
(359,66,cs)
);
}
);
width = 717;
}
);
metricLeft = O;
metricRight = O;
unicode = 81;
},
{
color = 3;
glyphname = R;
kernRight = R;
lastChange = "2026-03-16 19:16:11 +0000";
layers = (
{
anchors = (
{
name = bottom;
pos = (306,0);
},
{
name = top;
pos = (306,650);
}
);
background = {
shapes = (
{
closed = 1;
nodes = (
(530,0,l),
(356,293,l),
(327,293,l),
(496,0,l)
);
},
{
pos = (-1,0);
ref = P;
}
);
};
layerId = "AE3FEF6D-3AA7-4252-B349-D2606A6A3B4C";
shapes = (
{
closed = 1;
nodes = (
(530,0,l),
(366,277,l),
(459,290,o),
(511,367,o),
(511,463,cs),
(511,568,o),
(447,650,o),
(338,650,cs),
(118,650,l),
(118,0,l),
(145,0,l),
(145,275,l),
(337,275,l),
(496,0,l)
);
},
{
closed = 1;
nodes = (
(145,624,l),
(338,624,ls),
(434,624,o),
(481,551,o),
(481,463,cs),
(481,376,o),
(434,300,o),
(338,300,cs),
(145,300,l)
);
}
);
vertWidth = 0;
width = 561;
},
{
anchors = (
{
name = bottom;
pos = (334,0);
},
{
name = top;
pos = (334,662);
}
);
background = {
shapes = (
{
pos = (-2,0);
ref = P;
},
{
closed = 1;
nodes = (
(658,0,l),
(477,317,l),
(299,317,l),
(460,0,l)
);
}
);
};
layerId = "3FD7D777-D61F-402B-A269-3A472D550581";
shapes = (
{
closed = 1;
nodes = (
(658,0,l),
(513,254,l),
(590,287,o),
(628,350,o),
(628,445,cs),
(628,588,o),
(538,662,o),
(363,662,cs),
(58,662,l),
(58,0,l),
(242,0,l),
(242,228,l),
(344,228,l),
(460,0,l)
);
},
{
closed = 1;
nodes = (
(242,518,l),
(359,518,ls),
(414,518,o),
(440,491,o),
(440,446,cs),
(440,398,o),
(413,372,o),
(359,372,cs),
(242,372,l)
);
}
);
vertWidth = 0;
width = 649;
},
{
anchors = (
{
name = bottom;
pos = (325,0);
},
{
name = top;
pos = (325,655);
}
);
background = {
shapes = (
{
closed = 1;
nodes = (
(578,0,l),
(407,302,l),
(323,302,l),
(482,0,l)
);
},
{
pos = (-2,0);
ref = P;
}
);
};
layerId = m004;
shapes = (
{
closed = 1;
nodes = (
(578,0,l),
(427,266,l),
(516,289,o),
(565,360,o),
(565,456,cs),
(565,576,o),
(491,655,o),
(357,655,cs),
(107,655,l),
(107,0,l),
(191,0,l),
(191,258,l),
(346,258,l),
(482,0,l)
);
},
{
closed = 1;
nodes = (
(191,584,l),
(356,584,ls),
(437,584,o),
(475,529,o),
(475,457,cs),
(475,384,o),
(436,327,o),
(356,327,cs),
(191,327,l)
);
}
);
vertWidth = 0;
width = 595;
}
);
metricLeft = I;
unicode = 82;
},
{
color = 3;
glyphname = S;
lastChange = "2026-03-16 19:15:18 +0000";
layers = (
{
anchors = (
{
name = bottom;
pos = (279,-5);
},
{
name = top;
pos = (267,655);
}
);
layerId = "AE3FEF6D-3AA7-4252-B349-D2606A6A3B4C";
shapes = (
{
closed = 1;
nodes = (
(411,-5,o),
(494,58,o),
(494,157,cs),
(494,230,o),
(441,275,o),
(288,329,cs),
(144,379,o),
(96,418,o),
(96,482,cs),
(96,568,o),
(168,630,o),
(267,630,cs),
(372,630,o),
(450,565,o),
(450,477,c),
(479,477,l),
(479,578,o),
(387,655,o),
(267,655,cs),
(151,655,o),
(66,582,o),
(66,482,cs),
(66,402,o),
(120,356,o),
(277,304,cs),
(417,258,o),
(464,221,o),
(464,157,cs),
(464,73,o),
(392,21,o),
(279,21,cs),
(164,21,o),
(81,84,o),
(81,173,c),
(52,173,l),
(52,70,o),
(147,-5,o),
(279,-5,cs)
);
}
);
vertWidth = 0;
width = 544;
},
{
anchors = (
{
name = bottom;
pos = (298,-10);
},
{
name = top;
pos = (304,671);
}
);
layerId = "3FD7D777-D61F-402B-A269-3A472D550581";
shapes = (
{
closed = 1;
nodes = (
(471,-10,o),
(578,67,o),
(578,199,cs),
(578,298,o),
(518,343,o),
(348,396,cs),
(251,426,o),
(230,441,o),
(230,469,cs),
(230,497,o),
(251,517,o),
(296,517,cs),
(348,517,o),
(377,491,o),
(377,458,c),
(561,458,l),
(561,590,o),
(466,671,o),
(304,671,cs),
(147,671,o),
(42,595,o),
(42,464,cs),
(42,364,o),
(103,312,o),
(281,256,cs),
(366,230,o),
(390,215,o),
(390,190,cs),
(390,160,o),
(357,144,o),
(307,144,cs),
(245,144,o),
(208,168,o),
(208,210,c),
(24,210,l),
(24,70,o),
(122,-10,o),
(298,-10,cs)
);
}
);
vertWidth = 0;
width = 602;
},
{
anchors = (
{
name = bottom;
pos = (289,-9);
},
{
name = top;
pos = (287,661);
}
);
layerId = m004;
shapes = (
{
closed = 1;
nodes = (
(435,-6,o),
(530,60,o),
(530,170,cs),
(530,258,o),
(469,302,o),
(319,353,cs),
(191,396,o),
(152,426,o),
(152,480,cs),
(152,543,o),
(205,588,o),
(286,588,cs),
(371,588,o),
(428,539,o),
(428,472,c),
(518,472,l),
(518,585,o),
(422,661,o),
(287,661,cs),
(154,661,o),
(62,588,o),
(62,477,cs),
(62,385,o),
(124,338,o),
(282,286,cs),
(402,247,o),
(440,219,o),
(440,168,cs),
(440,104,o),
(382,68,o),
(296,68,cs),
(197,68,o),
(136,116,o),
(136,185,c),
(46,185,l),
(46,68,o),
(143,-6,o),
(293,-6,cs)
);
}
);
vertWidth = 0;
width = 574;
}
);
unicode = 83;
},
{
color = 3;
glyphname = Germandbls;
lastChange = "2026-03-16 18:07:52 +0000";
layers = (
{
layerId = "AE3FEF6D-3AA7-4252-B349-D2606A6A3B4C";
shapes = (
{
closed = 1;
nodes = (
(350,346,l),
(413,373,o),
(447,429,o),
(447,497,cs),
(447,603,o),
(362,656,o),
(268,656,cs),
(140,655,o),
(77,571,o),
(77,426,cs),
(77,0,l),
(104,0,l),
(104,426,ls),
(104,557,o),
(159,631,o),
(268,631,cs),
(345,631,o),
(417,587,o),
(417,497,cs),
(417,429,o),
(379,352,o),
(251,352,c),
(251,328,l),
(379,328,o),
(477,287,o),
(477,161,cs),
(477,80,o),
(439,21,o),
(353,21,cs),
(282,21,o),
(230,57,o),
(230,134,c),
(200,134,l),
(200,41,o),
(265,-5,o),
(354,-5,cs),
(455,-5,o),
(507,63,o),
(507,160,cs),
(507,271,o),
(437,323,o),
(350,342,c)
);
}
);
vertWidth = 0;
width = 553;
},
{
layerId = "3FD7D777-D61F-402B-A269-3A472D550581";
shapes = (
{
closed = 1;
nodes = (
(459,325,l),
(522,344,o),
(563,392,o),
(563,469,cs),
(563,598,o),
(445,667,o),
(305,667,cs),
(129,667,o),
(42,559,o),
(42,413,cs),
(42,0,l),
(226,0,l),
(226,439,ls),
(226,492,o),
(248,528,o),
(302,528,cs),
(343,528,o),
(375,506,o),
(375,463,cs),
(375,428,o),
(354,394,o),
(291,394,c),
(291,261,l),
(392,261,o),
(447,231,o),
(447,176,cs),
(447,148,o),
(433,130,o),
(405,130,cs),
(379,130,o),
(362,142,o),
(362,171,c),
(260,171,l),
(260,59,o),
(295,-5,o),
(424,-5,cs),
(536,-5,o),
(635,48,o),
(635,161,cs),
(635,261,o),
(558,305,o),
(459,322,c)
);
}
);
vertWidth = 0;
width = 645;
},
{
layerId = m004;
shapes = (
{
closed = 1;
nodes = (
(403,338,l),
(461,362,o),
(497,415,o),
(497,487,cs),
(497,602,o),
(400,661,o),
(289,661,cs),
(142,660,o),
(73,567,o),
(73,422,cs),
(73,0,l),
(157,0,l),
(157,431,ls),
(157,533,o),
(200,593,o),
(288,593,cs),
(351,593,o),
(407,557,o),
(407,484,cs),
(407,429,o),
(377,368,o),
(273,368,c),
(273,303,l),
(391,303,o),
(472,266,o),
(472,167,cs),
(472,106,o),
(444,62,o),
(379,62,cs),
(326,62,o),
(286,89,o),
(286,148,c),
(229,148,l),
(229,48,o),
(283,-5,o),
(387,-5,cs),
(493,-5,o),
(562,58,o),
(562,161,cs),
(562,268,o),
(490,314,o),
(403,334,c)
);
}
);
vertWidth = 0;
width = 594;
}
);
unicode = 7838;
},
{
color = 3;
glyphname = T;
kernLeft = T;
kernRight = T;
lastChange = "2026-03-16 18:08:18 +0000";
layers = (
{
anchors = (
{
name = "T-bar";
pos = (315,423);
},
{
name = bottom;
pos = (316,0);
},
{
name = top;
pos = (316,650);
}
);
layerId = "AE3FEF6D-3AA7-4252-B349-D2606A6A3B4C";
shapes = (
{
closed = 1;
nodes = (
(329,0,l),
(329,624,l),
(576,624,l),
(576,650,l),
(55,650,l),
(55,624,l),
(302,624,l),
(302,0,l)
);
}
);
vertWidth = 0;
width = 631;
},
{
anchors = (
{
name = "T-bar";
pos = (289,357);
},
{
name = bottom;
pos = (289,0);
},
{
name = top;
pos = (289,662);
}
);
layerId = "3FD7D777-D61F-402B-A269-3A472D550581";
shapes = (
{
closed = 1;
nodes = (
(382,0,l),
(382,518,l),
(570,518,l),
(570,662,l),
(10,662,l),
(10,518,l),
(198,518,l),
(198,0,l)
);
}
);
vertWidth = 0;
width = 580;
},
{
anchors = (
{
name = "T-bar";
pos = (302,398);
},
{
name = bottom;
pos = (302,0);
},
{
name = top;
pos = (302,655);
}
);
layerId = m004;
shapes = (
{
closed = 1;
nodes = (
(345,0,l),
(345,584,l),
(570,584,l),
(570,655,l),
(34,655,l),
(34,584,l),
(261,584,l),
(261,0,l)
);
}
);
vertWidth = 0;
width = 603;
}
);
unicode = 84;
},
{
glyphname = U;
lastChange = "2026-03-16 19:16:11 +0000";
layers = (
{
anchors = (
{
name = bottom;
pos = (334,-5);
},
{
name = bottom.alt;
pos = (334,-5);
},
{
name = top;
pos = (335,650);
},
{
name = top.alt;
pos = (551,607);
}
);
layerId = "AE3FEF6D-3AA7-4252-B349-D2606A6A3B4C";
shapes = (
{
closed = 1;
nodes = (
(479,-5,o),
(565,83,o),
(565,224,cs),
(565,650,l),
(538,650,l),
(538,224,ls),
(538,97,o),
(461,19,o),
(334,19,cs),
(207,19,o),
(130,97,o),
(130,224,cs),
(130,650,l),
(103,650,l),
(103,224,ls),
(103,82,o),
(188,-5,o),
(334,-5,cs)
);
}
);
vertWidth = 0;
width = 668;
},
{
anchors = (
{
name = bottom;
pos = (350,-5);
},
{
name = bottom.alt;
pos = (350,-1);
},
{
name = top;
pos = (349,661);
},
{
name = top.alt;
pos = (595,564);
}
);
layerId = "3FD7D777-D61F-402B-A269-3A472D550581";
shapes = (
{
closed = 1;
nodes = (
(549,-5,o),
(653,84,o),
(653,244,cs),
(653,662,l),
(469,662,l),
(469,249,ls),
(469,186,o),
(432,148,o),
(350,148,cs),
(268,148,o),
(230,186,o),
(230,249,cs),
(230,662,l),
(46,662,l),
(46,244,ls),
(46,83,o),
(151,-5,o),
(350,-5,cs)
);
}
);
vertWidth = 0;
width = 699;
},
{
anchors = (
{
name = bottom;
pos = (346,-5);
},
{
name = bottom.alt;
pos = (346,-4);
},
{
name = top;
pos = (346,655);
},
{
name = top.alt;
pos = (573,591);
}
);
layerId = m004;
shapes = (
{
closed = 1;
nodes = (
(511,-5,o),
(602,84,o),
(602,232,cs),
(602,655,l),
(518,655,l),
(518,234,ls),
(518,131,o),
(455,68,o),
(346,68,cs),
(235,68,o),
(173,131,o),
(173,234,cs),
(173,655,l),
(89,655,l),
(89,232,ls),
(89,83,o),
(179,-5,o),
(346,-5,cs)
);
}
);
vertWidth = 0;
width = 691;
}
);
metricLeft = "=|J";
metricRight = J;
unicode = 85;
},
{
glyphname = V;
kernLeft = V;
kernRight = V;
lastChange = "2026-03-13 19:46:15 +0000";
layers = (
{
anchors = (
{
name = bottom;
pos = (256,0);
},
{
name = top;
pos = (257,650);
}
);
layerId = "AE3FEF6D-3AA7-4252-B349-D2606A6A3B4C";
shapes = (
{
closed = 1;
nodes = (
(278,0,l),
(505,650,l),
(475,650,l),
(259,20,l),
(255,20,l),
(40,650,l),
(9,650,l),
(236,0,l)
);
}
);
vertWidth = 0;
width = 514;
},
{
anchors = (
{
name = bottom;
pos = (314,0);
},
{
name = top;
pos = (314,662);
}
);
layerId = "3FD7D777-D61F-402B-A269-3A472D550581";
shapes = (
{
closed = 1;
nodes = (
(416,0,l),
(660,662,l),
(458,662,l),
(318,229,l),
(313,229,l),
(173,662,l),
(-28,662,l),
(216,0,l)
);
}
);
vertWidth = 0;
width = 632;
},
{
anchors = (
{
name = bottom;
pos = (279,0);
},
{
name = top;
pos = (279,655);
}
);
layerId = m004;
shapes = (
{
closed = 1;
nodes = (
(331,0,l),
(564,655,l),
(470,655,l),
(282,98,l),
(278,98,l),
(91,655,l),
(-4,655,l),
(230,0,l)
);
}
);
vertWidth = 0;
width = 560;
}
);
metricLeft = A;
metricRight = A;
unicode = 86;
},
{
glyphname = VY;
kernLeft = V;
kernRight = Yacute;
lastChange = "2026-03-13 19:55:41 +0000";
layers = (
{
background = {
shapes = (
{
alignment = -1;
attr = {
identifier = ADCBB169;
};
pos = (466,0);
ref = Y;
userData = {
UFO.identifier = 7D325315;
UFO.lib = {
};
};
},
{
alignment = -1;
attr = {
identifier = 80D2B9B0;
};
ref = V;
userData = {
UFO.identifier = 7FCAC67A;
UFO.lib = {
};
};
}
);
};
layerId = "AE3FEF6D-3AA7-4252-B349-D2606A6A3B4C";
shapes = (
{
closed = 1;
nodes = (
(753,0,l),
(753,279,l),
(1002,650,l),
(969,650,l),
(739,307,l),
(510,650,l),
(475,650,l),
(259,20,l),
(255,20,l),
(40,650,l),
(9,650,l),
(236,0,l),
(278,0,l),
(495,621,l),
(723,279,l),
(723,0,l)
);
}
);
width = 1011;
},
{
background = {
shapes = (
{
alignment = -1;
pos = (515,0);
ref = Y;
userData = {
UFO.identifier = F75C8E55;
UFO.lib = {
};
};
},
{
alignment = -1;
ref = V;
userData = {
UFO.identifier = 80B21931;
UFO.lib = {
};
};
}
);
};
layerId = "3FD7D777-D61F-402B-A269-3A472D550581";
shapes = (
{
closed = 1;
nodes = (
(925,0,l),
(925,240,l),
(1173,662,l),
(954,662,l),
(831,377,l),
(707,662,l),
(458,662,l),
(318,229,l),
(313,229,l),
(173,662,l),
(-28,662,l),
(216,0,l),
(416,0,l),
(593,481,l),
(735,240,l),
(735,0,l)
);
}
);
width = 1145;
},
{
background = {
shapes = (
{
alignment = -1;
attr = {
identifier = ADCBB169;
};
pos = (484,0);
ref = Y;
userData = {
UFO.identifier = 7D325315;
UFO.lib = {
};
};
},
{
alignment = -1;
attr = {
identifier = 80D2B9B0;
};
ref = V;
userData = {
UFO.identifier = 7FCAC67A;
UFO.lib = {
};
};
}
);
};
layerId = m004;
shapes = (
{
closed = 1;
nodes = (
(818,0,l),
(818,264,l),
(1067,655,l),
(964,655,l),
(774,333,l),
(585,655,l),
(470,655,l),
(282,98,l),
(278,98,l),
(91,655,l),
(-4,655,l),
(230,0,l),
(331,0,l),
(534,570,l),
(728,264,l),
(728,0,l)
);
}
);
width = 1063;
}
);
metricLeft = V;
metricRight = Y;
unicode = 42848;
},
{
color = 3;
glyphname = W;
kernLeft = V;
kernRight = V;
lastChange = "2026-03-15 19:30:38 +0000";
layers = (
{
anchors = (
{
name = bottom;
pos = (428,0);
},
{
name = top;
pos = (428,650);
}
);
layerId = "AE3FEF6D-3AA7-4252-B349-D2606A6A3B4C";
shapes = (
{
closed = 1;
nodes = (
(239,0,l),
(426,630,l),
(431,630,l),
(619,0,l),
(674,0,l),
(844,650,l),
(812,650,l),
(647,17,l),
(642,17,l),
(455,650,l),
(403,650,l),
(216,17,l),
(211,17,l),
(45,650,l),
(14,650,l),
(184,0,l)
);
}
);
vertWidth = 0;
width = 858;
},
{
anchors = (
{
name = bottom;
pos = (457,0);
},
{
name = top;
pos = (457,662);
}
);
layerId = "3FD7D777-D61F-402B-A269-3A472D550581";
shapes = (
{
closed = 1;
nodes = (
(343,0,l),
(455,407,l),
(459,407,l),
(569,0,l),
(744,0,l),
(926,662,l),
(731,662,l),
(648,258,l),
(644,258,l),
(537,662,l),
(377,662,l),
(269,258,l),
(264,258,l),
(181,662,l),
(-13,662,l),
(168,0,l)
);
}
);
vertWidth = 0;
width = 913;
},
{
anchors = (
{
name = bottom;
pos = (439,0);
},
{
name = top;
pos = (439,655);
}
);
layerId = m004;
shapes = (
{
closed = 1;
nodes = (
(278,0,l),
(437,547,l),
(442,547,l),
(600,0,l),
(700,0,l),
(875,655,l),
(782,655,l),
(648,108,l),
(643,108,l),
(486,655,l),
(393,655,l),
(236,108,l),
(231,108,l),
(96,655,l),
(4,655,l),
(178,0,l)
);
}
);
vertWidth = 0;
width = 879;
}
);
unicode = 87;
},
{
color = 3;
glyphname = X;
lastChange = "2026-03-11 11:23:54 +0000";
layers = (
{
anchors = (
{
name = bottom;
pos = (287,0);
},
{
name = top;
pos = (287,650);
}
);
layerId = "AE3FEF6D-3AA7-4252-B349-D2606A6A3B4C";
shapes = (
{
closed = 1;
nodes = (
(286,355,l),
(64,650,l),
(27,650,l),
(266,331,l),
(18,0,l),
(53,0,l),
(286,306,l),
(288,306,l),
(520,0,l),
(557,0,l),
(307,331,l),
(546,650,l),
(509,650,l),
(288,355,l)
);
}
);
vertWidth = 0;
width = 573;
},
{
anchors = (
{
name = bottom;
pos = (337,0);
},
{
name = top;
pos = (337,662);
}
);
layerId = "3FD7D777-D61F-402B-A269-3A472D550581";
shapes = (
{
closed = 1;
nodes = (
(332,468,l),
(231,662,l),
(31,662,l),
(233,339,l),
(10,0,l),
(208,0,l),
(330,210,l),
(340,210,l),
(456,0,l),
(658,0,l),
(440,344,l),
(640,662,l),
(443,662,l),
(342,468,l)
);
}
);
vertWidth = 0;
width = 668;
},
{
anchors = (
{
name = bottom;
pos = (299,0);
},
{
name = top;
pos = (299,655);
}
);
layerId = m004;
shapes = (
{
closed = 1;
nodes = (
(296,397,l),
(120,655,l),
(22,655,l),
(247,334,l),
(8,0,l),
(104,0,l),
(296,270,l),
(301,270,l),
(489,0,l),
(588,0,l),
(350,336,l),
(574,655,l),
(477,655,l),
(301,397,l)
);
}
);
vertWidth = 0;
width = 596;
}
);
unicode = 88;
},
{
glyphname = Y;
kernLeft = Y;
kernRight = Y;
lastChange = "2026-03-16 18:08:36 +0000";
layers = (
{
anchors = (
{
name = bottom;
pos = (273,0);
},
{
name = top;
pos = (273,650);
}
);
layerId = "AE3FEF6D-3AA7-4252-B349-D2606A6A3B4C";
shapes = (
{
closed = 1;
nodes = (
(286,0,l),
(286,279,l),
(536,650,l),
(503,650,l),
(273,307,l),
(44,650,l),
(9,650,l),
(259,279,l),
(259,0,l)
);
}
);
vertWidth = 0;
width = 545;
},
{
anchors = (
{
name = bottom;
pos = (314,0);
},
{
name = top;
pos = (314,662);
}
);
layerId = "3FD7D777-D61F-402B-A269-3A472D550581";
shapes = (
{
closed = 1;
nodes = (
(407,0,l),
(407,240,l),
(658,662,l),
(439,662,l),
(316,392,l),
(192,662,l),
(-28,662,l),
(223,240,l),
(223,0,l)
);
}
);
vertWidth = 0;
width = 630;
},
{
anchors = (
{
name = bottom;
pos = (289,0);
},
{
name = top;
pos = (289,655);
}
);
layerId = m004;
shapes = (
{
closed = 1;
nodes = (
(331,0,l),
(331,264,l),
(583,655,l),
(480,655,l),
(290,338,l),
(101,655,l),
(-4,655,l),
(247,264,l),
(247,0,l)
);
}
);
vertWidth = 0;
width = 579;
}
);
metricLeft = A;
metricRight = A;
unicode = 89;
},
{
color = 8;
glyphname = Yhook;
kernLeft = Y;
kernRight = Y;
lastChange = "2026-03-16 19:16:11 +0000";
layers = (
{
layerId = "AE3FEF6D-3AA7-4252-B349-D2606A6A3B4C";
shapes = (
{
closed = 1;
nodes = (
(448,279,l),
(448,0,l),
(475,0,l),
(475,279,l),
(726,650,l),
(693,650,l),
(462,307,l),
(233,650,l),
(216,650,ls),
(111,650,o),
(47,599,o),
(47,516,cs),
(47,485,l),
(74,485,l),
(74,516,ls),
(74,584,o),
(128,624,o),
(216,624,c)
);
}
);
vertWidth = 0;
width = 735;
},
{
background = {
shapes = (
{
closed = 1;
nodes = (
(612,0,l),
(612,240,l),
(863,662,l),
(644,662,l),
(521,392,l),
(397,662,l),
(177,662,l),
(428,240,l),
(428,0,l)
);
}
);
};
layerId = "3FD7D777-D61F-402B-A269-3A472D550581";
shapes = (
{
closed = 1;
nodes = (
(428,240,l),
(428,0,l),
(612,0,l),
(612,240,l),
(862,662,l),
(644,662,l),
(521,392,l),
(396,662,l),
(259,662,ls),
(108,662,o),
(16,594,o),
(16,486,cs),
(16,424,l),
(200,424,l),
(200,486,ls),
(200,515,o),
(221,531,o),
(255,531,c)
);
}
);
vertWidth = 0;
width = 834;
},
{
layerId = m004;
shapes = (
{
closed = 1;
nodes = (
(449,264,l),
(449,0,l),
(533,0,l),
(533,264,l),
(784,655,l),
(682,655,l),
(491,338,l),
(301,655,l),
(239,655,ls),
(117,655,o),
(38,597,o),
(38,505,cs),
(38,462,l),
(128,462,l),
(128,505,ls),
(128,558,o),
(171,589,o),
(239,589,c)
);
}
);
vertWidth = 0;
width = 780;
}
);
metricLeft = J;
metricRight = A;
unicode = 435;
},
{
color = 3;
glyphname = Yr;
lastChange = "2026-03-16 19:16:11 +0000";
layers = (
{
background = {
shapes = (
{
pos = (-1,0);
ref = R;
}
);
};
layerId = "AE3FEF6D-3AA7-4252-B349-D2606A6A3B4C";
shapes = (
{
closed = 1;
nodes = (
(594,-108,l),
(366,277,l),
(459,290,o),
(511,367,o),
(511,463,cs),
(511,568,o),
(447,650,o),
(338,650,cs),
(145,650,l),
(145,770,l),
(118,770,l),
(118,0,l),
(145,0,l),
(145,275,l),
(337,275,l),
(558,-108,l)
);
},
{
closed = 1;
nodes = (
(145,624,l),
(338,624,ls),
(434,624,o),
(481,551,o),
(481,463,cs),
(481,376,o),
(434,300,o),
(338,300,cs),
(145,300,l)
);
}
);
width = 561;
},
{
background = {
shapes = (
{
pos = (-2,0);
ref = R;
}
);
};
layerId = "3FD7D777-D61F-402B-A269-3A472D550581";
shapes = (
{
closed = 1;
nodes = (
(714,-98,l),
(513,254,l),
(590,287,o),
(628,350,o),
(628,445,cs),
(628,588,o),
(538,662,o),
(363,662,cs),
(241,662,l),
(241,770,l),
(58,770,l),
(58,0,l),
(242,0,l),
(242,228,l),
(344,228,l),
(510,-98,l)
);
},
{
closed = 1;
nodes = (
(242,518,l),
(359,518,ls),
(414,518,o),
(440,491,o),
(440,446,cs),
(440,398,o),
(413,372,o),
(359,372,cs),
(242,372,l)
);
}
);
width = 649;
},
{
background = {
shapes = (
{
pos = (-2,0);
ref = R;
}
);
};
layerId = m004;
shapes = (
{
closed = 1;
nodes = (
(637,-104,l),
(427,266,l),
(516,289,o),
(565,360,o),
(565,456,cs),
(565,576,o),
(491,655,o),
(357,655,cs),
(191,655,l),
(191,770,l),
(107,770,l),
(107,0,l),
(191,0,l),
(191,258,l),
(346,258,l),
(537,-104,l)
);
},
{
closed = 1;
nodes = (
(191,584,l),
(356,584,ls),
(437,584,o),
(475,529,o),
(475,457,cs),
(475,384,o),
(436,327,o),
(356,327,cs),
(191,327,l)
);
}
);
width = 595;
}
);
metricLeft = "=I";
metricWidth = R;
unicode = 422;
},
{
color = 3;
glyphname = Z;
lastChange = "2026-02-28 20:03:52 +0000";
layers = (
{
anchors = (
{
name = bottom;
pos = (264,0);
},
{
name = top;
pos = (264,650);
}
);
layerId = "AE3FEF6D-3AA7-4252-B349-D2606A6A3B4C";
shapes = (
{
closed = 1;
nodes = (
(482,0,l),
(482,25,l),
(71,25,l),
(482,612,l),
(482,650,l),
(46,650,l),
(46,625,l),
(458,625,l),
(46,39,l),
(46,0,l)
);
}
);
vertWidth = 0;
width = 529;
},
{
anchors = (
{
name = bottom;
pos = (259,0);
},
{
name = top;
pos = (259,662);
}
);
layerId = "3FD7D777-D61F-402B-A269-3A472D550581";
shapes = (
{
closed = 1;
nodes = (
(510,0,l),
(510,143,l),
(223,143,l),
(510,549,l),
(510,662,l),
(8,662,l),
(8,518,l),
(296,518,l),
(8,113,l),
(8,0,l)
);
}
);
vertWidth = 0;
width = 518;
},
{
anchors = (
{
name = bottom;
pos = (266,0);
},
{
name = top;
pos = (266,655);
}
);
layerId = m004;
shapes = (
{
closed = 1;
nodes = (
(496,0,l),
(496,69,l),
(132,69,l),
(496,589,l),
(496,655,l),
(36,655,l),
(36,585,l),
(401,585,l),
(36,67,l),
(36,0,l)
);
}
);
vertWidth = 0;
width = 533;
}
);
unicode = 90;
},
{
color = 3;
glyphname = AEsmall;
kernLeft = Asmall;
lastChange = "2026-03-15 21:27:28 +0000";
layers = (
{
anchors = (
{
name = bottom;
pos = (250,0);
},
{
name = top;
pos = (324,483);
}
);
layerId = "AE3FEF6D-3AA7-4252-B349-D2606A6A3B4C";
shapes = (
{
closed = 1;
nodes = (
(29,0,l),
(85,146,l),
(235,146,l),
(235,0,l),
(504,0,l),
(504,26,l),
(262,26,l),
(262,228,l),
(483,228,l),
(483,255,l),
(262,255,l),
(262,458,l),
(504,458,l),
(504,483,l),
(191,483,l),
(-3,0,l)
);
},
{
closed = 1;
nodes = (
(211,463,l),
(235,463,l),
(235,172,l),
(94,172,l)
);
}
);
vertWidth = 0;
width = 530;
},
{
anchors = (
{
name = bottom;
pos = (370,0);
},
{
name = top;
pos = (418,500);
}
);
layerId = "3FD7D777-D61F-402B-A269-3A472D550581";
shapes = (
{
closed = 1;
nodes = (
(172,0,l),
(199,96,l),
(301,96,l),
(301,0,l),
(675,0,l),
(675,134,l),
(475,134,l),
(475,197,l),
(648,197,l),
(648,301,l),
(475,301,l),
(475,365,l),
(675,365,l),
(675,500,l),
(165,500,l),
(-20,0,l)
);
},
{
closed = 1;
nodes = (
(272,336,l),
(301,336,l),
(301,193,l),
(228,193,l)
);
}
);
vertWidth = 0;
width = 680;
},
{
anchors = (
{
name = bottom;
pos = (296,0);
},
{
name = top;
pos = (360,490);
}
);
layerId = m004;
shapes = (
{
closed = 1;
nodes = (
(84,0,l),
(129,127,l),
(261,127,l),
(261,0,l),
(573,0,l),
(573,67,l),
(345,67,l),
(345,217,l),
(550,217,l),
(550,272,l),
(345,272,l),
(345,424,l),
(573,424,l),
(573,490,l),
(182,490,l),
(-8,0,l)
);
},
{
closed = 1;
nodes = (
(235,416,l),
(261,416,l),
(261,180,l),
(145,180,l)
);
}
);
vertWidth = 0;
width = 593;
}
);
unicode = 7425;
},
{
color = 3;
glyphname = Asmall;
kernLeft = Asmall;
kernRight = Asmall;
lastChange = "2026-02-28 20:03:52 +0000";
layers = (
{
anchors = (
{
name = bottom;
pos = (209,0);
},
{
name = bottom.alt;
pos = (405,0);
},
{
name = top;
pos = (209,483);
}
);
layerId = "AE3FEF6D-3AA7-4252-B349-D2606A6A3B4C";
shapes = (
{
closed = 1;
nodes = (
(29,0,l),
(84,146,l),
(334,146,l),
(389,0,l),
(420,0,l),
(231,483,l),
(188,483,l),
(-1,0,l)
);
},
{
closed = 1;
nodes = (
(207,464,l),
(212,464,l),
(324,172,l),
(93,172,l)
);
}
);
vertWidth = 0;
width = 419;
},
{
anchors = (
{
name = bottom;
pos = (271,0);
},
{
name = bottom.alt;
pos = (459,23);
},
{
name = top;
pos = (271,500);
}
);
layerId = "3FD7D777-D61F-402B-A269-3A472D550581";
shapes = (
{
closed = 1;
nodes = (
(175,0,l),
(201,96,l),
(341,96,l),
(366,0,l),
(559,0,l),
(376,500,l),
(162,500,l),
(-18,0,l)
);
},
{
closed = 1;
nodes = (
(268,336,l),
(272,336,l),
(313,193,l),
(227,193,l)
);
}
);
vertWidth = 0;
width = 539;
},
{
anchors = (
{
name = bottom;
pos = (233,0);
},
{
name = bottom.alt;
pos = (426,9);
},
{
name = top;
pos = (233,490);
}
);
layerId = m004;
shapes = (
{
closed = 1;
nodes = (
(85,0,l),
(127,121,l),
(340,121,l),
(382,0,l),
(473,0,l),
(287,490,l),
(179,490,l),
(-6,0,l)
);
},
{
closed = 1;
nodes = (
(231,416,l),
(235,416,l),
(319,187,l),
(146,187,l)
);
}
);
vertWidth = 0;
width = 466;
}
);
unicode = 7424;
},
{
color = 3;
glyphname = Bsmall;
kernLeft = Ismall;
lastChange = "2026-03-15 21:28:05 +0000";
layers = (
{
anchors = (
{
name = bottom;
pos = (228,0);
},
{
name = top;
pos = (228,483);
}
);
layerId = "AE3FEF6D-3AA7-4252-B349-D2606A6A3B4C";
shapes = (
{
closed = 1;
nodes = (
(283,0,ls),
(365,0,o),
(416,49,o),
(416,125,cs),
(416,188,o),
(381,235,o),
(323,245,c),
(323,250,l),
(369,263,o),
(394,303,o),
(394,359,cs),
(394,435,o),
(344,483,o),
(261,483,cs),
(82,483,l),
(82,0,l)
);
},
{
closed = 1;
nodes = (
(109,228,l),
(276,228,ls),
(347,228,o),
(386,191,o),
(386,125,cs),
(386,61,o),
(347,26,o),
(276,26,cs),
(109,26,l)
);
},
{
closed = 1;
nodes = (
(109,458,l),
(255,458,ls),
(326,458,o),
(364,423,o),
(364,357,cs),
(364,292,o),
(325,256,o),
(255,256,cs),
(109,256,l)
);
}
);
vertWidth = 0;
width = 454;
},
{
anchors = (
{
name = bottom;
pos = (300,0);
},
{
name = top;
pos = (300,500);
}
);
layerId = "3FD7D777-D61F-402B-A269-3A472D550581";
shapes = (
{
closed = 1;
nodes = (
(366,0,ls),
(479,0,o),
(540,53,o),
(540,148,cs),
(540,201,o),
(500,248,o),
(445,261,c),
(445,265,l),
(487,273,o),
(517,308,o),
(517,347,cs),
(517,446,o),
(450,500,o),
(325,500,cs),
(54,500,l),
(54,0,l)
);
},
{
closed = 1;
nodes = (
(242,210,l),
(310,210,ls),
(346,210,o),
(363,192,o),
(363,160,cs),
(363,128,o),
(346,112,o),
(310,112,cs),
(242,112,l)
);
},
{
closed = 1;
nodes = (
(242,388,l),
(304,388,ls),
(337,388,o),
(353,371,o),
(353,339,cs),
(353,307,o),
(337,290,o),
(304,290,cs),
(242,290,l)
);
}
);
vertWidth = 0;
width = 580;
},
{
anchors = (
{
name = bottom;
pos = (263,0);
},
{
name = top;
pos = (263,490);
}
);
layerId = m004;
shapes = (
{
closed = 1;
nodes = (
(323,0,ls),
(416,0,o),
(473,51,o),
(473,134,cs),
(473,193,o),
(433,240,o),
(377,251,c),
(377,256,l),
(422,267,o),
(450,305,o),
(450,355,cs),
(450,440,o),
(392,490,o),
(293,490,cs),
(84,490,l),
(84,0,l)
);
},
{
closed = 1;
nodes = (
(168,212,l),
(294,212,ls),
(352,212,o),
(383,187,o),
(383,138,cs),
(383,90,o),
(352,67,o),
(294,67,cs),
(168,67,l)
);
},
{
closed = 1;
nodes = (
(168,424,l),
(273,424,ls),
(330,424,o),
(360,400,o),
(360,351,cs),
(360,303,o),
(329,279,o),
(273,279,cs),
(168,279,l)
);
}
);
vertWidth = 0;
width = 514;
}
);
unicode = 665;
},
{
color = 3;
glyphname = Csmall;
kernLeft = Gsmall;
lastChange = "2026-03-16 02:19:08 +0000";
layers = (
{
anchors = (
{
name = bottom;
pos = (269,-5);
},
{
name = top;
pos = (269,489);
}
);
layerId = "AE3FEF6D-3AA7-4252-B349-D2606A6A3B4C";
shapes = (
{
closed = 1;
nodes = (
(371,-5,o),
(431,62,o),
(452,117,c),
(427,127,l),
(408,77,o),
(355,21,o),
(268,21,cs),
(142,21,o),
(84,116,o),
(84,242,cs),
(84,367,o),
(142,463,o),
(268,463,cs),
(355,463,o),
(408,407,o),
(427,357,c),
(452,366,l),
(431,421,o),
(371,489,o),
(269,489,cs),
(136,489,o),
(54,394,o),
(54,242,cs),
(54,90,o),
(136,-5,o),
(269,-5,cs)
);
}
);
vertWidth = 0;
width = 506;
},
{
anchors = (
{
name = bottom;
pos = (293,-10);
},
{
name = top;
pos = (289,510);
}
);
layerId = "3FD7D777-D61F-402B-A269-3A472D550581";
shapes = (
{
closed = 1;
nodes = (
(458,-10,o),
(558,80,o),
(564,201,c),
(379,203,l),
(372,150,o),
(339,123,o),
(293,123,cs),
(234,123,o),
(206,167,o),
(206,249,cs),
(206,331,o),
(237,376,o),
(295,376,cs),
(339,376,o),
(372,347,o),
(379,296,c),
(564,298,l),
(558,418,o),
(458,510,o),
(289,510,cs),
(114,510,o),
(18,419,o),
(18,249,cs),
(18,79,o),
(113,-10,o),
(293,-10,cs)
);
}
);
vertWidth = 0;
width = 558;
},
{
anchors = (
{
name = bottom;
pos = (283,-6);
},
{
name = top;
pos = (281,497);
}
);
layerId = m004;
shapes = (
{
closed = 1;
nodes = (
(409,-6,o),
(483,67,o),
(499,149,c),
(414,156,l),
(399,104,o),
(354,60,o),
(282,60,cs),
(181,60,o),
(135,136,o),
(135,245,cs),
(135,354,o),
(183,430,o),
(283,430,cs),
(354,430,o),
(399,385,o),
(414,335,c),
(499,341,l),
(483,421,o),
(409,497,o),
(281,497,cs),
(132,497,o),
(45,404,o),
(45,245,cs),
(45,86,o),
(132,-6,o),
(283,-6,cs)
);
}
);
vertWidth = 0;
width = 532;
}
);
unicode = 7428;
},
{
color = 3;
glyphname = Dsmall;
kernLeft = Ismall;
lastChange = "2026-03-16 18:27:42 +0000";
layers = (
{
anchors = (
{
name = "D-bar";
pos = (90,242);
},
{
name = bottom;
pos = (238,0);
},
{
name = top;
pos = (238,483);
}
);
layerId = "AE3FEF6D-3AA7-4252-B349-D2606A6A3B4C";
shapes = (
{
closed = 1;
nodes = (
(238,0,ls),
(374,0,o),
(447,99,o),
(447,242,cs),
(447,384,o),
(374,483,o),
(238,483,cs),
(77,483,l),
(77,0,l)
);
},
{
closed = 1;
nodes = (
(104,458,l),
(238,458,ls),
(360,458,o),
(417,365,o),
(417,242,cs),
(417,118,o),
(360,25,o),
(238,25,cs),
(104,25,l)
);
}
);
vertWidth = 0;
width = 483;
},
{
anchors = (
{
name = "D-bar";
pos = (127,250);
},
{
name = bottom;
pos = (246,0);
},
{
name = top;
pos = (246,500);
}
);
layerId = "3FD7D777-D61F-402B-A269-3A472D550581";
shapes = (
{
closed = 1;
nodes = (
(280,0,ls),
(452,0,o),
(532,102,o),
(532,249,cs),
(532,397,o),
(452,500,o),
(280,500,cs),
(41,500,l),
(41,0,l)
);
},
{
closed = 1;
nodes = (
(225,388,l),
(261,388,ls),
(315,388,o),
(344,354,o),
(344,249,cs),
(344,145,o),
(315,119,o),
(261,119,cs),
(225,119,l)
);
}
);
vertWidth = 0;
width = 558;
},
{
anchors = (
{
name = "D-bar";
pos = (115,245);
},
{
name = bottom;
pos = (248,0);
},
{
name = top;
pos = (248,490);
}
);
layerId = m004;
shapes = (
{
closed = 1;
nodes = (
(261,0,ls),
(410,0,o),
(483,101,o),
(483,245,cs),
(483,389,o),
(410,490,o),
(261,490,cs),
(73,490,l),
(73,0,l)
);
},
{
closed = 1;
nodes = (
(157,426,l),
(254,426,ls),
(350,426,o),
(393,358,o),
(393,245,cs),
(393,132,o),
(350,66,o),
(254,66,cs),
(157,66,l)
);
}
);
vertWidth = 0;
width = 519;
}
);
unicode = 7429;
},
{
color = 3;
glyphname = Esmall;
kernLeft = Ismall;
lastChange = "2026-03-16 18:31:47 +0000";
layers = (
{
anchors = (
{
name = bottom;
pos = (237,0);
},
{
name = bottom.alt;
pos = (293,0);
},
{
name = top;
pos = (237,483);
}
);
layerId = "AE3FEF6D-3AA7-4252-B349-D2606A6A3B4C";
shapes = (
{
closed = 1;
nodes = (
(362,0,l),
(362,25,l),
(105,25,l),
(105,228,l),
(343,228,l),
(343,255,l),
(105,255,l),
(105,458,l),
(362,458,l),
(362,483,l),
(78,483,l),
(78,0,l)
);
}
);
vertWidth = 0;
width = 396;
},
{
anchors = (
{
name = bottom;
pos = (254,0);
},
{
name = bottom.alt;
pos = (315,0);
},
{
name = top;
pos = (254,500);
}
);
layerId = "3FD7D777-D61F-402B-A269-3A472D550581";
shapes = (
{
closed = 1;
nodes = (
(423,0,l),
(423,134,l),
(223,134,l),
(223,197,l),
(397,197,l),
(397,301,l),
(223,301,l),
(223,365,l),
(423,365,l),
(423,500,l),
(44,500,l),
(44,0,l)
);
}
);
vertWidth = 0;
width = 443;
},
{
anchors = (
{
name = bottom;
pos = (251,0);
},
{
name = bottom.alt;
pos = (308,0);
},
{
name = top;
pos = (251,490);
}
);
layerId = m004;
shapes = (
{
closed = 1;
nodes = (
(394,0,l),
(394,66,l),
(158,66,l),
(158,211,l),
(372,211,l),
(372,278,l),
(158,278,l),
(158,424,l),
(394,424,l),
(394,490,l),
(74,490,l),
(74,0,l)
);
}
);
vertWidth = 0;
width = 424;
}
);
unicode = 7431;
},
{
color = 3;
glyphname = Fsmall;
kernLeft = Ismall;
kernRight = Fsmall;
lastChange = "2026-03-16 18:27:56 +0000";
layers = (
{
anchors = (
{
name = bottom;
pos = (228,0);
},
{
name = top;
pos = (228,483);
}
);
layerId = "AE3FEF6D-3AA7-4252-B349-D2606A6A3B4C";
shapes = (
{
closed = 1;
nodes = (
(105,0,l),
(105,228,l),
(343,228,l),
(343,254,l),
(105,254,l),
(105,458,l),
(362,458,l),
(362,483,l),
(78,483,l),
(78,0,l)
);
}
);
vertWidth = 0;
width = 398;
},
{
anchors = (
{
name = bottom;
pos = (235,0);
},
{
name = top;
pos = (235,500);
}
);
layerId = "3FD7D777-D61F-402B-A269-3A472D550581";
shapes = (
{
closed = 1;
nodes = (
(228,0,l),
(228,173,l),
(402,173,l),
(402,277,l),
(228,277,l),
(228,365,l),
(428,365,l),
(428,500,l),
(44,500,l),
(44,0,l)
);
}
);
vertWidth = 0;
width = 435;
},
{
anchors = (
{
name = bottom;
pos = (238,0);
},
{
name = top;
pos = (238,490);
}
);
layerId = m004;
shapes = (
{
closed = 1;
nodes = (
(158,0,l),
(158,203,l),
(372,203,l),
(372,269,l),
(158,269,l),
(158,424,l),
(394,424,l),
(394,490,l),
(74,490,l),
(74,0,l)
);
}
);
vertWidth = 0;
width = 421;
}
);
unicode = 42800;
},
{
color = 3;
glyphname = Gsmall;
kernLeft = Gsmall;
lastChange = "2026-03-15 21:29:05 +0000";
layers = (
{
anchors = (
{
name = "T-bar";
pos = (351,137);
},
{
name = bottom;
pos = (270,-5);
},
{
name = top;
pos = (253,489);
}
);
layerId = "AE3FEF6D-3AA7-4252-B349-D2606A6A3B4C";
shapes = (
{
closed = 1;
nodes = (
(346,-5,o),
(405,20,o),
(451,70,c),
(451,237,l),
(254,237,l),
(254,210,l),
(424,210,l),
(424,80,l),
(385,42,o),
(333,22,o),
(269,22,cs),
(138,22,o),
(65,98,o),
(65,239,cs),
(65,376,o),
(139,461,o),
(252,461,cs),
(322,461,o),
(389,421,o),
(413,358,c),
(440,368,l),
(410,441,o),
(334,489,o),
(253,489,cs),
(121,489,o),
(35,392,o),
(35,239,cs),
(35,83,o),
(120,-5,o),
(270,-5,cs)
);
}
);
vertWidth = 0;
width = 490;
},
{
anchors = (
{
name = "T-bar";
pos = (485,167);
},
{
name = bottom;
pos = (308,-10);
},
{
name = top;
pos = (288,510);
}
);
layerId = "3FD7D777-D61F-402B-A269-3A472D550581";
shapes = (
{
closed = 1;
nodes = (
(423,-10,o),
(517,32,o),
(580,105,c),
(580,298,l),
(301,298,l),
(301,201,l),
(396,201,l),
(396,161,l),
(381,135,o),
(351,123,o),
(309,123,cs),
(237,123,o),
(206,156,o),
(206,249,cs),
(206,327,o),
(227,376,o),
(296,376,cs),
(346,376,o),
(375,352,o),
(400,321,c),
(548,371,l),
(511,450,o),
(431,510,o),
(288,510,cs),
(109,510,o),
(18,404,o),
(18,249,cs),
(18,82,o),
(112,-10,o),
(308,-10,cs)
);
}
);
vertWidth = 0;
width = 596;
},
{
anchors = (
{
name = "T-bar";
pos = (405,143);
},
{
name = bottom;
pos = (288,-6);
},
{
name = top;
pos = (270,497);
}
);
layerId = m004;
shapes = (
{
closed = 1;
nodes = (
(379,-6,o),
(448,25,o),
(501,84,c),
(501,267,l),
(276,267,l),
(276,200,l),
(417,200,l),
(417,111,l),
(387,77,o),
(344,60,o),
(288,60,cs),
(179,60,o),
(121,120,o),
(121,243,cs),
(121,358,o),
(176,430,o),
(272,430,cs),
(335,430,o),
(387,396,o),
(412,345,c),
(484,370,l),
(452,444,o),
(375,497,o),
(270,497,cs),
(120,497,o),
(31,397,o),
(31,243,cs),
(31,83,o),
(121,-6,o),
(288,-6,cs)
);
}
);
vertWidth = 0;
width = 537;
}
);
unicode = 610;
},
{
color = 3;
glyphname = Hsmall;
kernLeft = Ismall;
lastChange = "2026-03-16 18:29:56 +0000";
layers = (
{
anchors = (
{
name = "H-bar";
pos = (260,359);
},
{
name = bottom;
pos = (260,0);
},
{
name = top;
pos = (260,483);
}
);
layerId = "AE3FEF6D-3AA7-4252-B349-D2606A6A3B4C";
shapes = (
{
closed = 1;
nodes = (
(104,0,l),
(104,228,l),
(417,228,l),
(417,0,l),
(444,0,l),
(444,483,l),
(417,483,l),
(417,255,l),
(104,255,l),
(104,483,l),
(77,483,l),
(77,0,l)
);
}
);
vertWidth = 0;
width = 521;
},
{
anchors = (
{
name = "H-bar";
pos = (316,401);
},
{
name = bottom;
pos = (316,0);
},
{
name = top;
pos = (316,500);
}
);
layerId = "3FD7D777-D61F-402B-A269-3A472D550581";
shapes = (
{
closed = 1;
nodes = (
(232,0,l),
(232,185,l),
(406,185,l),
(406,0,l),
(590,0,l),
(590,500,l),
(406,500,l),
(406,316,l),
(232,316,l),
(232,500,l),
(48,500,l),
(48,0,l)
);
}
);
vertWidth = 0;
width = 638;
},
{
anchors = (
{
name = "H-bar";
pos = (289,375);
},
{
name = bottom;
pos = (289,0);
},
{
name = top;
pos = (289,490);
}
);
layerId = m004;
shapes = (
{
closed = 1;
nodes = (
(160,0,l),
(160,210,l),
(420,210,l),
(420,0,l),
(504,0,l),
(504,490,l),
(420,490,l),
(420,281,l),
(160,281,l),
(160,490,l),
(76,490,l),
(76,0,l)
);
}
);
vertWidth = 0;
width = 578;
}
);
unicode = 668;
},
{
color = 3;
glyphname = Ismall;
kernLeft = Ismall;
lastChange = "2026-03-16 18:29:46 +0000";
layers = (
{
anchors = (
{
name = bottom;
pos = (103,0);
},
{
name = bottom.alt;
pos = (103,0);
},
{
name = top;
pos = (103,483);
}
);
layerId = "AE3FEF6D-3AA7-4252-B349-D2606A6A3B4C";
shapes = (
{
closed = 1;
nodes = (
(117,483,l),
(90,483,l),
(90,0,l),
(117,0,l)
);
}
);
width = 208;
},
{
anchors = (
{
name = bottom;
pos = (137,0);
},
{
name = bottom.alt;
pos = (137,0);
},
{
name = top;
pos = (137,499);
}
);
layerId = "3FD7D777-D61F-402B-A269-3A472D550581";
shapes = (
{
closed = 1;
nodes = (
(229,500,l),
(45,500,l),
(45,0,l),
(229,0,l)
);
}
);
width = 273;
},
{
anchors = (
{
name = bottom;
pos = (128,0);
},
{
name = bottom.alt;
pos = (128,0);
},
{
name = top;
pos = (128,489);
}
);
layerId = m004;
shapes = (
{
closed = 1;
nodes = (
(171,490,l),
(87,490,l),
(87,0,l),
(171,0,l)
);
}
);
width = 258;
}
);
metricLeft = idotless;
metricRight = idotless;
unicode = 618;
},
{
color = 3;
glyphname = Jsmall;
kernLeft = Jsmall;
lastChange = "2026-03-16 18:29:36 +0000";
layers = (
{
anchors = (
{
name = bottom;
pos = (191,-5);
},
{
name = top;
pos = (328,483);
}
);
layerId = "AE3FEF6D-3AA7-4252-B349-D2606A6A3B4C";
shapes = (
{
closed = 1;
nodes = (
(289,-5,o),
(342,45,o),
(342,124,cs),
(342,483,l),
(315,483,l),
(315,124,ls),
(315,61,o),
(272,20,o),
(191,20,cs),
(109,20,o),
(67,61,o),
(67,124,c),
(40,124,l),
(40,45,o),
(93,-5,o),
(191,-5,cs)
);
}
);
vertWidth = 0;
width = 421;
},
{
anchors = (
{
name = bottom;
pos = (222,-10);
},
{
name = top;
pos = (356,500);
}
);
layerId = "3FD7D777-D61F-402B-A269-3A472D550581";
shapes = (
{
closed = 1;
nodes = (
(366,-10,o),
(445,57,o),
(445,166,cs),
(445,500,l),
(261,500,l),
(261,166,ls),
(261,138,o),
(246,121,o),
(212,121,cs),
(177,121,o),
(163,137,o),
(163,164,c),
(4,164,l),
(-7,56,o),
(73,-10,o),
(222,-10,cs)
);
}
);
vertWidth = 0;
width = 487;
},
{
anchors = (
{
name = bottom;
pos = (202,-6);
},
{
name = top;
pos = (342,490);
}
);
layerId = m004;
shapes = (
{
closed = 1;
nodes = (
(323,-6,o),
(384,50,o),
(384,140,cs),
(384,490,l),
(300,490,l),
(300,140,ls),
(300,91,o),
(268,60,o),
(204,60,cs),
(140,60,o),
(108,90,o),
(108,139,c),
(24,139,l),
(20,49,o),
(91,-6,o),
(202,-6,cs)
);
}
);
vertWidth = 0;
width = 455;
}
);
unicode = 7434;
},
{
color = 3;
glyphname = Ksmall;
kernLeft = Ismall;
lastChange = "2026-03-16 18:29:30 +0000";
layers = (
{
anchors = (
{
name = bottom;
pos = (229,0);
},
{
name = top;
pos = (229,483);
}
);
layerId = "AE3FEF6D-3AA7-4252-B349-D2606A6A3B4C";
shapes = (
{
closed = 1;
nodes = (
(105,0,l),
(105,228,l),
(175,228,l),
(379,0,l),
(418,0,l),
(196,242,l),
(418,483,l),
(379,483,l),
(175,255,l),
(105,255,l),
(105,483,l),
(78,483,l),
(78,0,l)
);
}
);
vertWidth = 0;
width = 428;
},
{
anchors = (
{
name = bottom;
pos = (289,0);
},
{
name = top;
pos = (289,500);
}
);
layerId = "3FD7D777-D61F-402B-A269-3A472D550581";
shapes = (
{
closed = 1;
nodes = (
(224,0,l),
(224,185,l),
(233,185,l),
(363,0,l),
(576,0,l),
(352,249,l),
(575,500,l),
(364,500,l),
(233,327,l),
(224,327,l),
(224,500,l),
(40,500,l),
(40,0,l)
);
}
);
vertWidth = 0;
width = 566;
},
{
anchors = (
{
name = bottom;
pos = (258,0);
},
{
name = top;
pos = (258,490);
}
);
layerId = m004;
shapes = (
{
closed = 1;
nodes = (
(157,0,l),
(157,211,l),
(204,211,l),
(380,0,l),
(484,0,l),
(261,245,l),
(484,490,l),
(381,490,l),
(204,282,l),
(157,282,l),
(157,490,l),
(73,490,l),
(73,0,l)
);
}
);
vertWidth = 0;
width = 487;
}
);
unicode = 7435;
},
{
color = 3;
glyphname = Lsmall;
kernLeft = Ismall;
kernRight = Lsmall;
lastChange = "2026-03-16 18:29:25 +0000";
layers = (
{
anchors = (
{
name = "L-slash";
pos = (117,253);
},
{
name = bottom;
pos = (285,0);
},
{
name = bottom.alt;
pos = (398,0);
},
{
name = middle_dot_I;
pos = (282,242);
},
{
name = top;
pos = (285,483);
},
{
name = top.alt;
pos = (222,483);
}
);
layerId = "AE3FEF6D-3AA7-4252-B349-D2606A6A3B4C";
shapes = (
{
closed = 1;
nodes = (
(414,0,l),
(414,25,l),
(131,25,l),
(131,483,l),
(104,483,l),
(104,0,l)
);
}
);
vertWidth = 0;
width = 436;
},
{
anchors = (
{
name = "L-slash";
pos = (140,316);
},
{
name = bottom;
pos = (251,0);
},
{
name = bottom.alt;
pos = (402,0);
},
{
name = middle_dot_I;
pos = (343,228);
},
{
name = top;
pos = (299,500);
},
{
name = top.alt;
pos = (201,500);
}
);
layerId = "3FD7D777-D61F-402B-A269-3A472D550581";
shapes = (
{
closed = 1;
nodes = (
(442,0,l),
(442,134,l),
(234,134,l),
(234,500,l),
(50,500,l),
(50,0,l)
);
}
);
vertWidth = 0;
width = 459;
},
{
anchors = (
{
name = "L-slash";
pos = (137,277);
},
{
name = bottom;
pos = (281,0);
},
{
name = bottom.alt;
pos = (409,0);
},
{
name = middle_dot_I;
pos = (314,237);
},
{
name = top;
pos = (299,490);
},
{
name = top.alt;
pos = (224,490);
}
);
layerId = m004;
shapes = (
{
closed = 1;
nodes = (
(434,0,l),
(434,66,l),
(179,66,l),
(179,490,l),
(95,490,l),
(95,0,l)
);
}
);
vertWidth = 0;
width = 456;
}
);
unicode = 671;
},
{
color = 3;
glyphname = Msmall;
kernLeft = Ismall;
lastChange = "2026-03-16 18:29:16 +0000";
layers = (
{
anchors = (
{
name = bottom;
pos = (324,0);
},
{
name = top;
pos = (324,483);
}
);
layerId = "AE3FEF6D-3AA7-4252-B349-D2606A6A3B4C";
shapes = (
{
closed = 1;
nodes = (
(100,0,l),
(100,466,l),
(105,466,l),
(297,0,l),
(351,0,l),
(564,469,l),
(570,469,l),
(570,0,l),
(597,0,l),
(597,483,l),
(539,483,l),
(325,19,l),
(322,19,l),
(133,483,l),
(73,483,l),
(73,0,l)
);
}
);
vertWidth = 0;
width = 671;
},
{
anchors = (
{
name = bottom;
pos = (371,0);
},
{
name = top;
pos = (371,500);
}
);
layerId = "3FD7D777-D61F-402B-A269-3A472D550581";
shapes = (
{
closed = 1;
nodes = (
(220,0,l),
(220,234,l),
(226,234,l),
(312,0,l),
(428,0,l),
(515,233,l),
(521,233,l),
(521,0,l),
(705,0,l),
(705,500,l),
(494,500,l),
(374,178,l),
(366,178,l),
(246,500,l),
(36,500,l),
(36,0,l)
);
}
);
vertWidth = 0;
width = 741;
},
{
anchors = (
{
name = bottom;
pos = (348,0);
},
{
name = top;
pos = (348,490);
}
);
layerId = m004;
shapes = (
{
closed = 1;
nodes = (
(151,0,l),
(151,364,l),
(157,364,l),
(309,0,l),
(386,0,l),
(552,366,l),
(558,366,l),
(558,0,l),
(642,0,l),
(642,490,l),
(529,490,l),
(350,94,l),
(345,94,l),
(182,490,l),
(67,490,l),
(67,0,l)
);
}
);
vertWidth = 0;
width = 709;
}
);
unicode = 7437;
},
{
color = 3;
glyphname = Nsmall;
kernLeft = Ismall;
lastChange = "2026-03-16 18:30:20 +0000";
layers = (
{
anchors = (
{
name = bottom;
pos = (249,0);
},
{
name = top;
pos = (277,483);
}
);
layerId = "AE3FEF6D-3AA7-4252-B349-D2606A6A3B4C";
shapes = (
{
closed = 1;
nodes = (
(104,0,l),
(104,459,l),
(109,459,l),
(396,0,l),
(445,0,l),
(445,483,l),
(418,483,l),
(418,24,l),
(413,24,l),
(127,483,l),
(77,483,l),
(77,0,l)
);
}
);
vertWidth = 0;
width = 522;
},
{
anchors = (
{
name = bottom;
pos = (314,0);
},
{
name = top;
pos = (329,500);
}
);
layerId = "3FD7D777-D61F-402B-A269-3A472D550581";
shapes = (
{
closed = 1;
nodes = (
(232,0,l),
(232,248,l),
(236,248,l),
(427,0,l),
(598,0,l),
(598,500,l),
(414,500,l),
(414,250,l),
(408,250,l),
(218,500,l),
(48,500,l),
(48,0,l)
);
}
);
vertWidth = 0;
width = 644;
},
{
anchors = (
{
name = bottom;
pos = (281,0);
},
{
name = top;
pos = (303,490);
}
);
layerId = m004;
shapes = (
{
closed = 1;
nodes = (
(159,0,l),
(159,365,l),
(164,365,l),
(415,0,l),
(507,0,l),
(507,490,l),
(423,490,l),
(423,124,l),
(418,124,l),
(168,490,l),
(75,490,l),
(75,0,l)
);
}
);
vertWidth = 0;
width = 581;
}
);
unicode = 628;
},
{
color = 3;
glyphname = OEsmall;
kernLeft = Gsmall;
lastChange = "2026-03-16 19:16:11 +0000";
layers = (
{
background = {
shapes = (
{
pos = (-24,0);
ref = uniE01E;
},
{
pos = (357,0);
ref = Esmall;
}
);
};
layerId = "AE3FEF6D-3AA7-4252-B349-D2606A6A3B4C";
shapes = (
{
closed = 1;
nodes = (
(327,-5,o),
(400,36,o),
(435,122,c),
(435,0,l),
(720,0,l),
(720,25,l),
(462,25,l),
(462,228,l),
(701,228,l),
(701,255,l),
(462,255,l),
(462,458,l),
(720,458,l),
(720,483,l),
(435,483,l),
(435,360,l),
(400,446,o),
(327,487,o),
(243,487,cs),
(127,487,o),
(34,406,o),
(34,241,cs),
(34,76,o),
(127,-5,o),
(243,-5,cs)
);
},
{
closed = 1;
nodes = (
(139,21,o),
(64,90,o),
(64,240,cs),
(64,392,o),
(139,462,o),
(249,462,cs),
(359,462,o),
(435,392,o),
(435,240,cs),
(435,90,o),
(359,21,o),
(249,21,cs)
);
}
);
width = 754;
},
{
background = {
shapes = (
{
pos = (-76,0);
ref = uniE01E;
},
{
pos = (302,0);
ref = Esmall;
}
);
};
layerId = "3FD7D777-D61F-402B-A269-3A472D550581";
shapes = (
{
closed = 1;
nodes = (
(278,-15,o),
(314,-3,o),
(346,17,c),
(346,0,l),
(725,0,l),
(725,134,l),
(525,134,l),
(525,197,l),
(699,197,l),
(699,301,l),
(525,301,l),
(525,365,l),
(725,365,l),
(725,500,l),
(346,500,l),
(346,479,l),
(314,500,o),
(278,511,o),
(232,511,cs),
(100,511,o),
(18,410,o),
(18,248,cs),
(18,86,o),
(100,-15,o),
(232,-15,cs)
);
},
{
closed = 1;
nodes = (
(230,116,o),
(206,159,o),
(206,248,cs),
(206,337,o),
(230,381,o),
(278,381,cs),
(327,381,o),
(351,337,o),
(351,248,cs),
(351,159,o),
(327,116,o),
(278,116,cs)
);
}
);
width = 745;
},
{
background = {
shapes = (
{
pos = (-40,0);
ref = uniE01E;
},
{
pos = (322,0);
ref = Esmall;
}
);
};
layerId = m004;
shapes = (
{
closed = 1;
nodes = (
(302,-9,o),
(354,11,o),
(392,52,c),
(392,0,l),
(712,0,l),
(712,66,l),
(476,66,l),
(476,211,l),
(690,211,l),
(690,278,l),
(476,278,l),
(476,424,l),
(712,424,l),
(712,490,l),
(392,490,l),
(392,436,l),
(354,477,o),
(302,497,o),
(243,497,cs),
(121,497,o),
(31,408,o),
(31,244,cs),
(31,80,o),
(121,-9,o),
(243,-9,cs)
);
},
{
closed = 1;
nodes = (
(170,57,o),
(121,116,o),
(121,243,cs),
(121,372,o),
(170,432,o),
(256,432,cs),
(343,432,o),
(392,372,o),
(392,243,cs),
(392,116,o),
(343,57,o),
(256,57,cs)
);
}
);
width = 742;
}
);
metricLeft = Osmall;
metricRight = Esmall;
unicode = 630;
},
{
color = 3;
glyphname = Osmall;
kernLeft = Gsmall;
kernRight = o;
lastChange = "2026-03-20 02:26:13 +0000";
layers = (
{
anchors = (
{
name = "O-slash";
pos = (253,234);
},
{
name = bottom;
pos = (253,-5);
},
{
name = bottom.alt;
pos = (253,-5);
},
{
name = top;
pos = (253,489);
},
{
name = top.alt;
pos = (339,453);
}
);
layerId = "AE3FEF6D-3AA7-4252-B349-D2606A6A3B4C";
shapes = (
{
closed = 1;
nodes = (
(394,-5,o),
(471,98,o),
(471,242,cs),
(471,386,o),
(394,489,o),
(253,489,cs),
(112,489,o),
(34,386,o),
(34,242,cs),
(34,98,o),
(112,-5,o),
(253,-5,cs)
);
},
{
closed = 1;
nodes = (
(121,20,o),
(64,120,o),
(64,242,cs),
(64,363,o),
(121,463,o),
(253,463,cs),
(385,463,o),
(441,363,o),
(441,242,cs),
(441,121,o),
(385,20,o),
(253,20,cs)
);
}
);
vertWidth = 0;
width = 505;
},
{
anchors = (
{
name = "O-slash";
pos = (294,245);
},
{
name = bottom;
pos = (294,-10);
},
{
name = bottom.alt;
pos = (294,-10);
},
{
name = top;
pos = (294,510);
},
{
name = top.alt;
pos = (389,431);
}
);
layerId = "3FD7D777-D61F-402B-A269-3A472D550581";
shapes = (
{
closed = 1;
nodes = (
(479,-10,o),
(570,73,o),
(570,249,cs),
(570,425,o),
(479,510,o),
(294,510,cs),
(109,510,o),
(18,425,o),
(18,249,cs),
(18,73,o),
(109,-10,o),
(294,-10,cs)
);
},
{
closed = 1;
nodes = (
(235,122,o),
(206,162,o),
(206,249,cs),
(206,335,o),
(235,375,o),
(294,375,cs),
(353,375,o),
(382,335,o),
(382,249,cs),
(382,162,o),
(353,122,o),
(294,122,cs)
);
}
);
vertWidth = 0;
width = 586;
},
{
anchors = (
{
name = "O-slash";
pos = (272,239);
},
{
name = bottom;
pos = (271,-6);
},
{
name = bottom.alt;
pos = (272,-6);
},
{
name = top;
pos = (271,497);
},
{
name = top.alt;
pos = (361,445);
}
);
layerId = m004;
shapes = (
{
closed = 1;
nodes = (
(428,-6,o),
(511,89,o),
(511,245,cs),
(511,401,o),
(428,497,o),
(271,497,cs),
(113,497,o),
(31,401,o),
(31,245,cs),
(31,89,o),
(113,-6,o),
(271,-6,cs)
);
},
{
closed = 1;
nodes = (
(166,60,o),
(121,137,o),
(121,245,cs),
(121,352,o),
(166,429,o),
(271,429,cs),
(375,429,o),
(421,352,o),
(421,245,cs),
(421,138,o),
(375,60,o),
(271,60,cs)
);
}
);
vertWidth = 0;
width = 542;
}
);
unicode = 7439;
},
{
color = 3;
glyphname = Psmall;
kernLeft = Ismall;
kernRight = Psmall;
lastChange = "2026-03-16 18:32:07 +0000";
layers = (
{
anchors = (
{
name = bottom;
pos = (241,0);
},
{
name = top;
pos = (241,483);
}
);
layerId = "AE3FEF6D-3AA7-4252-B349-D2606A6A3B4C";
shapes = (
{
closed = 1;
nodes = (
(105,0,l),
(105,207,l),
(241,207,ls),
(348,207,o),
(415,250,o),
(415,345,cs),
(415,450,o),
(348,483,o),
(241,483,cs),
(78,483,l),
(78,0,l)
);
},
{
closed = 1;
nodes = (
(105,458,l),
(241,458,ls),
(338,458,o),
(385,432,o),
(385,345,cs),
(385,268,o),
(338,232,o),
(241,232,cs),
(105,232,l)
);
}
);
vertWidth = 0;
width = 429;
},
{
anchors = (
{
name = bottom;
pos = (279,0);
},
{
name = top;
pos = (279,500);
}
);
layerId = "3FD7D777-D61F-402B-A269-3A472D550581";
shapes = (
{
closed = 1;
nodes = (
(227,0,l),
(227,167,l),
(302,167,ls),
(444,167,o),
(525,228,o),
(525,333,cs),
(525,436,o),
(445,500,o),
(302,500,cs),
(43,500,l),
(43,0,l)
);
},
{
closed = 1;
nodes = (
(227,388,l),
(269,388,ls),
(316,388,o),
(337,373,o),
(337,335,cs),
(337,296,o),
(316,278,o),
(269,278,cs),
(227,278,l)
);
}
);
vertWidth = 0;
width = 540;
},
{
anchors = (
{
name = bottom;
pos = (262,0);
},
{
name = top;
pos = (262,490);
}
);
layerId = m004;
shapes = (
{
closed = 1;
nodes = (
(158,0,l),
(158,191,l),
(271,191,ls),
(391,191,o),
(463,242,o),
(463,341,cs),
(463,445,o),
(392,490,o),
(271,490,cs),
(74,490,l),
(74,0,l)
);
},
{
closed = 1;
nodes = (
(158,424,l),
(258,424,ls),
(337,424,o),
(373,404,o),
(373,341,cs),
(373,284,o),
(337,258,o),
(258,258,cs),
(158,258,l)
);
}
);
vertWidth = 0;
width = 480;
}
);
unicode = 7448;
},
{
color = 3;
glyphname = Rsmall;
lastChange = "2026-03-16 18:32:20 +0000";
layers = (
{
anchors = (
{
name = bottom;
pos = (241,0);
},
{
name = top;
pos = (241,483);
}
);
background = {
shapes = (
{
closed = 1;
nodes = (
(451,0,l),
(322,225,l),
(292,225,l),
(419,0,l)
);
},
{
ref = Psmall;
}
);
};
layerId = "AE3FEF6D-3AA7-4252-B349-D2606A6A3B4C";
shapes = (
{
closed = 1;
nodes = (
(451,0,l),
(326,219,l),
(381,237,o),
(415,278,o),
(415,345,cs),
(415,450,o),
(348,483,o),
(241,483,cs),
(78,483,l),
(78,0,l),
(105,0,l),
(105,207,l),
(241,207,ls),
(262,207,o),
(282,209,o),
(299,212,c),
(419,0,l)
);
},
{
closed = 1;
nodes = (
(105,458,l),
(241,458,ls),
(338,458,o),
(385,432,o),
(385,345,cs),
(385,268,o),
(338,232,o),
(241,232,cs),
(105,232,l)
);
}
);
vertWidth = 0;
width = 490;
},
{
anchors = (
{
name = bottom;
pos = (269,0);
},
{
name = top;
pos = (269,500);
}
);
background = {
shapes = (
{
ref = Psmall;
},
{
closed = 1;
nodes = (
(569,0,l),
(452,227,l),
(289,227,l),
(385,0,l)
);
}
);
};
layerId = "3FD7D777-D61F-402B-A269-3A472D550581";
shapes = (
{
closed = 1;
nodes = (
(569,0,l),
(462,207,l),
(504,236,o),
(525,278,o),
(525,333,cs),
(525,436,o),
(445,500,o),
(302,500,cs),
(43,500,l),
(43,0,l),
(227,0,l),
(227,167,l),
(302,167,ls),
(306,167,o),
(311,167,o),
(314,167,c),
(385,0,l)
);
},
{
closed = 1;
nodes = (
(227,388,l),
(269,388,ls),
(316,388,o),
(337,373,o),
(337,335,cs),
(337,296,o),
(316,278,o),
(269,278,cs),
(227,278,l)
);
}
);
vertWidth = 0;
width = 568;
},
{
anchors = (
{
name = bottom;
pos = (259,0);
},
{
name = top;
pos = (259,490);
}
);
background = {
shapes = (
{
closed = 1;
nodes = (
(503,0,l),
(375,226,l),
(294,226,l),
(414,0,l)
);
},
{
ref = Psmall;
}
);
};
layerId = m004;
shapes = (
{
closed = 1;
nodes = (
(503,0,l),
(383,212,l),
(435,236,o),
(463,279,o),
(463,341,cs),
(463,445,o),
(392,490,o),
(271,490,cs),
(74,490,l),
(74,0,l),
(158,0,l),
(158,191,l),
(271,191,ls),
(285,191,o),
(299,192,o),
(311,193,c),
(414,0,l)
);
},
{
closed = 1;
nodes = (
(158,424,l),
(258,424,ls),
(337,424,o),
(373,404,o),
(373,341,cs),
(373,284,o),
(337,258,o),
(258,258,cs),
(158,258,l)
);
}
);
vertWidth = 0;
width = 522;
}
);
metricLeft = Psmall;
unicode = 640;
},
{
color = 3;
glyphname = Ssmall;
kernLeft = Ssmall;
lastChange = "2026-02-28 20:03:52 +0000";
layers = (
{
anchors = (
{
name = bottom;
pos = (209,-5);
},
{
name = top;
pos = (200,489);
}
);
layerId = "AE3FEF6D-3AA7-4252-B349-D2606A6A3B4C";
shapes = (
{
closed = 1;
nodes = (
(299,-5,o),
(375,38,o),
(375,120,cs),
(375,205,o),
(310,232,o),
(212,260,cs),
(120,286,o),
(76,306,o),
(76,368,cs),
(76,434,o),
(125,464,o),
(199,464,cs),
(273,464,o),
(333,428,o),
(333,356,c),
(364,356,l),
(364,437,o),
(285,489,o),
(200,489,cs),
(112,489,o),
(46,441,o),
(46,367,cs),
(46,285,o),
(116,257,o),
(203,231,cs),
(302,202,o),
(345,187,o),
(345,118,cs),
(345,47,o),
(285,21,o),
(209,21,cs),
(132,21,o),
(64,52,o),
(64,127,c),
(36,127,l),
(36,41,o),
(121,-5,o),
(209,-5,cs)
);
}
);
vertWidth = 0;
width = 409;
},
{
anchors = (
{
name = bottom;
pos = (260,-10);
},
{
name = top;
pos = (269,510);
}
);
layerId = "3FD7D777-D61F-402B-A269-3A472D550581";
shapes = (
{
closed = 1;
nodes = (
(411,-10,o),
(510,51,o),
(510,152,cs),
(510,232,o),
(447,265,o),
(302,300,cs),
(233,317,o),
(215,327,o),
(215,345,cs),
(215,366,o),
(234,379,o),
(267,379,cs),
(307,379,o),
(326,361,o),
(326,335,c),
(503,335,l),
(503,440,o),
(415,510,o),
(268,510,cs),
(128,510,o),
(34,447,o),
(34,346,cs),
(34,264,o),
(95,225,o),
(258,187,cs),
(310,174,o),
(328,166,o),
(328,150,cs),
(328,131,o),
(304,120,o),
(267,120,cs),
(218,120,o),
(198,138,o),
(198,167,c),
(21,167,l),
(21,53,o),
(106,-10,o),
(260,-10,cs)
);
}
);
vertWidth = 0;
width = 528;
},
{
anchors = (
{
name = bottom;
pos = (232,-6);
},
{
name = top;
pos = (229,497);
}
);
layerId = m004;
shapes = (
{
closed = 1;
nodes = (
(349,-6,o),
(429,46,o),
(429,135,cs),
(429,211,o),
(374,246,o),
(250,281,cs),
(159,306,o),
(132,324,o),
(132,362,cs),
(132,407,o),
(169,432,o),
(228,432,cs),
(293,432,o),
(334,402,o),
(334,349,c),
(420,349,l),
(420,438,o),
(340,497,o),
(229,497,cs),
(120,497,o),
(45,443,o),
(45,358,cs),
(45,284,o),
(102,245,o),
(234,206,cs),
(318,182,o),
(342,168,o),
(342,130,cs),
(342,82,o),
(300,59,o),
(234,59,cs),
(163,59,o),
(118,87,o),
(118,144,c),
(34,144,l),
(34,50,o),
(114,-6,o),
(233,-6,cs)
);
}
);
vertWidth = 0;
width = 460;
}
);
unicode = 42801;
},
{
color = 3;
glyphname = Tsmall;
kernLeft = Tsmall;
kernRight = Tsmall;
lastChange = "2026-03-16 18:32:52 +0000";
layers = (
{
anchors = (
{
name = "T-bar";
pos = (233,314);
},
{
name = bottom;
pos = (234,0);
},
{
name = top;
pos = (234,483);
}
);
layerId = "AE3FEF6D-3AA7-4252-B349-D2606A6A3B4C";
shapes = (
{
closed = 1;
nodes = (
(246,0,l),
(246,456,l),
(432,456,l),
(432,483,l),
(34,483,l),
(34,456,l),
(219,456,l),
(219,0,l)
);
}
);
vertWidth = 0;
width = 466;
},
{
anchors = (
{
name = "T-bar";
pos = (270,270);
},
{
name = bottom;
pos = (270,0);
},
{
name = top;
pos = (270,500);
}
);
layerId = "3FD7D777-D61F-402B-A269-3A472D550581";
shapes = (
{
closed = 1;
nodes = (
(362,0,l),
(362,356,l),
(522,356,l),
(522,500,l),
(20,500,l),
(20,356,l),
(178,356,l),
(178,0,l)
);
}
);
vertWidth = 0;
width = 542;
},
{
anchors = (
{
name = "T-bar";
pos = (251,298);
},
{
name = bottom;
pos = (251,0);
},
{
name = top;
pos = (251,490);
}
);
layerId = m004;
shapes = (
{
closed = 1;
nodes = (
(293,0,l),
(293,419,l),
(470,419,l),
(470,490,l),
(33,490,l),
(33,419,l),
(209,419,l),
(209,0,l)
);
}
);
vertWidth = 0;
width = 501;
}
);
unicode = 7451;
},
{
color = 3;
glyphname = Usmall;
kernLeft = Ismall;
lastChange = "2026-03-16 18:33:05 +0000";
layers = (
{
anchors = (
{
name = bottom;
pos = (232,-5);
},
{
name = bottom.alt;
pos = (232,-5);
},
{
name = top;
pos = (232,483);
},
{
name = top.alt;
pos = (395,461);
}
);
layerId = "AE3FEF6D-3AA7-4252-B349-D2606A6A3B4C";
shapes = (
{
closed = 1;
nodes = (
(342,-5,o),
(410,62,o),
(410,167,cs),
(410,483,l),
(383,483,l),
(383,167,ls),
(383,77,o),
(324,19,o),
(232,19,cs),
(140,19,o),
(80,77,o),
(80,167,cs),
(80,483,l),
(53,483,l),
(53,167,ls),
(53,61,o),
(121,-5,o),
(232,-5,cs)
);
}
);
vertWidth = 0;
width = 461;
},
{
anchors = (
{
name = bottom;
pos = (292,-10);
},
{
name = bottom.alt;
pos = (292,-6);
},
{
name = top;
pos = (291,499);
},
{
name = top.alt;
pos = (492,415);
}
);
layerId = "3FD7D777-D61F-402B-A269-3A472D550581";
shapes = (
{
closed = 1;
nodes = (
(460,-10,o),
(560,64,o),
(560,202,cs),
(560,500,l),
(376,500,l),
(376,209,ls),
(376,152,o),
(349,124,o),
(292,124,cs),
(235,124,o),
(207,151,o),
(207,209,cs),
(207,500,l),
(23,500,l),
(23,202,ls),
(23,64,o),
(123,-10,o),
(292,-10,cs)
);
}
);
vertWidth = 0;
width = 582;
},
{
anchors = (
{
name = bottom;
pos = (259,-6);
},
{
name = bottom.alt;
pos = (259,-5);
},
{
name = top;
pos = (259,489);
},
{
name = top.alt;
pos = (429,444);
}
);
layerId = m004;
shapes = (
{
closed = 1;
nodes = (
(391,-6,o),
(469,63,o),
(469,181,cs),
(469,490,l),
(385,490,l),
(385,183,ls),
(385,106,o),
(338,60,o),
(259,60,cs),
(181,60,o),
(133,105,o),
(133,183,cs),
(133,490,l),
(49,490,l),
(49,181,ls),
(49,63,o),
(126,-6,o),
(259,-6,cs)
);
}
);
vertWidth = 0;
width = 516;
}
);
unicode = 7452;
},
{
color = 3;
glyphname = Vsmall;
kernLeft = Vsmall;
kernRight = v;
lastChange = "2026-03-08 21:56:45 +0000";
layers = (
{
anchors = (
{
name = bottom;
pos = (200,0);
},
{
name = top;
pos = (200,483);
}
);
layerId = "AE3FEF6D-3AA7-4252-B349-D2606A6A3B4C";
shapes = (
{
closed = 1;
nodes = (
(221,0,l),
(400,483,l),
(369,483,l),
(202,19,l),
(197,19,l),
(30,483,l),
(-1,483,l),
(178,0,l)
);
}
);
vertWidth = 0;
width = 399;
},
{
anchors = (
{
name = bottom;
pos = (260,0);
},
{
name = top;
pos = (260,500);
}
);
layerId = "3FD7D777-D61F-402B-A269-3A472D550581";
shapes = (
{
closed = 1;
nodes = (
(369,0,l),
(539,500,l),
(346,500,l),
(264,195,l),
(260,195,l),
(175,500,l),
(-18,500,l),
(156,0,l)
);
}
);
vertWidth = 0;
width = 540;
},
{
anchors = (
{
name = bottom;
pos = (223,0);
},
{
name = top;
pos = (223,489);
}
);
layerId = m004;
shapes = (
{
closed = 1;
nodes = (
(277,0,l),
(452,489,l),
(360,489,l),
(225,85,l),
(221,85,l),
(84,489,l),
(-7,489,l),
(170,0,l)
);
}
);
vertWidth = 0;
width = 445;
}
);
unicode = 7456;
},
{
color = 3;
glyphname = Wsmall;
kernLeft = Vsmall;
lastChange = "2026-02-28 20:03:52 +0000";
layers = (
{
anchors = (
{
name = bottom;
pos = (336,0);
},
{
name = top;
pos = (336,483);
}
);
layerId = "AE3FEF6D-3AA7-4252-B349-D2606A6A3B4C";
shapes = (
{
closed = 1;
nodes = (
(208,0,l),
(333,466,l),
(338,466,l),
(461,0,l),
(518,0,l),
(663,483,l),
(632,483,l),
(491,14,l),
(486,14,l),
(362,483,l),
(310,483,l),
(185,14,l),
(180,14,l),
(39,483,l),
(9,483,l),
(154,0,l)
);
}
);
vertWidth = 0;
width = 672;
},
{
anchors = (
{
name = bottom;
pos = (390,0);
},
{
name = top;
pos = (390,500);
}
);
layerId = "3FD7D777-D61F-402B-A269-3A472D550581";
shapes = (
{
closed = 1;
nodes = (
(306,0,l),
(387,247,l),
(392,247,l),
(473,0,l),
(654,0,l),
(789,500,l),
(613,500,l),
(548,213,l),
(543,213,l),
(458,500,l),
(322,500,l),
(237,213,l),
(233,213,l),
(166,500,l),
(-9,500,l),
(116,0,l)
);
}
);
vertWidth = 0;
width = 779;
},
{
anchors = (
{
name = bottom;
pos = (356,0);
},
{
name = top;
pos = (356,490);
}
);
layerId = m004;
shapes = (
{
closed = 1;
nodes = (
(245,0,l),
(353,384,l),
(358,384,l),
(466,0,l),
(569,0,l),
(710,490,l),
(625,490,l),
(513,89,l),
(508,89,l),
(398,490,l),
(315,490,l),
(205,89,l),
(200,89,l),
(87,490,l),
(2,490,l),
(140,0,l)
);
}
);
vertWidth = 0;
width = 713;
}
);
unicode = 7457;
},
{
color = 3;
glyphname = Ysmall;
kernLeft = Ysmall;
kernRight = Ysmall;
lastChange = "2026-03-16 18:33:17 +0000";
layers = (
{
anchors = (
{
name = bottom;
pos = (197,0);
},
{
name = top;
pos = (197,483);
}
);
layerId = "AE3FEF6D-3AA7-4252-B349-D2606A6A3B4C";
shapes = (
{
closed = 1;
nodes = (
(209,0,l),
(209,208,l),
(400,483,l),
(368,483,l),
(196,236,l),
(25,483,l),
(-8,483,l),
(182,208,l),
(182,0,l)
);
}
);
vertWidth = 0;
width = 393;
},
{
anchors = (
{
name = bottom;
pos = (290,0);
},
{
name = top;
pos = (290,500);
}
);
layerId = "3FD7D777-D61F-402B-A269-3A472D550581";
shapes = (
{
closed = 1;
nodes = (
(384,0,l),
(384,214,l),
(599,500,l),
(381,500,l),
(291,351,l),
(201,500,l),
(-18,500,l),
(200,214,l),
(200,0,l)
);
}
);
vertWidth = 0;
width = 581;
},
{
anchors = (
{
name = bottom;
pos = (234,0);
},
{
name = top;
pos = (234,490);
}
);
layerId = m004;
shapes = (
{
closed = 1;
nodes = (
(275,0,l),
(275,210,l),
(477,490,l),
(375,490,l),
(234,285,l),
(93,490,l),
(-10,490,l),
(191,210,l),
(191,0,l)
);
}
);
vertWidth = 0;
width = 467;
}
);
unicode = 655;
},
{
color = 3;
glyphname = Zsmall;
lastChange = "2026-02-28 20:03:52 +0000";
layers = (
{
anchors = (
{
name = bottom;
pos = (226,0);
},
{
name = top;
pos = (226,483);
}
);
layerId = "AE3FEF6D-3AA7-4252-B349-D2606A6A3B4C";
shapes = (
{
closed = 1;
nodes = (
(411,0,l),
(411,25,l),
(65,25,l),
(411,445,l),
(411,483,l),
(41,483,l),
(41,459,l),
(386,459,l),
(41,39,l),
(41,0,l)
);
}
);
vertWidth = 0;
width = 452;
},
{
anchors = (
{
name = bottom;
pos = (269,0);
},
{
name = top;
pos = (269,500);
}
);
layerId = "3FD7D777-D61F-402B-A269-3A472D550581";
shapes = (
{
closed = 1;
nodes = (
(501,0,l),
(501,143,l),
(264,143,l),
(501,396,l),
(501,500,l),
(33,500,l),
(33,356,l),
(269,356,l),
(33,104,l),
(33,0,l)
);
}
);
vertWidth = 0;
width = 538;
},
{
anchors = (
{
name = bottom;
pos = (247,0);
},
{
name = top;
pos = (247,490);
}
);
layerId = m004;
shapes = (
{
closed = 1;
nodes = (
(449,0,l),
(449,66,l),
(142,66,l),
(449,427,l),
(449,490,l),
(43,490,l),
(43,424,l),
(350,424,l),
(43,64,l),
(43,0,l)
);
}
);
vertWidth = 0;
width = 493;
}
);
unicode = 7458;
},
{
color = 3;
glyphname = a;
kernLeft = a;
lastChange = "2026-03-16 19:25:14 +0000";
layers = (
{
anchors = (
{
name = bottom;
pos = (258,-5);
},
{
name = bottom.alt;
pos = (406,5);
},
{
name = top;
pos = (243,488);
}
);
background = {
shapes = (
{
pos = (6,0);
ref = uniE00B;
},
{
closed = 1;
nodes = (
(420,0,l),
(420,359,ls),
(420,438,o),
(342,488,o),
(244,488,cs),
(146,488,o),
(67,438,o),
(67,359,c),
(96,359,l),
(96,421,o),
(162,462,o),
(243,462,cs),
(325,462,o),
(393,421,o),
(393,359,cs),
(393,0,l)
);
}
);
};
layerId = "AE3FEF6D-3AA7-4252-B349-D2606A6A3B4C";
shapes = (
{
closed = 1;
nodes = (
(289,-5,o),
(362,44,o),
(390,111,c),
(393,111,l),
(393,0,l),
(420,0,l),
(420,359,ls),
(420,438,o),
(341,488,o),
(243,488,cs),
(145,488,o),
(67,438,o),
(67,359,c),
(96,359,l),
(96,421,o),
(161,462,o),
(242,462,cs),
(324,462,o),
(393,421,o),
(393,359,cs),
(393,276,l),
(230,268,ls),
(119,263,o),
(58,211,o),
(58,124,cs),
(58,39,o),
(115,-5,o),
(200,-5,cs)
);
},
{
closed = 1;
nodes = (
(86,196,o),
(138,238,o),
(236,243,cs),
(393,250,l),
(393,180,ls),
(393,105,o),
(313,21,o),
(202,21,cs),
(134,21,o),
(86,53,o),
(86,123,cs)
);
}
);
vertWidth = 0;
width = 494;
},
{
anchors = (
{
name = bottom;
pos = (286,-6);
},
{
name = bottom.alt;
pos = (427,-1);
},
{
name = top;
pos = (267,510);
}
);
background = {
shapes = (
{
pos = (13,0);
ref = uniE00B;
},
{
closed = 1;
nodes = (
(510,0,l),
(510,328,ls),
(510,441,o),
(410,510,o),
(267,510,cs),
(126,510,o),
(24,442,o),
(33,328,c),
(193,328,l),
(193,361,o),
(226,379,o),
(260,379,cs),
(293,379,o),
(326,361,o),
(326,328,cs),
(326,0,l)
);
}
);
};
layerId = "3FD7D777-D61F-402B-A269-3A472D550581";
shapes = (
{
closed = 1;
nodes = (
(259,-10,o),
(302,22,o),
(318,80,c),
(326,80,l),
(326,0,l),
(510,0,l),
(510,328,ls),
(510,441,o),
(410,510,o),
(267,510,cs),
(126,510,o),
(24,442,o),
(33,328,c),
(193,328,l),
(193,361,o),
(226,379,o),
(260,379,cs),
(293,379,o),
(326,361,o),
(326,328,cs),
(326,301,l),
(245,298,ls),
(110,294,o),
(20,248,o),
(20,133,cs),
(20,35,o),
(85,-10,o),
(177,-10,cs)
);
},
{
closed = 1;
nodes = (
(208,171,o),
(226,186,o),
(267,188,cs),
(326,190,l),
(326,170,ls),
(326,140,o),
(303,116,o),
(257,116,cs),
(226,116,o),
(208,127,o),
(208,150,cs)
);
}
);
vertWidth = 0;
width = 539;
},
{
associatedMasterId = "AE3FEF6D-3AA7-4252-B349-D2606A6A3B4C";
layerId = "BA32C98D-1F8A-42D1-AC7F-B4136B9691E2";
width = 600;
},
{
anchors = (
{
name = bottom;
pos = (269,-5);
},
{
name = bottom.alt;
pos = (414,3);
},
{
name = top;
pos = (256,496);
}
);
background = {
shapes = (
{
pos = (9,0);
ref = uniE00B;
},
{
closed = 1;
nodes = (
(452,0,l),
(452,348,ls),
(452,440,o),
(371,496,o),
(256,496,cs),
(142,496,o),
(56,440,o),
(60,348,c),
(138,348,l),
(138,399,o),
(189,431,o),
(253,431,cs),
(316,431,o),
(368,399,o),
(368,348,cs),
(368,0,l)
);
}
);
};
layerId = m004;
shapes = (
{
closed = 1;
nodes = (
(279,-6,o),
(338,29,o),
(364,72,c),
(368,72,l),
(368,0,l),
(452,0,l),
(452,348,ls),
(452,440,o),
(371,496,o),
(256,496,cs),
(142,496,o),
(56,440,o),
(60,348,c),
(138,348,l),
(138,399,o),
(189,431,o),
(253,431,cs),
(316,431,o),
(368,399,o),
(368,348,cs),
(368,285,l),
(236,279,ls),
(118,275,o),
(50,225,o),
(50,129,cs),
(50,38,o),
(109,-6,o),
(194,-6,cs)
);
},
{
closed = 1;
nodes = (
(140,187,o),
(176,220,o),
(252,223,cs),
(368,228,l),
(368,176,ls),
(368,118,o),
(316,57,o),
(228,57,cs),
(173,57,o),
(140,81,o),
(140,134,cs)
);
}
);
vertWidth = 0;
width = 518;
},
{
associatedMasterId = m004;
layerId = "C0A76FF7-EE83-4965-A72E-D196649FDBF6";
width = 600;
}
);
metricRight = h;
unicode = 97;
},
{
glyphname = aa;
lastChange = "2026-03-16 19:25:53 +0000";
layers = (
{
background = {
shapes = (
{
closed = 1;
nodes = (
(420,162,l),
(420,359,ls),
(420,438,o),
(342,488,o),
(244,488,cs),
(146,488,o),
(67,438,o),
(67,359,c),
(96,359,l),
(96,421,o),
(162,462,o),
(243,462,cs),
(325,462,o),
(393,421,o),
(393,359,cs),
(393,132,l),
(409,132,l)
);
},
{
pos = (6,0);
ref = uniE00B;
},
{
pos = (339,0);
ref = uniE00B;
},
{
closed = 1;
nodes = (
(753,0,l),
(753,359,ls),
(753,438,o),
(670,488,o),
(572,488,cs),
(475,488,o),
(393,438,o),
(393,359,c),
(420,359,l),
(420,421,o),
(491,462,o),
(571,462,cs),
(653,462,o),
(726,421,o),
(726,359,cs),
(726,0,l)
);
}
);
};
layerId = "AE3FEF6D-3AA7-4252-B349-D2606A6A3B4C";
shapes = (
{
closed = 1;
nodes = (
(289,-5,o),
(362,44,o),
(390,111,c),
(393,111,l),
(399,34,o),
(452,-5,o),
(533,-5,cs),
(622,-5,o),
(695,44,o),
(723,111,c),
(726,111,l),
(726,0,l),
(753,0,l),
(753,359,ls),
(753,438,o),
(670,488,o),
(572,488,cs),
(499,488,o),
(436,461,o),
(407,413,c),
(380,460,o),
(317,488,o),
(244,488,cs),
(146,488,o),
(67,438,o),
(67,359,c),
(96,359,l),
(96,421,o),
(162,462,o),
(243,462,cs),
(325,462,o),
(393,421,o),
(393,359,cs),
(393,276,l),
(230,268,ls),
(119,263,o),
(58,211,o),
(58,124,cs),
(58,39,o),
(115,-5,o),
(200,-5,cs)
);
},
{
closed = 1;
nodes = (
(86,196,o),
(138,238,o),
(236,243,cs),
(393,250,l),
(393,180,ls),
(393,105,o),
(313,21,o),
(202,21,cs),
(134,21,o),
(86,53,o),
(86,123,cs)
);
},
{
closed = 1;
nodes = (
(419,196,o),
(471,238,o),
(569,243,cs),
(726,250,l),
(726,180,ls),
(726,105,o),
(646,21,o),
(535,21,cs),
(467,21,o),
(419,53,o),
(419,123,cs)
);
},
{
closed = 1;
nodes = (
(420,359,ls),
(420,421,o),
(491,462,o),
(571,462,cs),
(653,462,o),
(726,421,o),
(726,359,cs),
(726,276,l),
(563,268,ls),
(496,265,o),
(449,246,o),
(420,211,c)
);
}
);
vertWidth = 0;
width = 827;
},
{
background = {
shapes = (
{
pos = (13,0);
ref = uniE00B;
},
{
pos = (324,0);
ref = uniE00B;
},
{
closed = 1;
nodes = (
(510,80,l),
(510,328,ls),
(510,441,o),
(410,510,o),
(267,510,cs),
(126,510,o),
(24,442,o),
(33,328,c),
(193,328,l),
(193,361,o),
(226,379,o),
(260,379,cs),
(293,379,o),
(326,361,o),
(326,328,cs),
(326,80,l)
);
},
{
closed = 1;
nodes = (
(821,0,l),
(821,328,ls),
(821,441,o),
(744,510,o),
(611,510,cs),
(480,510,o),
(401,442,o),
(410,328,c),
(510,328,l),
(510,361,o),
(540,379,o),
(574,379,cs),
(607,379,o),
(637,361,o),
(637,328,cs),
(637,0,l)
);
}
);
};
layerId = "3FD7D777-D61F-402B-A269-3A472D550581";
shapes = (
{
closed = 1;
nodes = (
(259,-10,o),
(302,22,o),
(318,80,c),
(339,80,l),
(359,18,o),
(415,-10,o),
(488,-10,cs),
(570,-10,o),
(613,22,o),
(629,80,c),
(637,80,l),
(637,0,l),
(821,0,l),
(821,328,ls),
(821,441,o),
(744,510,o),
(611,510,cs),
(541,510,o),
(486,491,o),
(451,455,c),
(407,491,o),
(343,510,o),
(267,510,cs),
(126,510,o),
(24,442,o),
(33,328,c),
(193,328,l),
(193,361,o),
(226,379,o),
(260,379,cs),
(293,379,o),
(326,361,o),
(326,328,cs),
(326,301,l),
(245,298,ls),
(110,294,o),
(20,248,o),
(20,133,cs),
(20,35,o),
(85,-10,o),
(177,-10,cs)
);
},
{
closed = 1;
nodes = (
(208,171,o),
(226,186,o),
(267,188,cs),
(326,190,l),
(326,170,ls),
(326,140,o),
(303,116,o),
(257,116,cs),
(226,116,o),
(208,127,o),
(208,150,cs)
);
},
{
closed = 1;
nodes = (
(519,171,o),
(537,186,o),
(578,188,cs),
(637,190,l),
(637,170,ls),
(637,140,o),
(614,116,o),
(568,116,cs),
(537,116,o),
(519,127,o),
(519,150,cs)
);
},
{
closed = 1;
nodes = (
(510,328,ls),
(510,361,o),
(540,379,o),
(574,379,cs),
(607,379,o),
(637,361,o),
(637,328,cs),
(637,301,l),
(556,298,ls),
(541,298,o),
(525,297,o),
(510,295,c)
);
}
);
vertWidth = 0;
width = 850;
},
{
background = {
shapes = (
{
closed = 1;
nodes = (
(452,105,l),
(452,348,ls),
(452,440,o),
(371,496,o),
(256,496,cs),
(142,496,o),
(56,440,o),
(60,348,c),
(138,348,l),
(138,399,o),
(189,431,o),
(253,431,cs),
(316,431,o),
(368,399,o),
(368,349,cs),
(368,72,l),
(399,72,l)
);
},
{
pos = (9,0);
ref = uniE00B;
},
{
pos = (327,0);
ref = uniE00B;
},
{
closed = 1;
nodes = (
(770,0,l),
(770,349,ls),
(770,440,o),
(694,497,o),
(583,497,cs),
(472,497,o),
(402,440,o),
(405,348,c),
(452,348,l),
(452,399,o),
(506,432,o),
(568,432,cs),
(630,432,o),
(686,399,o),
(686,349,cs),
(686,0,l)
);
}
);
};
layerId = m004;
shapes = (
{
closed = 1;
nodes = (
(279,-6,o),
(338,29,o),
(364,72,c),
(378,72,l),
(398,19,o),
(447,-6,o),
(512,-6,cs),
(597,-6,o),
(656,29,o),
(682,72,c),
(686,72,l),
(686,0,l),
(770,0,l),
(770,349,ls),
(770,440,o),
(694,497,o),
(583,497,cs),
(510,497,o),
(454,472,o),
(426,429,c),
(394,471,o),
(332,496,o),
(256,496,cs),
(142,496,o),
(56,440,o),
(60,348,c),
(138,348,l),
(138,399,o),
(189,431,o),
(253,431,cs),
(316,431,o),
(368,399,o),
(368,349,cs),
(368,285,l),
(236,279,ls),
(118,275,o),
(50,225,o),
(50,129,cs),
(50,38,o),
(109,-6,o),
(194,-6,cs)
);
},
{
closed = 1;
nodes = (
(140,187,o),
(176,220,o),
(252,223,cs),
(368,227,l),
(368,176,ls),
(368,118,o),
(316,57,o),
(228,57,cs),
(173,57,o),
(140,81,o),
(140,134,cs)
);
},
{
closed = 1;
nodes = (
(458,187,o),
(494,220,o),
(570,223,cs),
(686,227,l),
(686,176,ls),
(686,118,o),
(634,57,o),
(546,57,cs),
(491,57,o),
(458,81,o),
(458,134,cs)
);
},
{
closed = 1;
nodes = (
(452,348,ls),
(452,399,o),
(506,432,o),
(568,432,cs),
(630,432,o),
(686,399,o),
(686,349,cs),
(686,285,l),
(554,279,ls),
(515,278,o),
(480,271,o),
(452,259,c)
);
}
);
vertWidth = 0;
width = 836;
}
);
metricLeft = a;
metricRight = a;
unicode = 42803;
},
{
glyphname = ao;
kernRight = o;
lastChange = "2026-03-16 19:25:53 +0000";
layers = (
{
background = {
shapes = (
{
pos = (348,0);
ref = o;
},
{
closed = 1;
nodes = (
(422,261,l),
(422,359,ls),
(422,438,o),
(343,488,o),
(245,488,cs),
(147,488,o),
(67,438,o),
(67,359,c),
(96,359,l),
(96,421,o),
(163,462,o),
(244,462,cs),
(326,462,o),
(393,421,o),
(393,359,cs),
(393,261,l)
);
},
{
closed = 1;
nodes = (
(292,-5,o),
(364,35,o),
(431,127,c),
(414,143,l),
(337,53,o),
(281,21,o),
(211,21,cs),
(134,21,o),
(88,60,o),
(88,122,cs),
(88,184,o),
(133,220,o),
(224,231,cs),
(410,254,l),
(410,280,l),
(221,257,ls),
(114,244,o),
(58,198,o),
(58,122,cs),
(58,44,o),
(117,-5,o),
(209,-5,cs)
);
}
);
};
layerId = "AE3FEF6D-3AA7-4252-B349-D2606A6A3B4C";
shapes = (
{
closed = 1;
nodes = (
(737,-4,o),
(823,94,o),
(823,243,cs),
(823,390,o),
(737,487,o),
(612,487,cs),
(524,487,o),
(460,438,o),
(424,370,c),
(420,370,l),
(407,437,o),
(334,488,o),
(240,488,cs),
(147,488,o),
(67,438,o),
(67,359,c),
(96,359,l),
(96,421,o),
(163,462,o),
(244,462,cs),
(326,462,o),
(393,416,o),
(393,354,cs),
(393,278,l),
(221,257,ls),
(114,244,o),
(58,198,o),
(58,122,cs),
(58,44,o),
(117,-5,o),
(209,-5,cs),
(287,-5,o),
(356,31,o),
(420,112,c),
(455,39,o),
(521,-4,o),
(607,-4,cs)
);
},
{
closed = 1;
nodes = (
(495,21,o),
(422,109,o),
(422,243,cs),
(422,376,o),
(495,462,o),
(607,462,cs),
(720,462,o),
(793,376,o),
(793,243,cs),
(793,109,o),
(720,21,o),
(607,21,cs)
);
},
{
closed = 1;
nodes = (
(88,184,o),
(133,220,o),
(224,231,cs),
(392,252,l),
(392,204,o),
(398,168,o),
(409,137,c),
(335,52,o),
(279,21,o),
(211,21,cs),
(134,21,o),
(88,60,o),
(88,122,cs)
);
}
);
vertWidth = 0;
width = 867;
},
{
background = {
shapes = (
{
pos = (292,0);
ref = o;
},
{
closed = 1;
nodes = (
(490,236,l),
(490,330,ls),
(490,443,o),
(391,510,o),
(259,510,cs),
(118,510,o),
(24,442,o),
(33,328,c),
(193,328,l),
(193,361,o),
(218,379,o),
(252,379,cs),
(285,379,o),
(310,361,o),
(310,328,cs),
(310,236,l)
);
},
{
closed = 1;
nodes = (
(255,-15,o),
(327,19,o),
(379,80,c),
(336,153,l),
(300,125,o),
(272,116,o),
(244,116,cs),
(211,116,o),
(193,127,o),
(193,149,cs),
(193,171,o),
(211,186,o),
(252,188,cs),
(385,193,l),
(385,303,l),
(230,298,ls),
(96,294,o),
(20,248,o),
(20,134,cs),
(20,30,o),
(83,-15,o),
(165,-15,cs)
);
}
);
};
layerId = "3FD7D777-D61F-402B-A269-3A472D550581";
shapes = (
{
closed = 1;
nodes = (
(730,-10,o),
(830,88,o),
(830,250,cs),
(830,412,o),
(730,510,o),
(582,510,cs),
(510,510,o),
(460,487,o),
(418,451,c),
(413,451,l),
(373,487,o),
(319,510,o),
(245,510,cs),
(118,510,o),
(24,442,o),
(33,328,c),
(193,328,l),
(193,361,o),
(218,379,o),
(252,379,cs),
(285,379,o),
(310,361,o),
(310,328,cs),
(310,301,l),
(230,298,ls),
(96,294,o),
(20,248,o),
(20,134,cs),
(20,30,o),
(83,-15,o),
(165,-15,cs),
(250,-15,o),
(319,16,o),
(370,70,c),
(415,19,o),
(484,-10,o),
(570,-10,cs)
);
},
{
closed = 1;
nodes = (
(522,118,o),
(498,161,o),
(498,250,cs),
(498,339,o),
(522,382,o),
(570,382,cs),
(618,382,o),
(642,339,o),
(642,250,cs),
(642,161,o),
(618,118,o),
(570,118,cs)
);
},
{
closed = 1;
nodes = (
(193,171,o),
(211,186,o),
(252,188,cs),
(315,190,l),
(318,174,o),
(321,161,o),
(326,146,c),
(294,123,o),
(269,116,o),
(244,116,cs),
(211,116,o),
(193,127,o),
(193,149,cs)
);
}
);
vertWidth = 0;
width = 848;
},
{
background = {
shapes = (
{
pos = (330,0);
ref = o;
},
{
closed = 1;
nodes = (
(451,245,l),
(451,349,ls),
(451,440,o),
(363,496,o),
(256,496,cs),
(142,496,o),
(56,440,o),
(60,348,c),
(138,348,l),
(138,399,o),
(189,431,o),
(253,431,cs),
(315,431,o),
(368,399,o),
(368,349,cs),
(368,245,l)
);
},
{
closed = 1;
nodes = (
(284,-9,o),
(356,29,o),
(414,105,c),
(387,143,l),
(328,79,o),
(283,57,o),
(229,57,cs),
(169,57,o),
(133,86,o),
(133,133,cs),
(133,180,o),
(169,208,o),
(241,215,cs),
(419,233,l),
(419,291,l),
(230,273,ls),
(113,263,o),
(50,217,o),
(50,127,cs),
(50,39,o),
(110,-9,o),
(199,-9,cs)
);
}
);
};
layerId = m004;
shapes = (
{
closed = 1;
nodes = (
(742,-6,o),
(833,91,o),
(833,245,cs),
(833,398,o),
(742,496,o),
(609,496,cs),
(528,496,o),
(469,460,o),
(429,397,c),
(425,397,l),
(392,461,o),
(328,496,o),
(246,496,cs),
(142,496,o),
(56,440,o),
(60,348,c),
(138,348,l),
(138,399,o),
(189,431,o),
(253,431,cs),
(315,431,o),
(368,399,o),
(368,349,cs),
(368,286,l),
(230,273,ls),
(113,263,o),
(50,217,o),
(50,127,cs),
(50,39,o),
(110,-9,o),
(199,-9,cs),
(280,-9,o),
(349,25,o),
(406,95,c),
(446,30,o),
(513,-6,o),
(600,-6,cs)
);
},
{
closed = 1;
nodes = (
(512,58,o),
(458,128,o),
(458,245,cs),
(458,362,o),
(512,432,o),
(600,432,cs),
(689,432,o),
(743,362,o),
(743,245,cs),
(743,128,o),
(689,58,o),
(600,58,cs)
);
},
{
closed = 1;
nodes = (
(133,180,o),
(169,208,o),
(241,215,cs),
(368,228,l),
(370,195,o),
(376,166,o),
(385,140,c),
(327,78,o),
(282,57,o),
(229,57,cs),
(169,57,o),
(133,86,o),
(133,133,cs)
);
}
);
vertWidth = 0;
width = 871;
}
);
metricLeft = a;
metricRight = o;
unicode = 42805;
},
{
glyphname = au;
lastChange = "2026-03-16 19:25:53 +0000";
layers = (
{
background = {
shapes = (
{
pos = (319,0);
ref = u;
},
{
ref = a;
},
{
closed = 1;
nodes = (
(292,-5,o),
(364,35,o),
(422,116,c),
(405,132,l),
(337,53,o),
(281,21,o),
(211,21,cs),
(134,21,o),
(87,60,o),
(87,122,cs),
(87,184,o),
(133,220,o),
(224,231,cs),
(410,254,l),
(410,280,l),
(221,257,ls),
(114,244,o),
(58,198,o),
(58,122,cs),
(58,44,o),
(117,-5,o),
(209,-5,cs)
);
}
);
};
layerId = "AE3FEF6D-3AA7-4252-B349-D2606A6A3B4C";
shapes = (
{
closed = 1;
nodes = (
(761,0,l),
(761,483,l),
(734,483,l),
(734,217,ls),
(734,96,o),
(669,22,o),
(562,22,cs),
(476,22,o),
(420,70,o),
(420,188,cs),
(420,359,ls),
(420,438,o),
(341,488,o),
(243,488,cs),
(145,488,o),
(67,438,o),
(67,359,c),
(96,359,l),
(96,421,o),
(161,462,o),
(242,462,cs),
(324,462,o),
(393,421,o),
(393,359,cs),
(393,278,l),
(221,257,ls),
(114,244,o),
(58,198,o),
(58,122,cs),
(58,44,o),
(117,-5,o),
(209,-5,cs),
(285,-5,o),
(352,28,o),
(407,95,c),
(430,29,o),
(479,-5,o),
(556,-5,cs),
(648,-5,o),
(699,44,o),
(726,97,c),
(734,97,l),
(734,0,l)
);
},
{
closed = 1;
nodes = (
(87,184,o),
(133,220,o),
(224,231,cs),
(393,252,l),
(393,188,ls),
(393,173,o),
(394,148,o),
(399,124,c),
(334,51,o),
(279,21,o),
(211,21,cs),
(134,21,o),
(87,60,o),
(87,122,cs)
);
}
);
vertWidth = 0;
width = 851;
},
{
background = {
shapes = (
{
pos = (297,0);
ref = u;
},
{
pos = (13,0);
ref = a;
},
{
closed = 1;
nodes = (
(264,-10,o),
(342,24,o),
(394,85,c),
(351,153,l),
(315,125,o),
(287,116,o),
(259,116,cs),
(226,116,o),
(208,127,o),
(208,149,cs),
(208,171,o),
(226,186,o),
(267,188,cs),
(400,193,l),
(400,303,l),
(245,298,ls),
(111,294,o),
(20,248,o),
(20,134,cs),
(20,30,o),
(92,-10,o),
(174,-10,cs)
);
}
);
};
layerId = "3FD7D777-D61F-402B-A269-3A472D550581";
shapes = (
{
closed = 1;
nodes = (
(845,0,l),
(845,500,l),
(661,500,l),
(661,211,ls),
(661,151,o),
(629,120,o),
(582,120,cs),
(539,120,o),
(510,148,o),
(510,207,cs),
(510,328,ls),
(510,441,o),
(410,510,o),
(266,510,cs),
(126,510,o),
(24,442,o),
(33,328,c),
(193,328,l),
(193,361,o),
(226,379,o),
(260,379,cs),
(293,379,o),
(326,361,o),
(326,328,cs),
(326,301,l),
(245,298,ls),
(111,294,o),
(20,248,o),
(20,134,cs),
(20,30,o),
(92,-10,o),
(174,-10,cs),
(251,-10,o),
(320,16,o),
(366,57,c),
(398,12,o),
(442,-10,o),
(502,-10,cs),
(581,-10,o),
(626,30,o),
(652,91,c),
(661,91,l),
(661,0,l)
);
},
{
closed = 1;
nodes = (
(208,171,o),
(226,186,o),
(267,188,cs),
(326,190,l),
(326,188,ls),
(326,171,o),
(329,153,o),
(333,140,c),
(305,122,o),
(282,116,o),
(259,116,cs),
(226,116,o),
(208,127,o),
(208,149,cs)
);
}
);
vertWidth = 0;
width = 890;
},
{
background = {
shapes = (
{
ref = a;
},
{
pos = (302,0);
ref = u;
},
{
closed = 1;
nodes = (
(284,-9,o),
(355,28,o),
(412,103,c),
(385,140,l),
(329,80,o),
(283,57,o),
(229,57,cs),
(169,57,o),
(140,86,o),
(140,133,cs),
(140,180,o),
(169,208,o),
(241,215,cs),
(419,233,l),
(419,291,l),
(230,273,ls),
(113,263,o),
(50,217,o),
(50,127,cs),
(50,39,o),
(110,-9,o),
(199,-9,cs)
);
}
);
};
layerId = m004;
shapes = (
{
closed = 1;
nodes = (
(788,0,l),
(788,490,l),
(704,490,l),
(704,215,ls),
(704,124,o),
(650,69,o),
(567,69,cs),
(494,69,o),
(452,112,o),
(452,203,cs),
(452,349,ls),
(452,440,o),
(371,496,o),
(256,496,cs),
(142,496,o),
(56,441,o),
(60,349,c),
(138,349,l),
(138,399,o),
(191,431,o),
(253,431,cs),
(316,431,o),
(368,399,o),
(368,349,cs),
(368,286,l),
(230,273,ls),
(113,263,o),
(50,217,o),
(50,127,cs),
(50,39,o),
(110,-9,o),
(199,-9,cs),
(275,-9,o),
(340,21,o),
(394,81,c),
(423,24,o),
(471,-6,o),
(543,-6,cs),
(625,-6,o),
(672,32,o),
(699,88,c),
(704,88,l),
(704,0,l)
);
},
{
closed = 1;
nodes = (
(140,180,o),
(169,208,o),
(241,215,cs),
(368,228,l),
(368,202,ls),
(368,176,o),
(371,151,o),
(376,130,c),
(324,77,o),
(280,57,o),
(229,57,cs),
(169,57,o),
(140,86,o),
(140,133,cs)
);
}
);
vertWidth = 0;
width = 875;
}
);
metricLeft = a;
metricRight = u;
unicode = 42807;
},
{
glyphname = av;
kernRight = v;
lastChange = "2026-03-16 19:25:53 +0000";
layers = (
{
background = {
shapes = (
{
ref = a;
},
{
pos = (340,0);
ref = v;
},
{
closed = 1;
nodes = (
(292,-5,o),
(364,35,o),
(422,116,c),
(405,132,l),
(337,53,o),
(281,21,o),
(211,21,cs),
(134,21,o),
(87,60,o),
(87,122,cs),
(87,184,o),
(133,220,o),
(224,231,cs),
(444,258,l),
(444,284,l),
(221,257,ls),
(114,244,o),
(58,198,o),
(58,122,cs),
(58,44,o),
(117,-5,o),
(209,-5,cs)
);
}
);
};
layerId = "AE3FEF6D-3AA7-4252-B349-D2606A6A3B4C";
shapes = (
{
closed = 1;
nodes = (
(580,0,l),
(763,483,l),
(732,483,l),
(558,21,l),
(554,21,l),
(427,351,ls),
(396,432,o),
(343,488,o),
(242,488,cs),
(147,488,o),
(67,438,o),
(67,359,c),
(96,359,l),
(96,421,o),
(163,462,o),
(242,462,cs),
(326,462,o),
(371,416,o),
(397,351,cs),
(424,282,l),
(221,257,ls),
(114,244,o),
(58,198,o),
(58,122,cs),
(58,44,o),
(117,-5,o),
(209,-5,cs),
(292,-5,o),
(364,35,o),
(422,116,c),
(405,132,l),
(337,53,o),
(281,21,o),
(211,21,cs),
(134,21,o),
(87,60,o),
(87,122,cs),
(87,184,o),
(133,220,o),
(224,231,cs),
(434,257,l),
(533,0,l)
);
}
);
vertWidth = 0;
width = 776;
},
{
background = {
shapes = (
{
pos = (279,0);
ref = v;
},
{
pos = (-2,0);
ref = a;
},
{
closed = 1;
nodes = (
(249,-10,o),
(327,24,o),
(379,85,c),
(336,153,l),
(300,125,o),
(272,116,o),
(244,116,cs),
(211,116,o),
(193,127,o),
(193,149,cs),
(193,171,o),
(211,186,o),
(252,188,cs),
(385,193,l),
(385,303,l),
(230,298,ls),
(96,294,o),
(20,248,o),
(20,134,cs),
(20,30,o),
(77,-10,o),
(159,-10,cs)
);
}
);
};
layerId = "3FD7D777-D61F-402B-A269-3A472D550581";
shapes = (
{
closed = 1;
nodes = (
(657,0,l),
(841,500,l),
(639,500,l),
(551,186,l),
(547,186,l),
(508,323,ls),
(470,456,o),
(403,510,o),
(260,510,cs),
(119,510,o),
(25,442,o),
(34,328,c),
(194,328,l),
(194,361,o),
(219,379,o),
(253,379,cs),
(284,379,o),
(307,364,o),
(322,323,cs),
(330,301,l),
(230,298,ls),
(96,294,o),
(20,248,o),
(20,134,cs),
(20,30,o),
(77,-10,o),
(159,-10,cs),
(249,-10,o),
(327,24,o),
(379,85,c),
(336,153,l),
(300,125,o),
(272,116,o),
(244,116,cs),
(211,116,o),
(193,127,o),
(193,149,cs),
(193,171,o),
(211,186,o),
(252,188,cs),
(371,192,l),
(443,0,l)
);
}
);
vertWidth = 0;
width = 817;
},
{
background = {
shapes = (
{
ref = a;
},
{
pos = (321,0);
ref = v;
},
{
closed = 1;
nodes = (
(284,-9,o),
(355,28,o),
(412,103,c),
(385,140,l),
(329,80,o),
(283,57,o),
(229,57,cs),
(169,57,o),
(133,86,o),
(133,133,cs),
(133,180,o),
(169,208,o),
(241,215,cs),
(419,233,l),
(419,291,l),
(230,273,ls),
(113,263,o),
(50,217,o),
(50,127,cs),
(50,39,o),
(110,-9,o),
(199,-9,cs)
);
}
);
};
layerId = m004;
shapes = (
{
closed = 1;
nodes = (
(615,0,l),
(795,490,l),
(701,490,l),
(562,83,l),
(558,83,l),
(467,342,ls),
(433,440,o),
(368,496,o),
(256,496,cs),
(142,496,o),
(56,440,o),
(60,348,c),
(138,348,l),
(138,399,o),
(189,431,o),
(253,431,cs),
(316,431,o),
(356,397,o),
(377,341,cs),
(397,289,l),
(230,273,ls),
(113,263,o),
(50,217,o),
(50,127,cs),
(50,39,o),
(110,-9,o),
(199,-9,cs),
(284,-9,o),
(355,28,o),
(412,103,c),
(385,140,l),
(329,80,o),
(283,57,o),
(229,57,cs),
(169,57,o),
(133,86,o),
(133,133,cs),
(133,180,o),
(169,208,o),
(241,215,cs),
(418,233,l),
(506,0,l)
);
}
);
vertWidth = 0;
width = 795;
}
);
metricLeft = a;
metricRight = v;
unicode = 42809;
},
{
glyphname = avhorizontalbar;
kernRight = v;
lastChange = "2026-03-16 19:25:53 +0000";
layers = (
{
background = {
shapes = (
{
closed = 1;
nodes = (
(694,317,l),
(694,344,l),
(428,344,l),
(428,317,l)
);
},
{
ref = av;
}
);
};
layerId = "AE3FEF6D-3AA7-4252-B349-D2606A6A3B4C";
shapes = (
{
closed = 1;
nodes = (
(580,0,l),
(763,483,l),
(732,483,l),
(680,344,l),
(430,344,l),
(395,435,o),
(343,488,o),
(242,488,cs),
(147,488,o),
(67,438,o),
(67,359,c),
(96,359,l),
(96,421,o),
(163,462,o),
(242,462,cs),
(326,462,o),
(371,416,o),
(397,351,cs),
(424,282,l),
(221,257,ls),
(114,244,o),
(58,198,o),
(58,122,cs),
(58,44,o),
(117,-5,o),
(209,-5,cs),
(292,-5,o),
(364,35,o),
(422,116,c),
(405,132,l),
(337,53,o),
(281,21,o),
(211,21,cs),
(134,21,o),
(87,60,o),
(87,122,cs),
(87,184,o),
(133,220,o),
(224,231,cs),
(434,257,l),
(533,0,l)
);
},
{
closed = 1;
nodes = (
(669,317,l),
(558,21,l),
(554,21,l),
(440,317,l)
);
}
);
vertWidth = 0;
width = 776;
},
{
background = {
shapes = (
{
pos = (-2,0);
ref = av;
},
{
closed = 1;
nodes = (
(612,323,l),
(640,415,l),
(445,415,l),
(479,323,l)
);
}
);
};
layerId = "3FD7D777-D61F-402B-A269-3A472D550581";
shapes = (
{
closed = 1;
nodes = (
(657,0,l),
(841,500,l),
(639,500,l),
(615,415,l),
(469,415,l),
(427,482,o),
(364,510,o),
(260,510,cs),
(119,510,o),
(25,442,o),
(34,328,c),
(194,328,l),
(194,361,o),
(219,379,o),
(253,379,cs),
(284,379,o),
(307,364,o),
(322,323,cs),
(330,301,l),
(230,298,ls),
(96,294,o),
(20,248,o),
(20,134,cs),
(20,30,o),
(77,-10,o),
(159,-10,cs),
(249,-10,o),
(327,24,o),
(379,85,c),
(336,153,l),
(300,125,o),
(272,116,o),
(244,116,cs),
(211,116,o),
(193,127,o),
(193,149,cs),
(193,171,o),
(211,186,o),
(252,188,cs),
(371,192,l),
(443,0,l)
);
},
{
closed = 1;
nodes = (
(589,323,l),
(551,186,l),
(547,186,l),
(508,323,l)
);
}
);
vertWidth = 0;
width = 817;
},
{
background = {
shapes = (
{
closed = 1;
nodes = (
(664,319,l),
(675,381,l),
(436,381,l),
(448,319,l)
);
},
{
ref = av;
}
);
};
layerId = m004;
shapes = (
{
closed = 1;
nodes = (
(615,0,l),
(795,490,l),
(701,490,l),
(664,381,l),
(451,381,l),
(414,455,o),
(352,496,o),
(256,496,cs),
(142,496,o),
(56,440,o),
(60,348,c),
(138,348,l),
(138,399,o),
(189,431,o),
(253,431,cs),
(316,431,o),
(356,397,o),
(377,341,cs),
(397,289,l),
(230,273,ls),
(113,263,o),
(50,217,o),
(50,127,cs),
(50,39,o),
(110,-9,o),
(199,-9,cs),
(284,-9,o),
(355,28,o),
(412,103,c),
(385,140,l),
(329,80,o),
(283,57,o),
(229,57,cs),
(169,57,o),
(133,86,o),
(133,133,cs),
(133,180,o),
(169,208,o),
(241,215,cs),
(418,233,l),
(506,0,l)
);
},
{
closed = 1;
nodes = (
(643,319,l),
(562,83,l),
(558,83,l),
(475,319,l)
);
}
);
vertWidth = 0;
width = 795;
}
);
metricLeft = a;
metricRight = v;
unicode = 42811;
},
{
glyphname = ay;
kernRight = v;
lastChange = "2026-03-16 19:25:53 +0000";
layers = (
{
background = {
shapes = (
{
ref = av;
},
{
pos = (336,0);
ref = y;
}
);
};
layerId = "AE3FEF6D-3AA7-4252-B349-D2606A6A3B4C";
shapes = (
{
closed = 1;
nodes = (
(512,-96,ls),
(480,-181,o),
(450,-207,o),
(369,-207,cs),
(361,-207,l),
(361,-233,l),
(369,-233,ls),
(459,-233,o),
(505,-198,o),
(540,-102,cs),
(759,483,l),
(728,483,l),
(558,21,l),
(554,21,l),
(429,351,ls),
(398,432,o),
(343,488,o),
(242,488,cs),
(147,488,o),
(67,438,o),
(67,359,c),
(96,359,l),
(96,421,o),
(163,462,o),
(242,462,cs),
(326,462,o),
(374,417,o),
(399,351,cs),
(425,282,l),
(221,257,ls),
(114,244,o),
(58,198,o),
(58,122,cs),
(58,44,o),
(117,-5,o),
(209,-5,cs),
(292,-5,o),
(364,35,o),
(422,116,c),
(405,132,l),
(337,53,o),
(281,21,o),
(211,21,cs),
(134,21,o),
(87,60,o),
(87,122,cs),
(87,184,o),
(133,220,o),
(224,231,cs),
(435,257,l),
(540,-21,l)
);
}
);
width = 772;
},
{
background = {
shapes = (
{
pos = (-2,0);
ref = av;
},
{
pos = (276,0);
ref = y;
}
);
};
layerId = "3FD7D777-D61F-402B-A269-3A472D550581";
shapes = (
{
closed = 1;
nodes = (
(460,-16,ls),
(442,-63,o),
(409,-77,o),
(351,-77,cs),
(307,-77,l),
(307,-216,l),
(416,-216,ls),
(525,-216,o),
(595,-159,o),
(643,-33,cs),
(848,500,l),
(646,500,l),
(548,174,l),
(544,174,l),
(503,323,ls),
(466,457,o),
(403,510,o),
(260,510,cs),
(119,510,o),
(25,442,o),
(34,328,c),
(194,328,l),
(194,361,o),
(219,379,o),
(253,379,cs),
(284,379,o),
(308,364,o),
(325,324,cs),
(334,302,l),
(230,298,ls),
(96,293,o),
(20,248,o),
(20,134,cs),
(20,30,o),
(77,-10,o),
(159,-10,cs),
(249,-10,o),
(327,24,o),
(379,85,c),
(336,153,l),
(300,125,o),
(272,116,o),
(244,116,cs),
(211,116,o),
(193,127,o),
(193,149,cs),
(193,171,o),
(211,187,o),
(252,188,cs),
(380,191,l),
(463,-9,l)
);
}
);
width = 824;
},
{
background = {
shapes = (
{
ref = av;
},
{
pos = (322,0);
ref = y;
}
);
};
layerId = m004;
shapes = (
{
closed = 1;
nodes = (
(500,-66,ls),
(473,-137,o),
(443,-158,o),
(370,-158,cs),
(348,-158,l),
(348,-226,l),
(395,-226,ls),
(491,-226,o),
(547,-184,o),
(587,-76,cs),
(795,490,l),
(701,490,l),
(562,90,l),
(558,90,l),
(467,343,ls),
(432,440,o),
(368,496,o),
(256,496,cs),
(142,496,o),
(56,440,o),
(60,348,c),
(138,348,l),
(138,399,o),
(189,431,o),
(253,431,cs),
(316,431,o),
(359,397,o),
(380,341,cs),
(400,289,l),
(230,273,ls),
(113,262,o),
(50,217,o),
(50,127,cs),
(50,39,o),
(110,-9,o),
(199,-9,cs),
(284,-9,o),
(355,28,o),
(412,103,c),
(385,140,l),
(329,80,o),
(283,57,o),
(229,57,cs),
(169,57,o),
(133,86,o),
(133,133,cs),
(133,180,o),
(169,208,o),
(241,215,cs),
(421,233,l),
(519,-16,l)
);
}
);
width = 794;
}
);
metricLeft = a;
metricRight = y;
unicode = 42813;
},
{
glyphname = ae;
kernLeft = a;
lastChange = "2026-03-16 19:25:53 +0000";
layers = (
{
anchors = (
{
name = bottom;
pos = (394,-5);
},
{
name = bottom.alt;
pos = (609,-5);
},
{
name = top;
pos = (414,488);
}
);
background = {
shapes = (
{
closed = 1;
nodes = (
(422,170,l),
(422,359,ls),
(422,438,o),
(343,488,o),
(245,488,cs),
(147,488,o),
(67,438,o),
(67,359,c),
(96,359,l),
(96,421,o),
(163,462,o),
(244,462,cs),
(326,462,o),
(393,421,o),
(393,359,cs),
(393,170,l)
);
},
{
pos = (349,0);
ref = e;
},
{
closed = 1;
nodes = (
(315,-5,o),
(410,73,o),
(410,168,c),
(393,180,l),
(393,90,o),
(312,21,o),
(208,21,cs),
(134,21,o),
(86,63,o),
(86,128,cs),
(86,196,o),
(137,238,o),
(226,243,cs),
(411,251,l),
(411,277,l),
(220,268,ls),
(118,263,o),
(58,211,o),
(58,129,cs),
(58,49,o),
(118,-5,o),
(202,-5,cs)
);
}
);
};
layerId = "AE3FEF6D-3AA7-4252-B349-D2606A6A3B4C";
shapes = (
{
closed = 1;
nodes = (
(705,-5,o),
(773,41,o),
(804,121,c),
(772,121,l),
(752,68,o),
(697,21,o),
(609,21,cs),
(486,21,o),
(422,111,o),
(422,239,c),
(815,239,l),
(818,383,o),
(757,488,o),
(604,488,cs),
(523,488,o),
(459,452,o),
(424,373,c),
(420,373,l),
(405,448,o),
(333,488,o),
(245,488,cs),
(147,488,o),
(67,438,o),
(67,359,c),
(96,359,l),
(96,421,o),
(163,462,o),
(244,462,cs),
(326,462,o),
(393,421,o),
(393,359,cs),
(393,276,l),
(220,268,ls),
(118,263,o),
(58,211,o),
(58,129,cs),
(58,49,o),
(118,-5,o),
(202,-5,cs),
(300,-5,o),
(388,53,o),
(408,141,c),
(412,141,l),
(443,43,o),
(510,-5,o),
(609,-5,cs)
);
},
{
closed = 1;
nodes = (
(429,381,o),
(492,462,o),
(604,462,cs),
(736,462,o),
(778,375,o),
(786,265,c),
(423,265,l)
);
},
{
closed = 1;
nodes = (
(86,196,o),
(137,238,o),
(226,243,cs),
(393,250,l),
(393,180,ls),
(393,90,o),
(312,21,o),
(208,21,cs),
(134,21,o),
(86,63,o),
(86,128,cs)
);
}
);
vertWidth = 0;
width = 854;
},
{
anchors = (
{
name = bottom;
pos = (356,-10);
},
{
name = bottom.alt;
pos = (579,-5);
},
{
name = top;
pos = (429,512);
}
);
background = {
shapes = (
{
closed = 1;
nodes = (
(510,139,l),
(510,330,ls),
(510,443,o),
(413,512,o),
(266,512,cs),
(119,512,o),
(25,443,o),
(34,330,c),
(194,330,l),
(194,363,o),
(222,381,o),
(257,381,cs),
(293,381,o),
(321,363,o),
(321,330,cs),
(321,139,l)
);
},
{
pos = (304,0);
ref = e;
},
{
closed = 1;
nodes = (
(281,-15,o),
(370,52,o),
(384,186,c),
(323,200,l),
(313,139,o),
(287,116,o),
(242,116,cs),
(211,116,o),
(193,127,o),
(193,149,cs),
(193,171,o),
(211,186,o),
(252,188,cs),
(385,193,l),
(385,303,l),
(230,298,ls),
(96,294,o),
(20,248,o),
(20,134,cs),
(20,30,o),
(83,-15,o),
(172,-15,cs)
);
}
);
};
layerId = "3FD7D777-D61F-402B-A269-3A472D550581";
shapes = (
{
closed = 1;
nodes = (
(722,-10,o),
(800,68,o),
(829,147,c),
(632,147,l),
(626,131,o),
(608,116,o),
(579,116,cs),
(537,116,o),
(514,145,o),
(512,193,c),
(839,193,l),
(863,381,o),
(764,510,o),
(581,510,cs),
(523,510,o),
(475,497,o),
(433,463,c),
(429,463,l),
(388,498,o),
(332,512,o),
(266,512,cs),
(119,512,o),
(25,443,o),
(34,330,c),
(194,330,l),
(194,363,o),
(222,381,o),
(257,381,cs),
(293,381,o),
(321,363,o),
(321,330,cs),
(321,301,l),
(230,298,ls),
(96,294,o),
(20,248,o),
(20,134,cs),
(20,30,o),
(83,-15,o),
(172,-15,cs),
(253,-15,o),
(327,22,o),
(364,105,c),
(368,105,l),
(411,27,o),
(481,-10,o),
(579,-10,cs)
);
},
{
closed = 1;
nodes = (
(514,349,o),
(541,381,o),
(581,381,cs),
(624,381,o),
(651,352,o),
(651,299,c),
(514,299,l)
);
},
{
closed = 1;
nodes = (
(193,171,o),
(211,186,o),
(252,188,cs),
(321,191,l),
(321,189,l),
(310,137,o),
(284,116,o),
(242,116,cs),
(211,116,o),
(193,127,o),
(193,149,cs)
);
}
);
vertWidth = 0;
width = 856;
},
{
anchors = (
{
name = bottom;
pos = (386,-6);
},
{
name = bottom.alt;
pos = (604,-5);
},
{
name = top;
pos = (425,497);
}
);
background = {
shapes = (
{
closed = 1;
nodes = (
(461,159,l),
(461,349,ls),
(461,440,o),
(375,497,o),
(259,497,cs),
(143,497,o),
(57,440,o),
(60,349,c),
(139,349,l),
(139,399,o),
(191,432,o),
(255,432,cs),
(319,432,o),
(372,399,o),
(372,349,cs),
(372,159,l)
);
},
{
pos = (334,0);
ref = e;
},
{
closed = 1;
nodes = (
(323,-9,o),
(416,66,o),
(421,175,c),
(373,188,l),
(369,108,o),
(308,57,o),
(228,57,cs),
(169,57,o),
(132,87,o),
(132,136,cs),
(132,187,o),
(171,219,o),
(242,223,cs),
(407,229,l),
(407,287,l),
(230,279,ls),
(115,274,o),
(50,225,o),
(50,131,cs),
(50,42,o),
(111,-9,o),
(206,-9,cs)
);
}
);
};
layerId = m004;
shapes = (
{
closed = 1;
nodes = (
(717,-6,o),
(789,52,o),
(819,131,c),
(726,131,l),
(711,92,o),
(669,57,o),
(604,57,cs),
(511,57,o),
(463,123,o),
(462,219,c),
(830,219,l),
(840,381,o),
(765,496,o),
(601,496,cs),
(532,496,o),
(476,474,o),
(436,422,c),
(432,422,l),
(397,474,o),
(335,497,o),
(259,497,cs),
(143,497,o),
(57,440,o),
(60,349,c),
(139,349,l),
(139,399,o),
(191,432,o),
(255,432,cs),
(319,432,o),
(372,399,o),
(372,349,cs),
(372,285,l),
(230,279,ls),
(115,274,o),
(50,225,o),
(50,131,cs),
(50,42,o),
(111,-9,o),
(206,-9,cs),
(293,-9,o),
(372,33,o),
(406,109,c),
(410,109,l),
(449,31,o),
(513,-6,o),
(604,-6,cs)
);
},
{
closed = 1;
nodes = (
(467,370,o),
(516,432,o),
(601,432,cs),
(700,432,o),
(736,367,o),
(741,281,c),
(463,281,l)
);
},
{
closed = 1;
nodes = (
(132,187,o),
(171,219,o),
(242,223,cs),
(372,228,l),
(372,176,l),
(363,103,o),
(304,57,o),
(228,57,cs),
(169,57,o),
(132,87,o),
(132,136,cs)
);
}
);
vertWidth = 0;
width = 865;
}
);
metricLeft = a;
metricRight = e;
unicode = 230;
},
{
glyphname = b;
kernRight = o;
lastChange = "2026-03-16 19:16:11 +0000";
layers = (
{
anchors = (
{
name = bottom;
pos = (255,-5);
},
{
name = top;
pos = (255,681);
}
);
background = {
shapes = (
{
closed = 1;
nodes = (
(110,0,l),
(110,681,l),
(83,681,l),
(83,0,l)
);
},
{
pos = (1,0);
ref = uniE00F;
}
);
};
layerId = "AE3FEF6D-3AA7-4252-B349-D2606A6A3B4C";
shapes = (
{
closed = 1;
nodes = (
(110,0,l),
(110,118,l),
(114,118,l),
(147,41,o),
(210,-4,o),
(298,-4,cs),
(427,-4,o),
(511,93,o),
(511,243,cs),
(511,391,o),
(427,487,o),
(298,487,cs),
(210,487,o),
(147,442,o),
(114,366,c),
(110,366,l),
(110,681,l),
(83,681,l),
(83,0,l)
);
},
{
closed = 1;
nodes = (
(183,21,o),
(110,109,o),
(110,243,cs),
(110,376,o),
(183,462,o),
(295,462,cs),
(408,462,o),
(481,376,o),
(481,243,cs),
(481,109,o),
(408,21,o),
(295,21,cs)
);
}
);
vertWidth = 0;
width = 555;
},
{
anchors = (
{
name = bottom;
pos = (260,-5);
},
{
name = top;
pos = (260,688);
}
);
background = {
shapes = (
{
closed = 1;
nodes = (
(230,-1,l),
(230,688,l),
(46,688,l),
(46,-1,l)
);
},
{
pos = (25,-1);
ref = uniE00F;
}
);
};
layerId = "3FD7D777-D61F-402B-A269-3A472D550581";
shapes = (
{
closed = 1;
nodes = (
(230,-1,l),
(230,65,l),
(237,65,l),
(271,13,o),
(313,-11,o),
(374,-11,cs),
(486,-11,o),
(563,82,o),
(563,249,cs),
(563,416,o),
(486,509,o),
(374,509,cs),
(313,509,o),
(271,485,o),
(237,433,c),
(230,433,l),
(230,688,l),
(46,688,l),
(46,-1,l)
);
},
{
closed = 1;
nodes = (
(254,115,o),
(230,159,o),
(230,249,cs),
(230,337,o),
(254,380,o),
(302,380,cs),
(351,380,o),
(375,337,o),
(375,249,cs),
(375,159,o),
(351,115,o),
(302,115,cs)
);
}
);
vertWidth = 0;
width = 581;
},
{
anchors = (
{
name = bottom;
pos = (262,-5);
},
{
name = top;
pos = (262,684);
}
);
background = {
shapes = (
{
closed = 1;
nodes = (
(161,0,l),
(161,684,l),
(77,684,l),
(77,0,l)
);
},
{
pos = (16,0);
ref = uniE00F;
}
);
};
layerId = m004;
shapes = (
{
closed = 1;
nodes = (
(161,0,l),
(161,74,l),
(167,74,l),
(200,20,o),
(255,-6,o),
(323,-6,cs),
(456,-6,o),
(537,89,o),
(537,245,cs),
(537,401,o),
(456,496,o),
(323,496,cs),
(255,496,o),
(200,470,o),
(167,416,c),
(161,416,l),
(161,684,l),
(77,684,l),
(77,0,l)
);
},
{
closed = 1;
nodes = (
(216,57,o),
(161,129,o),
(161,245,cs),
(161,362,o),
(216,432,o),
(305,432,cs),
(393,432,o),
(447,362,o),
(447,245,cs),
(447,129,o),
(393,57,o),
(305,57,cs)
);
}
);
vertWidth = 0;
width = 575;
}
);
metricLeft = l;
metricRight = o;
unicode = 98;
},
{
color = 8;
glyphname = bhook;
lastChange = "2026-03-16 19:16:11 +0000";
layers = (
{
background = {
shapes = (
{
pos = (1,0);
ref = uniE00F;
},
{
closed = 1;
nodes = (
(79,0,l),
(110,0,l),
(110,573,ls),
(110,635,o),
(145,663,o),
(206,663,cs),
(236,663,o),
(260,654,o),
(271,644,c),
(286,664,l),
(270,678,o),
(241,689,o),
(206,689,cs),
(133,689,o),
(79,654,o),
(79,574,cs)
);
}
);
};
layerId = "AE3FEF6D-3AA7-4252-B349-D2606A6A3B4C";
shapes = (
{
closed = 1;
nodes = (
(427,-4,o),
(511,93,o),
(511,243,cs),
(511,391,o),
(427,487,o),
(298,487,cs),
(210,487,o),
(147,442,o),
(114,366,c),
(110,366,l),
(110,573,ls),
(110,635,o),
(145,663,o),
(206,663,cs),
(236,663,o),
(260,654,o),
(271,644,c),
(286,664,l),
(270,678,o),
(241,689,o),
(206,689,cs),
(133,689,o),
(83,654,o),
(83,574,cs),
(83,0,l),
(110,0,l),
(110,118,l),
(114,118,l),
(147,41,o),
(210,-4,o),
(298,-4,cs)
);
},
{
closed = 1;
nodes = (
(183,21,o),
(110,109,o),
(110,243,cs),
(110,376,o),
(183,462,o),
(295,462,cs),
(408,462,o),
(481,376,o),
(481,243,cs),
(481,109,o),
(408,21,o),
(295,21,cs)
);
}
);
vertWidth = 0;
width = 555;
},
{
background = {
shapes = (
{
pos = (25,-1);
ref = uniE00F;
},
{
closed = 1;
nodes = (
(46,-1,l),
(230,-1,l),
(230,538,ls),
(230,561,o),
(247,573,o),
(279,573,cs),
(294,573,o),
(313,571,o),
(333,566,c),
(358,674,l),
(316,689,o),
(268,698,o),
(221,698,cs),
(127,698,o),
(46,660,o),
(46,553,cs)
);
}
);
};
layerId = "3FD7D777-D61F-402B-A269-3A472D550581";
shapes = (
{
closed = 1;
nodes = (
(486,-11,o),
(563,82,o),
(563,249,cs),
(563,416,o),
(486,509,o),
(374,509,cs),
(313,509,o),
(271,485,o),
(237,433,c),
(230,433,l),
(230,538,ls),
(230,561,o),
(247,573,o),
(279,573,cs),
(294,573,o),
(313,571,o),
(333,566,c),
(358,674,l),
(316,689,o),
(268,698,o),
(221,698,cs),
(127,698,o),
(46,660,o),
(46,553,cs),
(46,-1,l),
(230,-1,l),
(230,65,l),
(237,65,l),
(271,13,o),
(313,-11,o),
(374,-11,cs)
);
},
{
closed = 1;
nodes = (
(254,115,o),
(230,159,o),
(230,249,cs),
(230,337,o),
(254,380,o),
(302,380,cs),
(351,380,o),
(375,337,o),
(375,249,cs),
(375,159,o),
(351,115,o),
(302,115,cs)
);
}
);
vertWidth = 0;
width = 581;
},
{
background = {
shapes = (
{
pos = (16,0);
ref = uniE00F;
},
{
closed = 1;
nodes = (
(77,0,l),
(161,0,l),
(161,560,ls),
(161,607,o),
(189,629,o),
(239,629,cs),
(263,629,o),
(284,624,o),
(300,615,c),
(319,668,l),
(292,683,o),
(256,693,o),
(217,693,cs),
(136,693,o),
(77,656,o),
(77,567,cs)
);
}
);
};
layerId = m004;
shapes = (
{
closed = 1;
nodes = (
(456,-6,o),
(537,89,o),
(537,245,cs),
(537,401,o),
(456,496,o),
(323,496,cs),
(255,496,o),
(200,470,o),
(167,416,c),
(161,416,l),
(161,560,ls),
(161,607,o),
(189,629,o),
(239,629,cs),
(263,629,o),
(284,624,o),
(300,615,c),
(319,668,l),
(292,683,o),
(256,693,o),
(217,693,cs),
(136,693,o),
(77,656,o),
(77,567,cs),
(77,0,l),
(161,0,l),
(161,74,l),
(167,74,l),
(200,20,o),
(255,-6,o),
(323,-6,cs)
);
},
{
closed = 1;
nodes = (
(216,57,o),
(161,129,o),
(161,245,cs),
(161,362,o),
(216,432,o),
(305,432,cs),
(393,432,o),
(447,362,o),
(447,245,cs),
(447,129,o),
(393,57,o),
(305,57,cs)
);
}
);
vertWidth = 0;
width = 575;
}
);
metricLeft = l;
metricRight = o;
unicode = 595;
},
{
color = 3;
glyphname = c;
kernLeft = o;
lastChange = "2026-03-14 20:34:30 +0000";
layers = (
{
anchors = (
{
name = bottom;
pos = (258,-5);
},
{
name = top;
pos = (258,488);
}
);
layerId = "AE3FEF6D-3AA7-4252-B349-D2606A6A3B4C";
shapes = (
{
closed = 1;
nodes = (
(357,-5,o),
(429,42,o),
(461,136,c),
(430,136,l),
(408,70,o),
(353,21,o),
(258,21,cs),
(131,21,o),
(75,112,o),
(75,241,cs),
(75,370,o),
(131,462,o),
(258,462,cs),
(353,462,o),
(408,413,o),
(430,347,c),
(461,347,l),
(429,441,o),
(357,488,o),
(258,488,cs),
(125,488,o),
(44,397,o),
(44,241,cs),
(44,85,o),
(125,-5,o),
(258,-5,cs)
);
}
);
vertWidth = 0;
width = 510;
},
{
anchors = (
{
name = bottom;
pos = (278,-10);
},
{
name = top;
pos = (278,510);
}
);
layerId = "3FD7D777-D61F-402B-A269-3A472D550581";
shapes = (
{
closed = 1;
nodes = (
(438,-10,o),
(522,86,o),
(530,202,c),
(347,202,l),
(341,163,o),
(325,116,o),
(278,116,cs),
(230,116,o),
(206,159,o),
(206,250,cs),
(206,337,o),
(230,381,o),
(278,381,cs),
(325,381,o),
(341,336,o),
(347,296,c),
(530,296,l),
(522,410,o),
(438,510,o),
(278,510,cs),
(118,510,o),
(18,410,o),
(18,249,cs),
(18,86,o),
(118,-10,o),
(278,-10,cs)
);
}
);
vertWidth = 0;
width = 528;
},
{
anchors = (
{
name = bottom;
pos = (269,-6);
},
{
name = top;
pos = (269,496);
}
);
layerId = m004;
shapes = (
{
closed = 1;
nodes = (
(392,-6,o),
(468,59,o),
(491,161,c),
(403,161,l),
(387,105,o),
(346,57,o),
(269,57,cs),
(172,57,o),
(128,130,o),
(128,245,cs),
(128,358,o),
(172,432,o),
(269,432,cs),
(346,432,o),
(387,384,o),
(403,328,c),
(491,328,l),
(468,430,o),
(392,496,o),
(269,496,cs),
(127,496,o),
(38,402,o),
(38,244,cs),
(38,86,o),
(127,-6,o),
(269,-6,cs)
);
}
);
vertWidth = 0;
width = 523;
}
);
metricLeft = o;
unicode = 99;
},
{
color = 3;
glyphname = ccurl;
lastChange = "2026-03-13 22:05:21 +0000";
layers = (
{
background = {
shapes = (
{
closed = 1;
nodes = (
(198,153,o),
(262,228,o),
(354,228,cs),
(408,228,o),
(442,192,o),
(442,145,cs),
(442,67,o),
(358,21,o),
(280,21,cs),
(162,21,o),
(85,91,o),
(85,242,cs),
(85,393,o),
(162,462,o),
(271,462,cs),
(358,462,o),
(417,418,o),
(442,346,c),
(468,356,l),
(438,440,o),
(369,488,o),
(271,488,cs),
(144,488,o),
(57,407,o),
(57,242,cs),
(57,77,o),
(144,-5,o),
(279,-5,cs),
(376,-5,o),
(468,56,o),
(468,144,cs),
(468,212,o),
(423,254,o),
(353,254,cs),
(250,254,o),
(181,178,o),
(45,-17,c),
(63,-30,l)
);
}
);
};
layerId = "AE3FEF6D-3AA7-4252-B349-D2606A6A3B4C";
shapes = (
{
closed = 1;
nodes = (
(85,0,o),
(104,26,o),
(123,51,c),
(161,14,o),
(215,-5,o),
(279,-5,cs),
(376,-5,o),
(468,56,o),
(468,144,cs),
(468,212,o),
(423,254,o),
(353,254,cs),
(272,254,o),
(213,208,o),
(124,92,c),
(99,128,o),
(85,178,o),
(85,242,cs),
(85,393,o),
(162,462,o),
(271,462,cs),
(358,462,o),
(417,418,o),
(442,346,c),
(468,356,l),
(438,440,o),
(369,488,o),
(271,488,cs),
(144,488,o),
(57,407,o),
(57,242,cs),
(57,167,o),
(75,110,o),
(107,69,c),
(88,43,o),
(67,15,o),
(45,-17,c),
(63,-30,l)
);
},
{
closed = 1;
nodes = (
(227,182,o),
(282,228,o),
(354,228,cs),
(408,228,o),
(442,192,o),
(442,145,cs),
(442,67,o),
(358,21,o),
(280,21,cs),
(222,21,o),
(175,37,o),
(141,73,c)
);
}
);
vertWidth = 0;
width = 510;
},
{
background = {
shapes = (
{
closed = 1;
nodes = (
(197,114,o),
(267,189,o),
(316,189,cs),
(334,189,o),
(346,177,o),
(346,160,cs),
(346,134,o),
(320,116,o),
(287,116,cs),
(229,116,o),
(205,159,o),
(205,249,cs),
(205,337,o),
(229,381,o),
(277,381,cs),
(317,381,o),
(338,348,o),
(344,313,c),
(520,341,l),
(499,436,o),
(416,512,o),
(277,512,cs),
(117,512,o),
(17,410,o),
(17,248,cs),
(17,86,o),
(117,-15,o),
(280,-15,cs),
(411,-15,o),
(499,56,o),
(499,151,cs),
(499,231,o),
(438,284,o),
(341,284,cs),
(211,284,o),
(87,193,o),
(-5,28,c),
(102,-39,l)
);
}
);
};
layerId = "3FD7D777-D61F-402B-A269-3A472D550581";
shapes = (
{
closed = 1;
nodes = (
(115,-18,o),
(127,1,o),
(138,18,c),
(177,-3,o),
(225,-15,o),
(280,-15,cs),
(411,-15,o),
(499,56,o),
(499,151,cs),
(499,231,o),
(438,284,o),
(341,284,cs),
(295,284,o),
(248,272,o),
(205,250,c),
(205,253,o),
(205,256,o),
(205,259,cs),
(205,335,o),
(231,381,o),
(277,381,cs),
(317,381,o),
(338,348,o),
(344,313,c),
(520,341,l),
(499,436,o),
(416,512,o),
(277,512,cs),
(117,512,o),
(17,410,o),
(17,248,cs),
(17,195,o),
(28,148,o),
(48,110,c),
(30,86,o),
(11,57,o),
(-5,28,c),
(102,-39,l)
);
},
{
closed = 1;
nodes = (
(265,172,o),
(293,189,o),
(316,189,cs),
(334,189,o),
(346,177,o),
(346,160,cs),
(346,134,o),
(320,116,o),
(287,116,cs),
(263,116,o),
(245,123,o),
(232,138,c)
);
}
);
vertWidth = 0;
width = 528;
},
{
background = {
shapes = (
{
closed = 1;
nodes = (
(212,143,o),
(264,208,o),
(336,208,cs),
(382,208,o),
(414,181,o),
(414,140,cs),
(414,109,o),
(395,57,o),
(296,57,cs),
(178,57,o),
(134,130,o),
(134,244,cs),
(134,358,o),
(178,432,o),
(274,432,cs),
(352,432,o),
(393,384,o),
(409,328,c),
(497,328,l),
(474,430,o),
(398,496,o),
(277,496,cs),
(133,496,o),
(44,402,o),
(44,244,cs),
(44,86,o),
(133,-6,o),
(286,-6,cs),
(425,-6,o),
(480,70,o),
(480,144,cs),
(480,219,o),
(424,275,o),
(342,275,cs),
(238,275,o),
(166,183,o),
(19,-20,c),
(70,-53,l)
);
}
);
};
layerId = m004;
shapes = (
{
closed = 1;
nodes = (
(94,-20,o),
(115,9,o),
(135,36,c),
(175,8,o),
(225,-6,o),
(286,-6,cs),
(425,-6,o),
(480,70,o),
(480,144,cs),
(480,219,o),
(424,275,o),
(342,275,cs),
(274,275,o),
(220,236,o),
(148,150,c),
(138,178,o),
(134,208,o),
(134,244,cs),
(134,358,o),
(178,432,o),
(274,432,cs),
(352,432,o),
(393,384,o),
(409,328,c),
(497,328,l),
(474,430,o),
(398,496,o),
(277,496,cs),
(133,496,o),
(44,402,o),
(44,244,cs),
(44,176,o),
(61,120,o),
(92,79,c),
(70,50,o),
(45,16,o),
(19,-20,c),
(70,-53,l)
);
},
{
closed = 1;
nodes = (
(246,177,o),
(287,208,o),
(336,208,cs),
(382,208,o),
(414,181,o),
(414,140,cs),
(414,109,o),
(395,57,o),
(296,57,cs),
(245,57,o),
(208,70,o),
(181,96,c)
);
}
);
vertWidth = 0;
width = 523;
}
);
metricWidth = c;
unicode = 597;
},
{
glyphname = d;
kernLeft = o;
lastChange = "2026-03-16 19:16:11 +0000";
layers = (
{
anchors = (
{
name = bottom;
pos = (296,-5);
},
{
name = bottom.alt;
pos = (460,0);
},
{
name = "d-bar";
pos = (459,555);
},
{
name = top;
pos = (296,678);
},
{
name = top.alt;
pos = (472,678);
}
);
background = {
shapes = (
{
closed = 1;
nodes = (
(472,0,ls),
(472,678,l),
(445,678,l),
(445,0,l)
);
},
{
pos = (-61,0);
ref = uniE01C;
}
);
};
layerId = "AE3FEF6D-3AA7-4252-B349-D2606A6A3B4C";
shapes = (
{
closed = 1;
nodes = (
(472,0,l),
(472,678,l),
(445,678,l),
(445,365,l),
(441,365,l),
(408,442,o),
(345,487,o),
(257,487,cs),
(128,487,o),
(44,390,o),
(44,240,cs),
(44,92,o),
(128,-4,o),
(257,-4,cs),
(345,-4,o),
(408,41,o),
(441,117,c),
(445,117,l),
(445,0,l)
);
},
{
closed = 1;
nodes = (
(372,462,o),
(445,374,o),
(445,240,cs),
(445,107,o),
(372,21,o),
(260,21,cs),
(147,21,o),
(74,107,o),
(74,240,cs),
(74,374,o),
(147,462,o),
(260,462,cs)
);
}
);
vertWidth = 0;
width = 555;
},
{
anchors = (
{
name = bottom;
pos = (307,-6);
},
{
name = bottom.alt;
pos = (445,0);
},
{
name = "d-bar";
pos = (445,555);
},
{
name = top;
pos = (307,688);
},
{
name = top.alt;
pos = (538,686);
}
);
background = {
shapes = (
{
closed = 1;
nodes = (
(535,0,ls),
(535,688,l),
(351,688,l),
(351,0,l)
);
},
{
pos = (-123,0);
ref = uniE01C;
}
);
};
layerId = "3FD7D777-D61F-402B-A269-3A472D550581";
shapes = (
{
attr = {
strokePos = 1;
};
closed = 1;
nodes = (
(535,0,l),
(535,688,l),
(351,688,l),
(351,434,l),
(344,434,l),
(310,486,o),
(268,510,o),
(207,510,cs),
(95,510,o),
(18,417,o),
(18,250,cs),
(18,83,o),
(95,-10,o),
(207,-10,cs),
(268,-10,o),
(310,14,o),
(344,66,c),
(351,66,l),
(351,0,l)
);
},
{
closed = 1;
nodes = (
(327,384,o),
(351,340,o),
(351,250,cs),
(351,162,o),
(327,119,o),
(279,119,cs),
(230,119,o),
(206,162,o),
(206,250,cs),
(206,340,o),
(230,384,o),
(279,384,cs)
);
}
);
vertWidth = 0;
width = 581;
},
{
anchors = (
{
name = bottom;
pos = (304,-5);
},
{
name = bottom.alt;
pos = (459,0);
},
{
name = "d-bar";
pos = (459,555);
},
{
name = top;
pos = (304,682);
},
{
name = top.alt;
pos = (503,681);
}
);
background = {
shapes = (
{
closed = 1;
nodes = (
(498,0,ls),
(498,682,l),
(414,682,l),
(414,0,l)
);
},
{
pos = (-80,0);
ref = uniE01C;
}
);
};
layerId = m004;
shapes = (
{
closed = 1;
nodes = (
(498,0,l),
(498,682,l),
(414,682,l),
(414,416,l),
(408,416,l),
(375,470,o),
(320,496,o),
(252,496,cs),
(119,496,o),
(38,401,o),
(38,245,cs),
(38,89,o),
(119,-6,o),
(252,-6,cs),
(320,-6,o),
(375,20,o),
(408,74,c),
(414,74,l),
(414,0,l)
);
},
{
closed = 1;
nodes = (
(359,433,o),
(414,361,o),
(414,245,cs),
(414,128,o),
(359,58,o),
(270,58,cs),
(182,58,o),
(128,128,o),
(128,245,cs),
(128,361,o),
(182,433,o),
(270,433,cs)
);
}
);
vertWidth = 0;
width = 575;
}
);
metricLeft = o;
metricRight = l;
unicode = 100;
},
{
glyphname = dbdigraph;
lastChange = "2026-03-16 19:16:11 +0000";
layers = (
{
background = {
shapes = (
{
pos = (363,0);
ref = uniE00F;
},
{
pos = (-61,0);
ref = uniE01C;
},
{
pos = (362,0);
ref = l;
}
);
};
layerId = "AE3FEF6D-3AA7-4252-B349-D2606A6A3B4C";
shapes = (
{
closed = 1;
nodes = (
(789,-4,o),
(873,93,o),
(873,243,cs),
(873,391,o),
(789,487,o),
(660,487,cs),
(572,487,o),
(509,442,o),
(476,366,c),
(472,366,l),
(472,681,l),
(445,681,l),
(445,365,l),
(441,365,l),
(408,442,o),
(345,487,o),
(257,487,cs),
(128,487,o),
(44,390,o),
(44,240,cs),
(44,92,o),
(128,-4,o),
(257,-4,cs),
(345,-4,o),
(408,41,o),
(441,117,c),
(445,117,l),
(445,0,l),
(472,0,l),
(472,118,l),
(476,118,l),
(509,41,o),
(572,-4,o),
(660,-4,cs)
);
},
{
closed = 1;
nodes = (
(545,21,o),
(472,109,o),
(472,243,cs),
(472,376,o),
(545,462,o),
(657,462,cs),
(770,462,o),
(843,376,o),
(843,243,cs),
(843,109,o),
(770,21,o),
(657,21,cs)
);
},
{
closed = 1;
nodes = (
(372,462,o),
(445,374,o),
(445,240,cs),
(445,107,o),
(372,21,o),
(260,21,cs),
(147,21,o),
(74,107,o),
(74,240,cs),
(74,374,o),
(147,462,o),
(260,462,cs)
);
}
);
vertWidth = 0;
width = 917;
},
{
background = {
shapes = (
{
pos = (330,-1);
ref = uniE00F;
},
{
pos = (-123,0);
ref = uniE01C;
},
{
pos = (305,0);
ref = l;
}
);
};
layerId = "3FD7D777-D61F-402B-A269-3A472D550581";
shapes = (
{
closed = 1;
nodes = (
(791,-11,o),
(868,82,o),
(868,249,cs),
(868,416,o),
(791,509,o),
(679,509,cs),
(618,509,o),
(576,485,o),
(542,433,c),
(535,433,l),
(535,688,l),
(351,688,l),
(351,434,l),
(344,434,l),
(310,486,o),
(268,510,o),
(207,510,cs),
(95,510,o),
(18,417,o),
(18,250,cs),
(18,83,o),
(95,-10,o),
(207,-10,cs),
(268,-10,o),
(310,14,o),
(344,66,c),
(351,66,l),
(351,0,l),
(535,0,l),
(535,65,l),
(542,65,l),
(576,13,o),
(618,-11,o),
(679,-11,cs)
);
},
{
closed = 1;
nodes = (
(559,115,o),
(535,159,o),
(535,249,cs),
(535,337,o),
(559,380,o),
(607,380,cs),
(656,380,o),
(680,337,o),
(680,249,cs),
(680,159,o),
(656,115,o),
(607,115,cs)
);
},
{
closed = 1;
nodes = (
(327,384,o),
(351,340,o),
(351,250,cs),
(351,162,o),
(327,119,o),
(279,119,cs),
(230,119,o),
(206,162,o),
(206,250,cs),
(206,340,o),
(230,384,o),
(279,384,cs)
);
}
);
vertWidth = 0;
width = 886;
},
{
background = {
shapes = (
{
pos = (353,0);
ref = uniE00F;
},
{
pos = (-80,0);
ref = uniE01C;
},
{
pos = (337,0);
ref = l;
}
);
};
layerId = m004;
shapes = (
{
closed = 1;
nodes = (
(793,-6,o),
(874,89,o),
(874,245,cs),
(874,401,o),
(793,496,o),
(660,496,cs),
(592,496,o),
(537,470,o),
(504,416,c),
(498,416,l),
(498,684,l),
(414,684,l),
(414,416,l),
(408,416,l),
(375,470,o),
(320,496,o),
(252,496,cs),
(119,496,o),
(38,401,o),
(38,245,cs),
(38,89,o),
(119,-6,o),
(252,-6,cs),
(320,-6,o),
(375,20,o),
(408,74,c),
(414,74,l),
(414,0,l),
(498,0,l),
(498,74,l),
(504,74,l),
(537,20,o),
(592,-6,o),
(660,-6,cs)
);
},
{
closed = 1;
nodes = (
(553,57,o),
(498,129,o),
(498,245,cs),
(498,362,o),
(553,432,o),
(642,432,cs),
(730,432,o),
(784,362,o),
(784,245,cs),
(784,129,o),
(730,57,o),
(642,57,cs)
);
},
{
closed = 1;
nodes = (
(359,433,o),
(414,361,o),
(414,245,cs),
(414,128,o),
(359,58,o),
(270,58,cs),
(182,58,o),
(128,128,o),
(128,245,cs),
(128,361,o),
(182,433,o),
(270,433,cs)
);
}
);
vertWidth = 0;
width = 912;
}
);
metricLeft = o;
metricRight = o;
unicode = 568;
},
{
color = 0;
glyphname = dcroat;
lastChange = "2026-03-20 13:07:09 +0000";
layers = (
{
layerId = "AE3FEF6D-3AA7-4252-B349-D2606A6A3B4C";
shapes = (
{
closed = 1;
nodes = (
(582,566,l),
(582,591,l),
(279,591,l),
(279,566,l)
);
},
{
ref = d;
}
);
width = 555;
},
{
layerId = "3FD7D777-D61F-402B-A269-3A472D550581";
shapes = (
{
closed = 1;
nodes = (
(597,540,l),
(597,642,l),
(206,642,l),
(206,540,l)
);
},
{
ref = d;
}
);
width = 581;
},
{
layerId = m004;
shapes = (
{
closed = 1;
nodes = (
(588,556,l),
(588,610,l),
(227,610,l),
(227,556,l)
);
},
{
ref = d;
}
);
width = 575;
}
);
metricLeft = d;
unicode = 273;
},
{
glyphname = dezh;
lastChange = "2026-03-16 18:50:09 +0000";
layers = (
{
background = {
shapes = (
{
ref = d;
},
{
pos = (506,0);
ref = ezh;
},
{
closed = 1;
nodes = (
(461,457,l),
(555,457,l),
(555,483,l),
(461,483,l)
);
}
);
};
layerId = "AE3FEF6D-3AA7-4252-B349-D2606A6A3B4C";
shapes = (
{
closed = 1;
nodes = (
(472,0,l),
(472,457,l),
(949,457,l),
(949,453,l),
(735,181,l),
(735,148,l),
(760,148,ls),
(906,148,o),
(954,70,o),
(954,-31,cs),
(954,-132,o),
(906,-209,o),
(760,-209,cs),
(613,-209,o),
(562,-132,o),
(562,-31,c),
(538,-31,l),
(538,-147,o),
(598,-238,o),
(760,-238,cs),
(921,-238,o),
(984,-147,o),
(984,-31,cs),
(984,85,o),
(931,177,o),
(765,177,c),
(765,181,l),
(972,442,l),
(972,483,l),
(472,483,l),
(472,678,l),
(445,678,l),
(445,365,l),
(441,365,l),
(408,442,o),
(345,487,o),
(257,487,cs),
(128,487,o),
(44,390,o),
(44,240,cs),
(44,92,o),
(128,-4,o),
(257,-4,cs),
(345,-4,o),
(408,41,o),
(441,117,c),
(445,117,l),
(445,0,l)
);
},
{
closed = 1;
nodes = (
(372,462,o),
(445,374,o),
(445,240,cs),
(445,107,o),
(372,21,o),
(260,21,cs),
(147,21,o),
(74,107,o),
(74,240,cs),
(74,374,o),
(147,462,o),
(260,462,cs)
);
}
);
width = 1028;
},
{
background = {
shapes = (
{
ref = d;
},
{
pos = (580,0);
ref = ezh;
},
{
closed = 1;
nodes = (
(510,359,l),
(631,359,l),
(631,500,l),
(510,500,l)
);
}
);
};
layerId = "3FD7D777-D61F-402B-A269-3A472D550581";
shapes = (
{
attr = {
identifier = ID0x10ff358a0;
strokePos = 1;
};
closed = 1;
nodes = (
(535,-1,l),
(535,359,l),
(934,359,l),
(934,351,l),
(745,186,l),
(745,87,l),
(857,87,ls),
(924,87,o),
(971,60,o),
(971,-5,cs),
(971,-58,o),
(939,-93,o),
(874,-93,cs),
(827,-93,o),
(786,-73,o),
(786,-9,c),
(591,-9,l),
(591,-137,o),
(698,-226,o),
(875,-226,cs),
(1066,-226,o),
(1159,-122,o),
(1159,2,cs),
(1159,117,o),
(1082,202,o),
(974,223,c),
(974,230,l),
(1142,374,l),
(1142,500,l),
(535,500,l),
(535,688,l),
(351,688,l),
(351,434,l),
(344,434,l),
(310,486,o),
(268,510,o),
(207,510,cs),
(95,510,o),
(18,417,o),
(18,250,cs),
(18,83,o),
(95,-10,o),
(207,-10,cs),
(268,-10,o),
(310,14,o),
(344,66,c),
(351,66,l),
(351,-1,l)
);
},
{
closed = 1;
nodes = (
(327,384,o),
(351,340,o),
(351,250,cs),
(351,162,o),
(327,119,o),
(279,119,cs),
(230,119,o),
(206,162,o),
(206,250,cs),
(206,340,o),
(230,384,o),
(279,384,cs)
);
}
);
width = 1178;
},
{
background = {
shapes = (
{
ref = d;
},
{
pos = (536,0);
ref = ezh;
},
{
closed = 1;
nodes = (
(480,420,l),
(584,420,l),
(584,490,l),
(480,490,l)
);
}
);
};
layerId = m004;
shapes = (
{
closed = 1;
nodes = (
(498,0,l),
(498,420,l),
(937,420,l),
(937,415,l),
(735,183,l),
(735,125,l),
(794,125,ls),
(910,125,o),
(959,66,o),
(959,-21,cs),
(959,-104,o),
(916,-165,o),
(800,-165,cs),
(691,-165,o),
(645,-110,o),
(645,-23,c),
(555,-23,l),
(555,-143,o),
(633,-233,o),
(800,-233,cs),
(973,-233,o),
(1049,-138,o),
(1049,-19,cs),
(1049,97,o),
(986,186,o),
(841,194,c),
(841,199,l),
(1033,420,l),
(1033,490,l),
(498,490,l),
(498,682,l),
(414,682,l),
(414,416,l),
(408,416,l),
(375,470,o),
(320,496,o),
(252,496,cs),
(119,496,o),
(38,401,o),
(38,245,cs),
(38,89,o),
(119,-6,o),
(252,-6,cs),
(320,-6,o),
(375,20,o),
(408,74,c),
(414,74,l),
(414,0,l)
);
},
{
closed = 1;
nodes = (
(359,433,o),
(414,361,o),
(414,245,cs),
(414,128,o),
(359,58,o),
(270,58,cs),
(182,58,o),
(128,128,o),
(128,245,cs),
(128,361,o),
(182,433,o),
(270,433,cs)
);
}
);
width = 1082;
}
);
metricLeft = d;
metricRight = ezh;
unicode = 676;
},
{
color = 8;
glyphname = dhook;
kernLeft = o;
lastChange = "2026-03-16 19:16:11 +0000";
layers = (
{
background = {
shapes = (
{
pos = (-61,0);
ref = uniE01C;
},
{
closed = 1;
nodes = (
(445,0,l),
(475,0,l),
(475,573,ls),
(475,635,o),
(510,663,o),
(571,663,cs),
(601,663,o),
(625,654,o),
(636,644,c),
(651,664,l),
(635,678,o),
(606,689,o),
(571,689,cs),
(499,689,o),
(445,654,o),
(445,574,cs)
);
}
);
};
layerId = "AE3FEF6D-3AA7-4252-B349-D2606A6A3B4C";
shapes = (
{
closed = 1;
nodes = (
(128,487,o),
(44,390,o),
(44,240,cs),
(44,92,o),
(128,-4,o),
(257,-4,cs),
(345,-4,o),
(408,41,o),
(441,117,c),
(445,117,l),
(445,0,l),
(472,0,l),
(472,573,ls),
(472,635,o),
(507,663,o),
(568,663,cs),
(598,663,o),
(622,654,o),
(633,644,c),
(648,664,l),
(632,678,o),
(603,689,o),
(568,689,cs),
(496,689,o),
(445,654,o),
(445,574,cs),
(445,365,l),
(441,365,l),
(408,442,o),
(345,487,o),
(257,487,cs)
);
},
{
closed = 1;
nodes = (
(372,462,o),
(445,374,o),
(445,240,cs),
(445,107,o),
(372,21,o),
(260,21,cs),
(147,21,o),
(74,107,o),
(74,240,cs),
(74,374,o),
(147,462,o),
(260,462,cs)
);
}
);
vertWidth = 0;
width = 660;
},
{
background = {
shapes = (
{
pos = (-123,0);
ref = uniE01C;
},
{
closed = 1;
nodes = (
(535,0,l),
(535,538,ls),
(535,561,o),
(553,573,o),
(585,573,cs),
(600,573,o),
(619,569,o),
(639,564,c),
(664,674,l),
(622,689,o),
(574,698,o),
(527,698,cs),
(433,698,o),
(351,660,o),
(351,553,cs),
(351,0,l)
);
}
);
};
layerId = "3FD7D777-D61F-402B-A269-3A472D550581";
shapes = (
{
closed = 1;
nodes = (
(95,510,o),
(18,417,o),
(18,250,cs),
(18,83,o),
(95,-10,o),
(207,-10,cs),
(268,-10,o),
(310,14,o),
(344,66,c),
(351,66,l),
(351,0,l),
(535,0,l),
(535,538,ls),
(535,561,o),
(553,573,o),
(585,573,cs),
(600,573,o),
(619,569,o),
(639,564,c),
(664,674,l),
(622,689,o),
(574,698,o),
(527,698,cs),
(433,698,o),
(351,660,o),
(351,553,cs),
(351,434,l),
(344,434,l),
(310,486,o),
(268,510,o),
(207,510,cs)
);
},
{
closed = 1;
nodes = (
(327,384,o),
(351,340,o),
(351,250,cs),
(351,162,o),
(327,119,o),
(279,119,cs),
(230,119,o),
(206,162,o),
(206,250,cs),
(206,340,o),
(230,384,o),
(279,384,cs)
);
}
);
vertWidth = 0;
width = 634;
},
{
background = {
shapes = (
{
pos = (-80,0);
ref = uniE01C;
},
{
closed = 1;
nodes = (
(498,0,l),
(498,560,ls),
(498,607,o),
(527,629,o),
(577,629,cs),
(601,629,o),
(622,623,o),
(638,614,c),
(657,668,l),
(630,683,o),
(594,693,o),
(555,693,cs),
(475,693,o),
(414,656,o),
(414,567,cs),
(414,0,l)
);
}
);
};
layerId = m004;
shapes = (
{
closed = 1;
nodes = (
(119,496,o),
(38,401,o),
(38,245,cs),
(38,89,o),
(119,-6,o),
(252,-6,cs),
(320,-6,o),
(375,20,o),
(408,74,c),
(414,74,l),
(414,0,l),
(498,0,l),
(498,560,ls),
(498,607,o),
(527,629,o),
(577,629,cs),
(601,629,o),
(622,623,o),
(638,614,c),
(657,668,l),
(630,683,o),
(594,693,o),
(555,693,cs),
(475,693,o),
(414,656,o),
(414,567,cs),
(414,416,l),
(408,416,l),
(375,470,o),
(320,496,o),
(252,496,cs)
);
},
{
closed = 1;
nodes = (
(359,433,o),
(414,361,o),
(414,245,cs),
(414,128,o),
(359,58,o),
(270,58,cs),
(182,58,o),
(128,128,o),
(128,245,cs),
(128,361,o),
(182,433,o),
(270,433,cs)
);
}
);
vertWidth = 0;
width = 655;
}
);
metricLeft = o;
metricRight = esh;
unicode = 599;
},
{
glyphname = dzaltone;
lastChange = "2026-03-16 18:54:35 +0000";
layers = (
{
anchors = (
{
name = bottom;
pos = (745,0);
},
{
name = top;
pos = (745,483);
}
);
background = {
shapes = (
{
ref = d;
userData = {
UFO.identifier = FB8DD7CE;
UFO.lib = {
};
};
},
{
pos = (554,0);
ref = z;
userData = {
UFO.identifier = 0F6C48D0;
UFO.lib = {
};
};
},
{
closed = 1;
nodes = (
(466,457,l),
(931,457,l),
(955,483,l),
(466,483,l)
);
}
);
};
layerId = "AE3FEF6D-3AA7-4252-B349-D2606A6A3B4C";
shapes = (
{
closed = 1;
nodes = (
(472,0,l),
(472,457,l),
(928,457,l),
(928,453,l),
(581,40,l),
(581,0,l),
(952,0,l),
(952,26,l),
(604,26,l),
(604,30,l),
(952,444,l),
(952,483,l),
(472,483,l),
(472,678,l),
(445,678,l),
(445,365,l),
(441,365,l),
(408,442,o),
(345,487,o),
(257,487,cs),
(128,487,o),
(44,390,o),
(44,240,cs),
(44,92,o),
(128,-4,o),
(257,-4,cs),
(345,-4,o),
(408,41,o),
(441,117,c),
(445,117,l),
(445,0,l)
);
},
{
closed = 1;
nodes = (
(372,462,o),
(445,374,o),
(445,240,cs),
(445,107,o),
(372,21,o),
(260,21,cs),
(147,21,o),
(74,107,o),
(74,240,cs),
(74,374,o),
(147,462,o),
(260,462,cs)
);
}
);
width = 977;
},
{
anchors = (
{
name = bottom;
pos = (841,-1);
},
{
name = top;
pos = (836,497);
}
);
background = {
shapes = (
{
ref = d;
userData = {
UFO.identifier = FB8DD7CE;
UFO.lib = {
};
};
},
{
pos = (580,0);
ref = z;
userData = {
UFO.identifier = 0F6C48D0;
UFO.lib = {
};
};
},
{
closed = 1;
nodes = (
(440,359,l),
(842,359,l),
(1061,500,l),
(440,500,l)
);
}
);
};
layerId = "3FD7D777-D61F-402B-A269-3A472D550581";
shapes = (
{
attr = {
identifier = ID0x10ff544a0;
strokePos = 1;
};
closed = 1;
nodes = (
(535,0,l),
(535,359,l),
(842,359,l),
(842,351,l),
(616,121,l),
(616,0,l),
(1061,0,l),
(1061,141,l),
(837,141,l),
(837,149,l),
(1061,378,l),
(1061,500,l),
(535,500,l),
(535,688,l),
(351,688,l),
(351,434,l),
(344,434,l),
(310,486,o),
(268,510,o),
(207,510,cs),
(95,510,o),
(18,417,o),
(18,250,cs),
(18,83,o),
(95,-10,o),
(207,-10,cs),
(268,-10,o),
(310,14,o),
(344,66,c),
(351,66,l),
(351,0,l)
);
},
{
closed = 1;
nodes = (
(327,384,o),
(351,340,o),
(351,250,cs),
(351,162,o),
(327,119,o),
(279,119,cs),
(230,119,o),
(206,162,o),
(206,250,cs),
(206,340,o),
(230,384,o),
(279,384,cs)
);
}
);
width = 1102;
},
{
anchors = (
{
name = bottom;
pos = (781,0);
},
{
name = top;
pos = (780,488);
}
);
background = {
shapes = (
{
ref = d;
userData = {
UFO.identifier = FB8DD7CE;
UFO.lib = {
};
};
},
{
pos = (561,0);
ref = z;
userData = {
UFO.identifier = 0F6C48D0;
UFO.lib = {
};
};
},
{
closed = 1;
nodes = (
(456,420,l),
(902,420,l),
(999,490,l),
(456,490,l)
);
}
);
};
layerId = m004;
shapes = (
{
closed = 1;
nodes = (
(498,0,l),
(498,420,l),
(897,420,l),
(897,415,l),
(596,71,l),
(596,0,l),
(994,0,l),
(994,70,l),
(693,70,l),
(693,75,l),
(994,419,l),
(994,490,l),
(498,490,l),
(498,682,l),
(414,682,l),
(414,416,l),
(408,416,l),
(375,470,o),
(320,496,o),
(252,496,cs),
(119,496,o),
(38,401,o),
(38,245,cs),
(38,89,o),
(119,-6,o),
(252,-6,cs),
(320,-6,o),
(375,20,o),
(408,74,c),
(414,74,l),
(414,0,l)
);
},
{
closed = 1;
nodes = (
(359,433,o),
(414,361,o),
(414,245,cs),
(414,128,o),
(359,58,o),
(270,58,cs),
(182,58,o),
(128,128,o),
(128,245,cs),
(128,361,o),
(182,433,o),
(270,433,cs)
);
}
);
width = 1029;
}
);
metricLeft = d;
metricRight = z;
unicode = 675;
},
{
glyphname = dzcurl;
lastChange = "2026-03-16 18:54:59 +0000";
layers = (
{
anchors = (
{
name = bottom;
pos = (815,-122);
},
{
name = top;
pos = (745,483);
}
);
background = {
shapes = (
{
ref = d;
userData = {
UFO.identifier = FB8DD7CE;
UFO.lib = {
};
};
},
{
pos = (554,0);
ref = zcurl;
userData = {
UFO.identifier = 0F6C48D0;
UFO.lib = {
};
};
},
{
closed = 1;
nodes = (
(466,457,l),
(931,457,l),
(955,483,l),
(466,483,l)
);
}
);
};
layerId = "AE3FEF6D-3AA7-4252-B349-D2606A6A3B4C";
shapes = (
{
closed = 1;
nodes = (
(472,0,l),
(472,457,l),
(928,457,l),
(928,453,l),
(581,40,l),
(581,0,l),
(806,0,l),
(803,-27,o),
(802,-53,o),
(802,-82,cs),
(802,-122,l),
(826,-122,l),
(826,-82,ls),
(826,-53,o),
(827,-26,o),
(830,0,c),
(859,0,ls),
(1012,0,o),
(1099,50,o),
(1099,141,cs),
(1099,212,o),
(1053,264,o),
(984,264,cs),
(890,264,o),
(828,176,o),
(808,26,c),
(604,26,l),
(604,30,l),
(952,444,l),
(952,483,l),
(472,483,l),
(472,678,l),
(445,678,l),
(445,365,l),
(441,365,l),
(408,442,o),
(345,487,o),
(257,487,cs),
(128,487,o),
(44,390,o),
(44,240,cs),
(44,92,o),
(128,-4,o),
(257,-4,cs),
(345,-4,o),
(408,41,o),
(441,117,c),
(445,117,l),
(445,0,l)
);
},
{
closed = 1;
nodes = (
(372,462,o),
(445,374,o),
(445,240,cs),
(445,107,o),
(372,21,o),
(260,21,cs),
(147,21,o),
(74,107,o),
(74,240,cs),
(74,374,o),
(147,462,o),
(260,462,cs)
);
},
{
closed = 1;
nodes = (
(850,163,o),
(904,238,o),
(984,238,cs),
(1036,238,o),
(1075,198,o),
(1075,141,cs),
(1075,68,o),
(999,26,o),
(859,26,cs),
(832,26,l)
);
}
);
width = 1124;
},
{
anchors = (
{
name = bottom;
pos = (947,-137);
},
{
name = top;
pos = (836,497);
}
);
background = {
shapes = (
{
ref = d;
userData = {
UFO.identifier = FB8DD7CE;
UFO.lib = {
};
};
},
{
pos = (580,0);
ref = zcurl;
userData = {
UFO.identifier = 0F6C48D0;
UFO.lib = {
};
};
},
{
closed = 1;
nodes = (
(440,359,l),
(842,359,l),
(1061,500,l),
(440,500,l)
);
}
);
};
layerId = "3FD7D777-D61F-402B-A269-3A472D550581";
shapes = (
{
attr = {
identifier = ID0x10ff55c80;
strokePos = 1;
};
closed = 1;
nodes = (
(535,0,l),
(535,359,l),
(842,359,l),
(842,351,l),
(616,121,l),
(616,0,l),
(900,0,l),
(896,-32,o),
(894,-66,o),
(894,-101,cs),
(894,-137,l),
(998,-137,l),
(998,-101,ls),
(998,-64,o),
(1000,-30,o),
(1003,0,c),
(1048,0,ls),
(1193,0,o),
(1282,65,o),
(1282,170,cs),
(1282,257,o),
(1223,318,o),
(1140,318,cs),
(1049,318,o),
(976,251,o),
(934,141,c),
(837,141,l),
(837,149,l),
(1061,378,l),
(1061,500,l),
(535,500,l),
(535,688,l),
(351,688,l),
(351,434,l),
(344,434,l),
(310,486,o),
(268,510,o),
(207,510,cs),
(95,510,o),
(18,417,o),
(18,250,cs),
(18,83,o),
(95,-10,o),
(207,-10,cs),
(268,-10,o),
(310,14,o),
(344,66,c),
(351,66,l),
(351,0,l)
);
},
{
closed = 1;
nodes = (
(327,384,o),
(351,340,o),
(351,250,cs),
(351,162,o),
(327,119,o),
(279,119,cs),
(230,119,o),
(206,162,o),
(206,250,cs),
(206,340,o),
(230,384,o),
(279,384,cs)
);
},
{
closed = 1;
nodes = (
(1064,177,o),
(1090,195,o),
(1122,195,cs),
(1145,195,o),
(1161,183,o),
(1161,165,cs),
(1161,140,o),
(1127,141,o),
(1058,141,cs),
(1043,141,l)
);
}
);
width = 1323;
},
{
anchors = (
{
name = bottom;
pos = (879,-127);
},
{
name = top;
pos = (780,488);
}
);
background = {
shapes = (
{
ref = d;
userData = {
UFO.identifier = FB8DD7CE;
UFO.lib = {
};
};
},
{
pos = (561,0);
ref = zcurl;
userData = {
UFO.identifier = 0F6C48D0;
UFO.lib = {
};
};
},
{
closed = 1;
nodes = (
(456,420,l),
(902,420,l),
(999,490,l),
(456,490,l)
);
}
);
};
layerId = m004;
shapes = (
{
closed = 1;
nodes = (
(498,0,l),
(498,420,l),
(897,420,l),
(897,415,l),
(596,71,l),
(596,0,l),
(844,0,l),
(841,-27,o),
(839,-58,o),
(839,-89,cs),
(839,-127,l),
(903,-127,l),
(903,-89,ls),
(903,-57,o),
(905,-27,o),
(908,0,c),
(943,0,ls),
(1093,0,o),
(1180,66,o),
(1180,158,cs),
(1180,229,o),
(1129,284,o),
(1057,284,cs),
(970,284,o),
(892,203,o),
(858,70,c),
(693,70,l),
(693,75,l),
(994,419,l),
(994,490,l),
(498,490,l),
(498,682,l),
(414,682,l),
(414,416,l),
(408,416,l),
(375,470,o),
(320,496,o),
(252,496,cs),
(119,496,o),
(38,401,o),
(38,245,cs),
(38,89,o),
(119,-6,o),
(252,-6,cs),
(320,-6,o),
(375,20,o),
(408,74,c),
(414,74,l),
(414,0,l)
);
},
{
closed = 1;
nodes = (
(359,433,o),
(414,361,o),
(414,245,cs),
(414,128,o),
(359,58,o),
(270,58,cs),
(182,58,o),
(128,128,o),
(128,245,cs),
(128,361,o),
(182,433,o),
(270,433,cs)
);
},
{
closed = 1;
nodes = (
(944,165,o),
(991,215,o),
(1052,215,cs),
(1094,215,o),
(1117,191,o),
(1117,157,cs),
(1117,105,o),
(1063,70,o),
(943,70,cs),
(920,70,l)
);
}
);
width = 1215;
}
);
metricLeft = d;
metricRight = z;
unicode = 677;
},
{
color = 3;
glyphname = eth;
lastChange = "2026-03-13 20:58:07 +0000";
layers = (
{
background = {
shapes = (
{
ref = o;
}
);
};
layerId = "AE3FEF6D-3AA7-4252-B349-D2606A6A3B4C";
shapes = (
{
closed = 1;
nodes = (
(389,-4,o),
(475,94,o),
(475,243,cs),
(475,390,o),
(401,541,o),
(290,638,c),
(374,705,l),
(359,724,l),
(274,653,l),
(235,683,o),
(196,702,o),
(170,715,c),
(158,692,l),
(188,679,o),
(225,660,o),
(252,636,c),
(155,559,l),
(171,539,l),
(271,622,l),
(333,568,o),
(400,478,o),
(436,384,c),
(432,382,l),
(393,460,o),
(332,487,o),
(259,487,cs),
(130,487,o),
(44,390,o),
(44,243,cs),
(44,94,o),
(130,-4,o),
(259,-4,cs)
);
},
{
closed = 1;
nodes = (
(147,21,o),
(74,109,o),
(74,243,cs),
(74,376,o),
(147,462,o),
(259,462,cs),
(372,462,o),
(445,376,o),
(445,243,cs),
(445,109,o),
(372,21,o),
(259,21,cs)
);
}
);
vertWidth = 0;
width = 519;
},
{
background = {
shapes = (
{
ref = o;
}
);
};
layerId = "3FD7D777-D61F-402B-A269-3A472D550581";
shapes = (
{
closed = 1;
nodes = (
(438,-10,o),
(538,88,o),
(538,292,cs),
(538,430,o),
(496,542,o),
(366,662,c),
(412,693,l),
(368,759,l),
(303,712,l),
(260,742,o),
(190,773,o),
(133,780,c),
(114,670,l),
(144,665,o),
(186,653,o),
(210,641,c),
(161,607,l),
(209,543,l),
(272,592,l),
(303,569,o),
(355,518,o),
(377,480,c),
(373,474,l),
(332,502,o),
(293,510,o),
(259,510,cs),
(132,510,o),
(18,430,o),
(18,250,cs),
(18,88,o),
(118,-10,o),
(278,-10,cs)
);
},
{
closed = 1;
nodes = (
(230,118,o),
(206,161,o),
(206,250,cs),
(206,339,o),
(230,382,o),
(278,382,cs),
(326,382,o),
(350,339,o),
(350,250,cs),
(350,161,o),
(326,118,o),
(278,118,cs)
);
}
);
vertWidth = 0;
width = 556;
},
{
background = {
shapes = (
{
ref = o;
}
);
};
layerId = m004;
shapes = (
{
closed = 1;
nodes = (
(412,-6,o),
(503,91,o),
(503,263,cs),
(503,399,o),
(441,541,o),
(322,647,c),
(392,701,l),
(367,738,l),
(289,676,l),
(249,706,o),
(198,729,o),
(160,740,c),
(145,684,l),
(175,674,o),
(214,658,o),
(240,638,c),
(161,577,l),
(189,541,l),
(276,611,l),
(326,569,o),
(387,494,o),
(418,420,c),
(414,417,l),
(375,475,o),
(329,496,o),
(270,496,cs),
(129,496,o),
(38,398,o),
(38,245,cs),
(38,91,o),
(129,-6,o),
(270,-6,cs)
);
},
{
closed = 1;
nodes = (
(182,58,o),
(127,128,o),
(127,245,cs),
(127,362,o),
(182,432,o),
(270,432,cs),
(359,432,o),
(414,362,o),
(414,245,cs),
(414,128,o),
(359,58,o),
(270,58,cs)
);
}
);
vertWidth = 0;
width = 541;
}
);
metricWidth = o;
unicode = 240;
},
{
color = 3;
glyphname = e;
kernLeft = o;
lastChange = "2026-03-16 19:24:10 +0000";
layers = (
{
anchors = (
{
name = bottom;
pos = (260,-5);
},
{
name = bottom.alt;
pos = (260,-5);
},
{
name = top;
pos = (255,488);
}
);
layerId = "AE3FEF6D-3AA7-4252-B349-D2606A6A3B4C";
shapes = (
{
closed = 1;
nodes = (
(356,-5,o),
(424,41,o),
(455,121,c),
(423,121,l),
(403,68,o),
(348,21,o),
(260,21,cs),
(137,21,o),
(73,111,o),
(73,239,c),
(466,239,l),
(469,383,o),
(408,488,o),
(255,488,cs),
(129,488,o),
(44,399,o),
(44,242,cs),
(44,85,o),
(125,-5,o),
(260,-5,cs)
);
},
{
closed = 1;
nodes = (
(80,381,o),
(143,462,o),
(255,462,cs),
(387,462,o),
(429,375,o),
(437,265,c),
(74,265,l)
);
}
);
vertWidth = 0;
width = 505;
},
{
anchors = (
{
name = bottom;
pos = (275,-10);
},
{
name = bottom.alt;
pos = (275,-5);
},
{
name = top;
pos = (277,510);
}
);
background = {
shapes = (
{
ref = o;
}
);
};
layerId = "3FD7D777-D61F-402B-A269-3A472D550581";
shapes = (
{
closed = 1;
nodes = (
(418,-10,o),
(496,68,o),
(525,147,c),
(328,147,l),
(322,131,o),
(304,116,o),
(275,116,cs),
(233,116,o),
(210,145,o),
(208,198,c),
(535,198,l),
(559,381,o),
(460,510,o),
(277,510,cs),
(118,510,o),
(18,410,o),
(18,249,cs),
(18,86,o),
(118,-10,o),
(275,-10,cs)
);
},
{
closed = 1;
nodes = (
(210,349,o),
(237,381,o),
(277,381,cs),
(320,381,o),
(347,352,o),
(347,294,c),
(210,294,l)
);
}
);
vertWidth = 0;
width = 552;
},
{
anchors = (
{
name = bottom;
pos = (270,-6);
},
{
name = bottom.alt;
pos = (270,-5);
},
{
name = top;
pos = (267,496);
}
);
layerId = m004;
shapes = (
{
closed = 1;
nodes = (
(383,-6,o),
(455,52,o),
(485,131,c),
(392,131,l),
(377,92,o),
(335,57,o),
(270,57,cs),
(177,57,o),
(128,123,o),
(127,219,c),
(496,219,l),
(506,381,o),
(431,496,o),
(267,496,cs),
(129,496,o),
(38,404,o),
(38,245,cs),
(38,86,o),
(127,-6,o),
(270,-6,cs)
);
},
{
closed = 1;
nodes = (
(132,370,o),
(182,432,o),
(267,432,cs),
(366,432,o),
(401,367,o),
(406,281,c),
(128,281,l)
);
}
);
vertWidth = 0;
width = 531;
}
);
metricLeft = o;
unicode = 101;
},
{
color = 3;
glyphname = esh;
kernLeft = j;
lastChange = "2026-03-16 18:55:15 +0000";
layers = (
{
layerId = "AE3FEF6D-3AA7-4252-B349-D2606A6A3B4C";
shapes = (
{
closed = 1;
nodes = (
(58,-238,o),
(109,-203,o),
(109,-123,cs),
(109,573,ls),
(109,635,o),
(144,663,o),
(205,663,cs),
(235,663,o),
(259,654,o),
(270,644,c),
(285,664,l),
(269,678,o),
(240,689,o),
(205,689,cs),
(132,689,o),
(82,654,o),
(82,574,cs),
(82,-122,ls),
(82,-184,o),
(46,-211,o),
(-14,-211,cs),
(-44,-211,o),
(-68,-203,o),
(-79,-192,c),
(-94,-213,l),
(-78,-227,o),
(-49,-238,o),
(-14,-238,cs)
);
}
);
vertWidth = 0;
width = 297;
},
{
layerId = "3FD7D777-D61F-402B-A269-3A472D550581";
shapes = (
{
closed = 1;
nodes = (
(166,-230,o),
(250,-191,o),
(250,-85,cs),
(250,505,ls),
(250,535,o),
(267,547,o),
(298,547,cs),
(313,547,o),
(333,545,o),
(352,539,c),
(377,647,l),
(336,663,o),
(287,672,o),
(241,672,cs),
(147,672,o),
(66,633,o),
(66,527,cs),
(66,-62,ls),
(66,-93,o),
(49,-105,o),
(17,-105,cs),
(2,-105,o),
(-17,-102,o),
(-36,-98,c),
(-62,-206,l),
(-20,-222,o),
(28,-230,o),
(75,-230,cs)
);
}
);
vertWidth = 0;
width = 347;
},
{
layerId = m004;
shapes = (
{
closed = 1;
nodes = (
(108,-235,o),
(169,-198,o),
(169,-109,cs),
(169,540,ls),
(169,590,o),
(197,612,o),
(247,612,cs),
(272,612,o),
(294,606,o),
(308,598,c),
(327,658,l),
(301,673,o),
(265,683,o),
(226,683,cs),
(145,683,o),
(85,647,o),
(85,557,cs),
(85,-92,ls),
(85,-142,o),
(55,-164,o),
(6,-164,cs),
(-18,-164,o),
(-42,-157,o),
(-55,-149,c),
(-73,-210,l),
(-47,-225,o),
(-12,-235,o),
(28,-235,cs)
);
}
);
vertWidth = 0;
width = 325;
}
);
unicode = 643;
},
{
color = 3;
glyphname = ezh;
lastChange = "2026-03-16 18:49:48 +0000";
layers = (
{
anchors = (
{
name = bottom;
pos = (254,-238);
},
{
name = top;
pos = (252,483);
}
);
layerId = "AE3FEF6D-3AA7-4252-B349-D2606A6A3B4C";
shapes = (
{
closed = 1;
nodes = (
(415,-238,o),
(478,-147,o),
(478,-31,cs),
(478,85,o),
(425,177,o),
(259,177,c),
(259,181,l),
(466,442,l),
(466,483,l),
(44,483,l),
(44,457,l),
(443,457,l),
(443,453,l),
(229,181,l),
(229,148,l),
(254,148,ls),
(400,148,o),
(448,70,o),
(448,-31,cs),
(448,-132,o),
(400,-209,o),
(254,-209,cs),
(107,-209,o),
(56,-132,o),
(56,-31,c),
(32,-31,l),
(32,-147,o),
(92,-238,o),
(254,-238,cs)
);
}
);
vertWidth = 0;
width = 522;
},
{
anchors = (
{
name = bottom;
pos = (295,-226);
},
{
name = top;
pos = (277,500);
}
);
layerId = "3FD7D777-D61F-402B-A269-3A472D550581";
shapes = (
{
closed = 1;
nodes = (
(486,-226,o),
(579,-122,o),
(579,2,cs),
(579,117,o),
(502,202,o),
(394,223,c),
(394,230,l),
(562,374,l),
(562,500,l),
(31,500,l),
(31,359,l),
(354,359,l),
(354,351,l),
(165,186,l),
(165,87,l),
(277,87,ls),
(344,87,o),
(391,60,o),
(391,-5,cs),
(391,-58,o),
(359,-93,o),
(294,-93,cs),
(247,-93,o),
(206,-73,o),
(206,-9,c),
(11,-9,l),
(11,-137,o),
(118,-226,o),
(295,-226,cs)
);
}
);
vertWidth = 0;
width = 598;
},
{
anchors = (
{
name = bottom;
pos = (269,-233);
},
{
name = top;
pos = (261,490);
}
);
layerId = m004;
shapes = (
{
closed = 1;
nodes = (
(442,-233,o),
(518,-138,o),
(518,-19,cs),
(518,97,o),
(455,186,o),
(310,194,c),
(310,199,l),
(502,420,l),
(502,490,l),
(39,490,l),
(39,420,l),
(406,420,l),
(406,415,l),
(204,183,l),
(204,125,l),
(263,125,ls),
(379,125,o),
(428,66,o),
(428,-21,cs),
(428,-104,o),
(385,-165,o),
(269,-165,cs),
(160,-165,o),
(114,-110,o),
(114,-23,c),
(24,-23,l),
(24,-143,o),
(102,-233,o),
(269,-233,cs)
);
}
);
vertWidth = 0;
width = 551;
}
);
unicode = 658;
},
